<mxfile host="app.diagrams.net" modified="2020-10-28T21:40:14.415Z" agent="5.0 (Macintosh; Intel Mac OS X 10_15_7) AppleWebKit/537.36 (KHTML, like Gecko) Chrome/86.0.4240.111 Safari/537.36" etag="fw0i4H0ibQeMGcuozRJg" version="13.8.6" type="github">
  <diagram id="fFxBB_kgFXi8soVIiyYt" name="Page-1">
    <mxGraphModel dx="946" dy="557" grid="1" gridSize="10" guides="1" tooltips="1" connect="1" arrows="1" fold="1" page="1" pageScale="1" pageWidth="827" pageHeight="1169" math="0" shadow="0">
      <root>
        <mxCell id="0" />
        <mxCell id="1" parent="0" />
        <mxCell id="y1rmw7ey6d1EXsP7_uVQ-1" value="" style="ellipse;whiteSpace=wrap;html=1;rounded=0;shadow=0;comic=0;strokeWidth=1;fontFamily=Verdana;fontSize=14;strokeColor=none;fillColor=#0069D1;" parent="1" vertex="1">
          <mxGeometry x="280" y="100" width="500" height="500" as="geometry" />
        </mxCell>
        <mxCell id="y1rmw7ey6d1EXsP7_uVQ-2" value="&lt;font style=&quot;font-size: 42px&quot;&gt;Nova&lt;/font&gt;" style="ellipse;whiteSpace=wrap;html=1;rounded=0;shadow=0;comic=0;strokeWidth=1;fontFamily=Verdana;fontSize=22;strokeColor=none;fillColor=#ffffff;fontColor=#0069D1;fontStyle=1" parent="1" vertex="1">
          <mxGeometry x="400" y="230" width="260" height="260" as="geometry" />
        </mxCell>
        <mxCell id="y1rmw7ey6d1EXsP7_uVQ-3" value="Paz y Salvo" style="text;html=1;strokeColor=none;fillColor=none;align=center;verticalAlign=middle;whiteSpace=wrap;rounded=0;fontFamily=Verdana;fontSize=14;fontColor=#FFFFFF;" parent="1" vertex="1">
          <mxGeometry x="570" y="167.65" width="40" height="20" as="geometry" />
        </mxCell>
        <mxCell id="y1rmw7ey6d1EXsP7_uVQ-4" value="" style="shape=image;imageAspect=0;aspect=fixed;verticalLabelPosition=bottom;verticalAlign=top;fontFamily=Verdana;fontSize=14;fontColor=#FFFFFF;image=data:image/png,iVBORw0KGgoAAAANSUhEUgAAAY0AAAFlCAYAAAAXsLQ+AAAACXBIWXMAAAsTAAALEwEAmpwYAAAKgWlUWHRYTUw6Y29tLmFkb2JlLnhtcAAAAAAAPD94cGFja2V0IGJlZ2luPSLvu78iIGlkPSJXNU0wTXBDZWhpSHpyZVN6TlRjemtjOWQiPz4gPHg6eG1wbWV0YSB4bWxuczp4PSJhZG9iZTpuczptZXRhLyIgeDp4bXB0az0iQWRvYmUgWE1QIENvcmUgNi4wLWMwMDIgNzkuMTY0NDg4LCAyMDIwLzA3LzEwLTIyOjA2OjUzICAgICAgICAiPiA8cmRmOlJERiB4bWxuczpyZGY9Imh0dHA6Ly93d3cudzMub3JnLzE5OTkvMDIvMjItcmRmLXN5bnRheC1ucyMiPiA8cmRmOkRlc2NyaXB0aW9uIHJkZjphYm91dD0iIiB4bWxuczp4bXA9Imh0dHA6Ly9ucy5hZG9iZS5jb20veGFwLzEuMC8iIHhtbG5zOmRjPSJodHRwOi8vcHVybC5vcmcvZGMvZWxlbWVudHMvMS4xLyIgeG1sbnM6cGhvdG9zaG9wPSJodHRwOi8vbnMuYWRvYmUuY29tL3Bob3Rvc2hvcC8xLjAvIiB4bWxuczp4bXBNTT0iaHR0cDovL25zLmFkb2JlLmNvbS94YXAvMS4wL21tLyIgeG1sbnM6c3RFdnQ9Imh0dHA6Ly9ucy5hZG9iZS5jb20veGFwLzEuMC9zVHlwZS9SZXNvdXJjZUV2ZW50IyIgeG1sbnM6c3RSZWY9Imh0dHA6Ly9ucy5hZG9iZS5jb20veGFwLzEuMC9zVHlwZS9SZXNvdXJjZVJlZiMiIHhtcDpDcmVhdG9yVG9vbD0iQWRvYmUgUGhvdG9zaG9wIDIyLjAgKE1hY2ludG9zaCkiIHhtcDpDcmVhdGVEYXRlPSIyMDIwLTEwLTI4VDEyOjQ1OjIyLTA1OjAwIiB4bXA6TW9kaWZ5RGF0ZT0iMjAyMC0xMC0yOFQxNToyMToxNy0wNTowMCIgeG1wOk1ldGFkYXRhRGF0ZT0iMjAyMC0xMC0yOFQxNToyMToxNy0wNTowMCIgZGM6Zm9ybWF0PSJpbWFnZS9wbmciIHBob3Rvc2hvcDpDb2xvck1vZGU9IjMiIHBob3Rvc2hvcDpJQ0NQcm9maWxlPSJzUkdCIElFQzYxOTY2LTIuMSIgeG1wTU06SW5zdGFuY2VJRD0ieG1wLmlpZDowOTI3MzQwMy1iOWU2LTQ4M2EtOTVlOS1hOTg3OTUzZTEwNTIiIHhtcE1NOkRvY3VtZW50SUQ9ImFkb2JlOmRvY2lkOnBob3Rvc2hvcDo4YmE2Mzc3Zi0xMTJkLWFlNDctOGU0My1kODM5MTgwNTQ4NmMiIHhtcE1NOk9yaWdpbmFsRG9jdW1lbnRJRD0ieG1wLmRpZDpkOTYzMjliOS0wMmVmLTQyODEtYTY3OC1lYjY5ZTMwNWFjMzAiPiA8cGhvdG9zaG9wOlRleHRMYXllcnM+IDxyZGY6QmFnPiA8cmRmOmxpIHBob3Rvc2hvcDpMYXllck5hbWU9IkxvcmVtIElwc3VtIiBwaG90b3Nob3A6TGF5ZXJUZXh0PSJMb3JlbSBJcHN1bSIvPiA8L3JkZjpCYWc+IDwvcGhvdG9zaG9wOlRleHRMYXllcnM+IDx4bXBNTTpIaXN0b3J5PiA8cmRmOlNlcT4gPHJkZjpsaSBzdEV2dDphY3Rpb249ImNyZWF0ZWQiIHN0RXZ0Omluc3RhbmNlSUQ9InhtcC5paWQ6ZDk2MzI5YjktMDJlZi00MjgxLWE2NzgtZWI2OWUzMDVhYzMwIiBzdEV2dDp3aGVuPSIyMDIwLTEwLTI4VDEyOjQ1OjIyLTA1OjAwIiBzdEV2dDpzb2Z0d2FyZUFnZW50PSJBZG9iZSBQaG90b3Nob3AgMjIuMCAoTWFjaW50b3NoKSIvPiA8cmRmOmxpIHN0RXZ0OmFjdGlvbj0iY29udmVydGVkIiBzdEV2dDpwYXJhbWV0ZXJzPSJmcm9tIGltYWdlL3BuZyB0byBhcHBsaWNhdGlvbi92bmQuYWRvYmUucGhvdG9zaG9wIi8+IDxyZGY6bGkgc3RFdnQ6YWN0aW9uPSJzYXZlZCIgc3RFdnQ6aW5zdGFuY2VJRD0ieG1wLmlpZDpkZGRhOTI4Zi03NTQ5LTQyMzktYjdjMS02YjQ5ODY5MmY2MDYiIHN0RXZ0OndoZW49IjIwMjAtMTAtMjhUMTU6MTk6MzUtMDU6MDAiIHN0RXZ0OnNvZnR3YXJlQWdlbnQ9IkFkb2JlIFBob3Rvc2hvcCAyMi4wIChNYWNpbnRvc2gpIiBzdEV2dDpjaGFuZ2VkPSIvIi8+IDxyZGY6bGkgc3RFdnQ6YWN0aW9uPSJzYXZlZCIgc3RFdnQ6aW5zdGFuY2VJRD0ieG1wLmlpZDpjM2M1MTZhMC1iMGM3LTQ0N2MtODg1OC03YjA3YzI4ZDhjOTIiIHN0RXZ0OndoZW49IjIwMjAtMTAtMjhUMTU6MjE6MTctMDU6MDAiIHN0RXZ0OnNvZnR3YXJlQWdlbnQ9IkFkb2JlIFBob3Rvc2hvcCAyMi4wIChNYWNpbnRvc2gpIiBzdEV2dDpjaGFuZ2VkPSIvIi8+IDxyZGY6bGkgc3RFdnQ6YWN0aW9uPSJjb252ZXJ0ZWQiIHN0RXZ0OnBhcmFtZXRlcnM9ImZyb20gYXBwbGljYXRpb24vdm5kLmFkb2JlLnBob3Rvc2hvcCB0byBpbWFnZS9wbmciLz4gPHJkZjpsaSBzdEV2dDphY3Rpb249ImRlcml2ZWQiIHN0RXZ0OnBhcmFtZXRlcnM9ImNvbnZlcnRlZCBmcm9tIGFwcGxpY2F0aW9uL3ZuZC5hZG9iZS5waG90b3Nob3AgdG8gaW1hZ2UvcG5nIi8+IDxyZGY6bGkgc3RFdnQ6YWN0aW9uPSJzYXZlZCIgc3RFdnQ6aW5zdGFuY2VJRD0ieG1wLmlpZDowOTI3MzQwMy1iOWU2LTQ4M2EtOTVlOS1hOTg3OTUzZTEwNTIiIHN0RXZ0OndoZW49IjIwMjAtMTAtMjhUMTU6MjE6MTctMDU6MDAiIHN0RXZ0OnNvZnR3YXJlQWdlbnQ9IkFkb2JlIFBob3Rvc2hvcCAyMi4wIChNYWNpbnRvc2gpIiBzdEV2dDpjaGFuZ2VkPSIvIi8+IDwvcmRmOlNlcT4gPC94bXBNTTpIaXN0b3J5PiA8eG1wTU06RGVyaXZlZEZyb20gc3RSZWY6aW5zdGFuY2VJRD0ieG1wLmlpZDpjM2M1MTZhMC1iMGM3LTQ0N2MtODg1OC03YjA3YzI4ZDhjOTIiIHN0UmVmOmRvY3VtZW50SUQ9InhtcC5kaWQ6ZDk2MzI5YjktMDJlZi00MjgxLWE2NzgtZWI2OWUzMDVhYzMwIiBzdFJlZjpvcmlnaW5hbERvY3VtZW50SUQ9InhtcC5kaWQ6ZDk2MzI5YjktMDJlZi00MjgxLWE2NzgtZWI2OWUzMDVhYzMwIi8+IDwvcmRmOkRlc2NyaXB0aW9uPiA8L3JkZjpSREY+IDwveDp4bXBtZXRhPiA8P3hwYWNrZXQgZW5kPSJyIj8+a/YG4AAAG7JJREFUeJzt3f9108q6xvGHu/b/R6eCKyrYpgJEBdupAKeChApIKkioAFMBoQJEBWhXgE4FW7cC7h9jH9uJf4ykkd6R5vtZKwsIiebFDno0M5rRq9+/fwsAAB9/DHz8haRMUjFwOwAAp5LU7P0aVOjQWEhaSnorggIArNWSSknfJD2FOOCrAMNTmaSVpBtJed+DAQAG0cgFx71cmHTSJzQySbdyYZF1PQgAYHSlpGt1CI+uobGU9FmEBQBM2aNcz6Px/Ya2oZHJhcWyzTcBAKJVS7qSmzi/6H9aHHgh6acIDACYk1zu3L7y+WLfnsZC0ncxHAUAc7aWm+s4yaensRCBAQApWMlNQZx0KTQWIjAAICUrSXen/vLc8FQmN86VBy4IABC/Kx1ZEHguNL6LVd0AkKpG0hs9W8txanjqVgQGAKQs05H5jWM9jUzSLzGPAQBwd1Ott3841tN4EIEBAHAOMuF5aOTyXOABAEhCJjdlIellaNyMWQkAYBLeb3/zfE7jHzE0BQB46UrS035PYykCAwBw3F/S4fDUX0aFAADit5QOh6d+idXfAIDT3m17GrkIDADAecV+aAAAcM6f29AoLKsAAExC1ubJfQCAtP13eOp/TcsAAEwCcxoAAG9/WBcQmXudeWIVgGQVcs8YSh5zGgBwWWldQCwIDQCAN0LjUGVdAADEjNA41FgXACBajXUBMSA0DtXWBQCIVmVdQAwIjUO1dQEAolVbFxADQmOnsi4AQNT+ti4gBoTGTmVdAICoVdYFxIDQ2PlhXQCAqJXWBcSA0NgprQsAEL3SugBrhIZTiUkuAJd9sy7AGqHhlNYFAJiEJ+sCrBEazhfrAgBMQq3EJ8QJDfcDUBnXAGA6kr7IJDSkT9YFAJiUtRLeUiT10GjkfgAAwFejhOc2Ug8NehkAuri3LsBKyqHRSHo0rgHANNVKdJQi5dC4V8LjkgB6S/IckmpoVKKXAaCfWgkOcacaGh+sCwAwC3dK7Jb9FEPjUawABxDOtXUBY0otNCrRywAQVqWE7qZKKTQaSVfWRQCYpTslsnYjpdC4EjvZAhjOtRKY30glNK7FPAaAYTVyF6eNbRnDSiE0rpXoIhwAo6slvdOMg2PuoUFgABhbpRkHx5xDg8AAYKWSC47atozw5hgajdy44tq2DACJqyS90cwmx+cWGpVcuj/ZlgEAktxF7BvN6CJ2TqHxKBcYlW0ZAPDCtWZyZ9UcQqOWC4sPmsEbAmC2niS91sRHQqYcGo3c0v3XYg0GgGlo5Hock50kn2JoNNqFxZ1pJQDQTSl3DrvWxMJjSqFR6zAsGsNaACCEtdw57UoTGTF59fv3b0n6LqmwLeWoRm7875smPg4IAB5ySUtJ7yUtLAs5JbbQaOTufvohFxKVXSkAYCqXOy+/3fya25WyYxEapVwY/N/mz/WzD4RXKI6LAsxfrRmtSYhQISnTYS/krVyg5GMUYBEar0ZqB85S0lfrIpCUtRJ7ml0E7iR9HKOhKU2Eo5sH6wKQnJUiHY9Hf4TG/OXWBSBJS+sCMAxCAwDgjdAAAHgjNAAA3ggNAIA3QgMA4I3QAAB4IzQAAN4IjflrrAtAkkrrAjAMQmP+PlkXgORUIjRm6w/rAjC4O7lN5N7bloFE1HKPXsZMERppWIudRwEEwPAUAMAboQEA8EZoAAC8ERoAAG+EBgDAG6EBAPBGaAAAvBEaAABvhAYAwBuhAQDwRmgAALwRGgAAb4QGAMAboQEA8EZoAAC8ERoAAG+EBgDAG6EBAPBGaAAAvBEaAABvhAYAwBuhAQDwRmgAALwRGgAAb4QGAMDbH9YFROhO0o2kzLYMAJEoJV1JamzLiAM9jUMrSR9FYADYKSR9tS4iFoTGoffWBQCIUmFdQCwIDQCAN0IDAOCN0AAAeCM0AADeCA0AgDdCAwDgjdAAAHgjNAAA3giNQz+sCwAQpdq6gFgQGoceJVXGNQCISyO39xTEhoXPNZLeiC0DAOxUYrPC/yI0jiutCwCAGDE8BQDwRmgAALwRGgAAb4QGAMAboQEA8EZoAAC8ERoAAG+EBgDAG6EBAPBGaAAAvBEaAABv7D31Ui7p4+ZXAGlrJH2R9GRbRjwIjUMLSd8lZbZlAIjIUtK9pDvbMuLA8NShGxEYAF66sS4gFoTGody6AABRyqwLiAWhAQDwRmgAALwRGgAAb4QGAMAboQEA8EZoAAC8ERoAAG+ExqHaugAAiBmhceiT3F4zALDv3rqAWLD31KFK0ju5LQNy00oAxOKLpLV1EbEgNF6qJF1bFwEAMWJ4CgDgjdAAAHgjNAAA3ggNAIA3QgMA4I3QAAB4IzQAAN4IDQCAN0IDAOCN0AAAeCM0AADeCA0AgDdCAwDgjdAAAHgjNAAA3ggNAIA3QgMA4I3QAAB4IzQAAN4IDQCAN0IDAOCN0AAAeCM0AADeCA0AgLc/rAsAMIpM0mLz+9KsCkweoQHMUy5pJemtpOLE15SSvkl6klQPXhFmgeEpYF4KSd8l/ZL0UacDY/u1D5uv/SwXNMBZhAYwHw9ygVF0+N6VpJ+SbsOVgzlieAqYvkwuLBYBjvMg6U9J1z2PhZmipwFMW6YwgbFvJTdcBbxAaADT9lVhA2NrJdfrAA4QGsB03anb/IWv24GPjwkiNIBpyiTdjNAOw1Q4QGgA0/QgFxxDy+WGqgBJhAZgZSl3Ff9d0u9nHz83f7fS8WDINe6J/OOJz+dyQ1hf5dZ6PP93fJcLt8XQBWI8r37//i11v7e7U5sjtQPEJpM7yd7Iv5fQyK3Y/iSp2nxuGyhjupa03vy+kPs3LFt8fy3pfu8YCOtOp8M9KNZpAONYyp3ss5bfl8kFxEq7bT9WgWpq4+Per3mH78/l/v03cgFUhSgK42N4Chjeg9wQTtbzOIXsboPNFWarkYXc8Nuq53FghNB4aaXj47N82H78I9cFn5rPYmuOYyyG2BAAoXFoKTZui1UmNzRyZ1tGK7fixHjOZ7EOZHIIjUPvrQvARVN5jxZiRbWPEMN2GBGhcSizLgAX5dYFePpsXcBEZCJcJ4XQAMJbibUJbaw0nYuB5BEaQHhTGUKLyY11AfBDaABh5WJyt4uldQHwQ2gAYRXWBUxULob0JoHQAMLKrQuYsNy6AFxGaABhvbUuYMIW1gXgMkIDAOCN0DhUWReAi56sCwBSRmgcuhfBEbNG7j2KWWNdADAktkY/1Eh6IxYbxaiW62U0plVc9re4fbSryroAXEZoHLe2LgCTVVkXMGGVdQG4jOEpIKzKuoCJauR6k4gcPQ0grHrzkZtWcajWyxPyQnFt0FlaFwA/hAYQXiXb0HiS9EPuRFxd+NpCLkD+ku1q9r8N20YLhAYQ1kI2V/CVpE9qf7NAufl41O555DcaP/T+tWmzHrldtMScBtBfIfdMiF9yz78uRmy7lvRO7q6/tfrdXdbIhcdrSdca9wR+q93rdydWh0eL0AC6yeRObr8kfZc76eUjtt9I+iB3gi8HOP5aLogeBzj2OQu5x/r+lHttVyO3jwsIDaC9pdwJ7aNs5i4qud7F48DtNHLB9E4262NyuScg/hQ9j2gQGkA7D7J9rnUldxKvRmyzlOt1jNnmvoVccKyM2sceQgPw91luGMrKWu7k3Ri0XWv8sHruswgOc4QG4OdBtiesSm6oyFIjFxy1YQ0EhzFCA7hsKdseRi27eYXnGklXsq3lQXEtnkwK6zReysWVTKzWGv8qN5M7SVmyPkk/V8n1ej4btZ9t2n5n1H7SCI1DudyEW2ZbBk74KHeiKEds81a2V7Wxbte/lvRedqvIi81HadR+shieOvRRBEbsxr7qfz9ye/tqjb9Ooo1r4/ZvjNtPEqFxKLcuABctRmyrkH0vozFs/5Jato8RWIqLvNERGsBphWHbtabxXBfrJykWxu0nh9AATntr2PYXw7bbqGX73PaFYdtJIjSA0zLDtteGbbf1zbBty2BPEqEBnLYwarfWtLYIf7IuAOMhNID4PFkX0FIjbn1NBqEBnFYbtTvFp9hV1gVgHIQGcFqdWLt9WAXdD6N2k0VoHGqsC8BF9YhtVSO2ta80arePOrF2k0VoHPpkXQAuGnNdAFex8SutC0gNe08dKuX2NroRK01j9EnjThI/yfU+sxHbhL9K9DRGR2i8VIqrF+ysZbstOk5jZMAAw1PAebHv/5SqWtNaADkbhAZwXqPx91dajNxeCNnI7VnvsJssQgO47FHjzqVkI7YVymLEtu7FELIZQgPwc63xbsEtRmonpD9Hamct6W6ktnAEoQH4aTTeUwOnuAlfMUIbazEsZY7QAPw1csHxOHA7haY1RLXQsPU2cmFBYESA0ADa+yDpSsPeVbUc8NihDflI3FouqNcDtoEWCA2gmydJbzRccFg+m7yt1UDHreRe42qg46MDQgPoLtdwwzKFpjEhvtJwr0E+4LHREaEBdJNJ+jxwGx8HPn4IQ9aYafjXGC0RGkA3H+WuhIdUKO7exp3GeQ1WA7eBFl79/v1bkr5rvB/Od3u/r8QWDZiehaSfI7VVa9i5k65yudcgG6GtRtJrxfcaWFto9/q/10jharFh4fcjn6s3Hz/kgqQSu1ciXg8jtpXLDdFcjdimj68ab74hk9s08m6k9mJTbD7+lHstCrtSbHoaviq5hVRfxN0TiMdC4/Uy9n3Q8OtDfH3W+ENGjdLpbeRyt1y/VYS3Xsc8p7GQu7r4KemXxhk/BS6xuhX2QXGM7VsEhuSusJcG7Y5pJXcB/0vu/V5aFnNKzKGxL5ebePwl90ObWxaDpC0N27Y6YcfS/l+GbQ8lk7sg3p7bCsNavEwlNPatRHjARib7n7nPGndORdrd+roaud3nCuP2Q7uTO5eNcSdeMFMMja2VdsNWwBgW1gVs3MoNY+QjtLXYtLUaoa1LMusCAim0C4vMtJIOphwaW9thq4VxHcCYCrn5vruBjp/J9Wh+Kq7/W4V1AT1kcnedjRX4g5hDaEi7e8bvbMsARpVpd9G0Upir1ky7YZPbAMeDs5A7Ry1ty+hvLqGx9VHj3j8OxCCXm3PYzvUt1e7/QCYXOl8l/aO4h00a6wI6WMkFRm5bRhgxr9Poo5JbDFXbloGZKXR8cWqsqs3HfzZ/ruXCINv8+U+5K+B8xJr6emVdQEsx3EAQ1FxDQ9o9MKeyLQMzksldicNGLbfAbypmFxjS/Ian9mVyYbiwLQMz0oiLEEuldQEtzDIwpHmHhkRwILxv1gUkbCqv/WwDQ5p/aEi7hUmZbRmYibV1AYmq5Z6WGLtZB4aURmhIrqfx1boIzEItgsPCvXUBHlaaeWBI6YSG5Cb6x95+AfP0QdO89XOqKsUf1Asl8pTBlEJDcouVCuMaMH2NXHBgeI2ka+siLsiU0EhGaqEhsfgPYawVz/Mt5uyD4r9jbVIbDvaVYmhkcm8y0NcHxT9sMmXXiv/1LZTYdisphobEMBXCud58NMZ1zEkttzB3bVuGl+TmSVMNDYneBsJZS3qjaZzkYncv91qWxnX4WCnBNWBz3kbExztN44cT05FLupHbNDC3LGRCKklf5EK3sSykpV9K8D1OPTRKueAAhpDp/JXoe83/vv5LE9nlOGUEt1Iit9g+94d1AcaKzUdpWgXmqtH5n61c8w+NSvP8/5Xs8HbKcxpb760LQLJq6wJGUFoXMIBCCQ5LbREa4Z54BrRVWxeATpK+0CQ0nKV1AUhSbV3AwErrAgaQaf5DimcRGs5f1gUgWbV1AQNqrAsYwNK6AGuEhrO0LgDJKq0LGNAP6wIG8Na6AGuExk5hXQCSNJUHC3XxZF3AAJbWBVgjNHYK6wKQpCfNcxin1PyG3hbiphlCY0/y3U6Y+WRdwACm8NCkthbWBcSA0NhZWBeAZD1qnKvyZoQ2JNfLKEdqa0y5dQExIDR2MtH1hI1Gwz9oqJbbMueNhg2PRvE/NKkrRiNEaDy3sC4AySo13Mm2kguLavPxTsMFx5XmN5exlVkXEANCA4jHWuHnAiq9DIljnwvhWvMcltpaWBcQA0LjUGFdAJJ3p3APdXrS6XCoJL1WmEep1uJ5IskgNID4rNXvQUS13DDRlc6HT7Np5/7C153zqN3QFxJAaABxqrWbuF7L76ReyfVSXqvdwrq7zfdcevbFfm2Pe9/jU9vU5dYFxCL1hzA9V2u+k3ho71px/TwsNh/5s8+Xcif7JlA7+V5b+2rtJtNjsZR7UuLQMjGnIWkXGl/F8nhgXy13JY24ZXKPXc1sy0jHdnjqb9MqgPjMcUXzHDWa54r6aDGnAbxUq/+dQJncsG/W8zhztpB7jfpaBzgG/FTb0KgtqwAiE6KXcSs3T/g5wLHmKJN7bQr1n0+tRXCMpdnOaSwk/bStBYhCI+nfAY7zj3a9jLXmu7VGF5lcD2Ox+XMpd6dYH7nc3AaGdb/taVSWVQARCTE+vtLhsNRK9Di2Mh0GhkRvY0qq/TmNJ6sqgEg0cusP+vp45HMrERyZXgbGVojbZr8EOAbOOwiNOT6aEWjjk/qvdVjp9EKwldKdHF/IDYEvTvz9Uv0X0JWa995X1ipJNT0NYOcxwDGO9TL2FXJj70WAtqbiVi4s8wtfd+m188Gt0sP5Ih3ecluL4EC61urfyyjkd7WcyZ1EHzTvXkeudv/OlehtxGwtvVynwSIZpCrEFWrbK+VbuV7HneYVHplcUHTpUYXobTC3Ed5am4uq7S23+9iHCqlZq/8tsYX6LVRr5C7a1pruuqmF3IT2qscxGrntW5qetfwSmwyG9Fqbn8tjoVEozCpNYCr++x+ih5AXW5Xc1XKpbrfD53In3Wagr9+3kJvE/kvhNvS7l+t99bESd6uFstbeRdWx0JDYwBDpKBX3wrJGLjh+7P3+uYXckNDbTS252gXhSu4EW2+O/7dO7/hcSPqXdrvgZp5ttNGI3kYsGj17L06FRiZ2jkQa3qn/xOln9RuSCa1Wux16c8W3mjpEb+NWbm4F3V3p2Q1SpzYsbDZfDMxZqf6BkSuuwJDa/5tqxTeP8j7AMdZK4wFRQ1nryB2153a5LeWeygXMlcUdU2PoslC3DF1ET7n6h3Ej7gjtqtKJ8/+p4al9sXW9gRBq9X/IUia3MWFsukzsrxTfxHGtMO8RQ+3tVHLDts2xv/R5nsa12AgM8xNq+/PY1Oo21FQGrSKMXGF6G+uex0hJpTOBIfn1NLbuFGdXHGir1nyvYNfqvuYkxruNKklveh4jV3wT/TGqdCEwpHZP7ruTmxw/e0BgAkL1MrIAxwmtz8ajZagiAlqIbdPHsJYL5+bSF7bpaWzl2j1xC5iaRuEfshSTN+r+fJyV4pvXkOJfSzNljVzP9Mn3G7o8I7yWewOvFd9tesAlQzxkKRaN+j1QrQxSRXiFwvQ2nnoeY24e5YZpn9p8U5fQ2FpvGiQ8MBWNxtn+3ErZ8/trxft/OcRDmrj9dndjwGu5W2qbtgfoExpb2wLeadqbrWH+hn7IkrUQD1IrAxxjCEuxbXofT3IX+L0v9LvMafhYbD5yuf1wpN2eOICVf2ve+xn1mc/YWinOeQ0pjt2IY9Zo9/7Xkv6jAYJyqNAA5qhQvCecRmEm+HPFPWEcYkdi9BBieApIRaxzGVK4q8lacZ+UY34PkkBoAH4KxX2beYj5jK0y4LFCWyrOO9eSQWgAfmK/wi0DHitkAIWWKc7tW5LBnAZwWa64x/kbhZnP2MoV/783xEOa0AE9DeCylHoZUvzzGpnobZghNIDzcsX/aIAhhpPKAY4ZUoiHNKEDQgM4L/ZehjTMCT7meQ1pGmE+S8xpAKdlivMhS/sahZ3P2MoV97yGFGaLe7RETwM47da6AA/lQMetFfe8hkRvwwShARyXKcwmeUMbchipHPDYoUzhPZoVQgM47lbTWERWDnjs2Oc1pDAPaUILzGkAx8X6kKV9jYaZz9jKFf+8hhTmIU3wRE8DeGml+ANDGn74qFb88xpS/Fu8zAqhAbw0hdtspXGGj8oR2giBuY2REBrAoZXifV7Gc+UIbfw9QhshLDWd923SCA3g0FR6GY36P3DJRzlCG6FM5b2bNEID2Ck0navVcqR2Kk1nY8CVpvP+TRahAexM6Up1zNthyxHb6ou5jYERGoBTaFp34JQjtjWF9RpbK03jzrfJIjQAZ0q9DGmc+YytcsS2+so0je1fJovFfcB0FrFtlRp/MdsUFjtuNeIhTYOhpwFMr5dhMVxUGrTZVSY2MhwMoYHU5ZreCaY0aHNK8xoSE+KDITSQuqn1MiSb0LBos49c07sYmATmNJCyTPE/ZOm5Unab801pXkPiIU2DoKeBlN0OeOxG0r3CT8ZaDhOVgY9XSXoMfMx9uehtBEdoIFWZhhv3fpS7wr2TtA587DLw8doIHVifJH2Qe62eAh976/1Ax00Ww1NI1Z3Cz2es5XoX9d7ncoW9nfdVwGO1tZD0M9CxGr18Fkgh954UgdrYeqfpzclEi54GUhWyl1HKnZiu9fL5E7XCnbBCHaerSuGG29ZHPlfKvY5XCvscjyne7BAtQgMpWinMhG4td4K7dCX7JUBbUhy3vZaBjvPpzN89yQ1ZfVCYkCo0rS1iokZoIEV9rzwbuV6F71j8WmGunMsAx+grRHCV8ns9HuVe4xA3FDC3EQihgdSs1H377EbuBPZa7Se4Q/Q2ygDH6KsMcIw2r0UjN//0Rv1uKliJbdODYCIcqfmlbiePtV5OcreRq9+EeCm79RnP9VmvUavf2omFpAd1G25ay/UQ0QM9DaSkUPvAKOWuco9NcrdRq99tpTHMZ2yVPb63b4+rkgvPd2q/0+9K9DZ6IzSQkjZzGZW6n5xO6XPCLAPVEEKfAFsHqqFUtzBnT6qeGJ5CKgpJ3z2+rpYbhloPVEfX4THL9RnPLdRtvcaT3N1moWVyq/tvdHnYrBHbpvdCTwOpuNTLaOTCou+E6yXnbjU9pQxdRE+Vup10u/zbfTRyk+WvdXlbkkw8pKkXQgOpKM783aN22340A9ex7vA9Mc1nbJUtv77u8D1tNfLbloTbb3sgNJCyJ4VdROajUfvgKINX0V/bIBuql3FMLb9Fl+iA0EAqHvd+X2qY7Sp8tZ0QL4cooqey5devB6jhklLH3+d7g1pmg4lwpCSXG9OuTKtwfspNKF9SKp71Gc/5rtdYK471EYXC7p+VJHoaSEmtOAJD8h+uiXE+Y6v0/LpQe2/1VYrA6I3QAGw8ye8EVg5aRT8+gVYp7n8DWiI0ABuN/FaIl4NW0U/p8TVjToBjBMxpAHYWOr9IrlS88xlb504gjVhINzv0NAA7lc5frVejVNFPeebvnkRgzA6hAdg6N0kc8yT41rkaubV1hhieAuydunX134r/Sr3Q8T29SsU/tIYO6GkA9tZHPlcp/sCQTg9PxXKbLQIjNAB7x+4wKscuoofy2Z8b2awAxwgIDcBerZe3334bv4zOnvcquM12xv4fahZ0OzImVS4AAAAASUVORK5CYII=;" parent="1" vertex="1">
          <mxGeometry x="475.96" y="150" width="61.5" height="55.3" as="geometry" />
        </mxCell>
        <mxCell id="y1rmw7ey6d1EXsP7_uVQ-5" value="" style="shape=image;imageAspect=0;aspect=fixed;verticalLabelPosition=bottom;verticalAlign=top;fontFamily=Verdana;fontSize=14;fontColor=#FFFFFF;image=data:image/png,iVBORw0KGgoAAAANSUhEUgAAAVcAAADuCAYAAACNg0QRAAAACXBIWXMAAAsTAAALEwEAmpwYAAAF92lUWHRYTUw6Y29tLmFkb2JlLnhtcAAAAAAAPD94cGFja2V0IGJlZ2luPSLvu78iIGlkPSJXNU0wTXBDZWhpSHpyZVN6TlRjemtjOWQiPz4gPHg6eG1wbWV0YSB4bWxuczp4PSJhZG9iZTpuczptZXRhLyIgeDp4bXB0az0iQWRvYmUgWE1QIENvcmUgNi4wLWMwMDIgNzkuMTY0NDg4LCAyMDIwLzA3LzEwLTIyOjA2OjUzICAgICAgICAiPiA8cmRmOlJERiB4bWxuczpyZGY9Imh0dHA6Ly93d3cudzMub3JnLzE5OTkvMDIvMjItcmRmLXN5bnRheC1ucyMiPiA8cmRmOkRlc2NyaXB0aW9uIHJkZjphYm91dD0iIiB4bWxuczp4bXA9Imh0dHA6Ly9ucy5hZG9iZS5jb20veGFwLzEuMC8iIHhtbG5zOmRjPSJodHRwOi8vcHVybC5vcmcvZGMvZWxlbWVudHMvMS4xLyIgeG1sbnM6cGhvdG9zaG9wPSJodHRwOi8vbnMuYWRvYmUuY29tL3Bob3Rvc2hvcC8xLjAvIiB4bWxuczp4bXBNTT0iaHR0cDovL25zLmFkb2JlLmNvbS94YXAvMS4wL21tLyIgeG1sbnM6c3RFdnQ9Imh0dHA6Ly9ucy5hZG9iZS5jb20veGFwLzEuMC9zVHlwZS9SZXNvdXJjZUV2ZW50IyIgeG1wOkNyZWF0b3JUb29sPSJBZG9iZSBQaG90b3Nob3AgMjIuMCAoTWFjaW50b3NoKSIgeG1wOkNyZWF0ZURhdGU9IjIwMjAtMTAtMjhUMTU6Mjc6NTItMDU6MDAiIHhtcDpNb2RpZnlEYXRlPSIyMDIwLTEwLTI4VDE1OjMyOjEwLTA1OjAwIiB4bXA6TWV0YWRhdGFEYXRlPSIyMDIwLTEwLTI4VDE1OjMyOjEwLTA1OjAwIiBkYzpmb3JtYXQ9ImltYWdlL3BuZyIgcGhvdG9zaG9wOkNvbG9yTW9kZT0iMyIgcGhvdG9zaG9wOklDQ1Byb2ZpbGU9InNSR0IgSUVDNjE5NjYtMi4xIiB4bXBNTTpJbnN0YW5jZUlEPSJ4bXAuaWlkOjBkNDAxMGRmLTAzYzMtNGVkYi1iZTc0LTE0MDI5YzQ1OTY5OSIgeG1wTU06RG9jdW1lbnRJRD0iYWRvYmU6ZG9jaWQ6cGhvdG9zaG9wOmNlNTg0MTA2LTI3YzMtYTI0Yi1hODBmLTczNWI1MWZjNjUyZiIgeG1wTU06T3JpZ2luYWxEb2N1bWVudElEPSJ4bXAuZGlkOjdjMTc0MzA3LTI1N2YtNDE5YS1hMzIxLTQ0ODUyZjJlODM0NCI+IDx4bXBNTTpIaXN0b3J5PiA8cmRmOlNlcT4gPHJkZjpsaSBzdEV2dDphY3Rpb249ImNyZWF0ZWQiIHN0RXZ0Omluc3RhbmNlSUQ9InhtcC5paWQ6N2MxNzQzMDctMjU3Zi00MTlhLWEzMjEtNDQ4NTJmMmU4MzQ0IiBzdEV2dDp3aGVuPSIyMDIwLTEwLTI4VDE1OjI3OjUyLTA1OjAwIiBzdEV2dDpzb2Z0d2FyZUFnZW50PSJBZG9iZSBQaG90b3Nob3AgMjIuMCAoTWFjaW50b3NoKSIvPiA8cmRmOmxpIHN0RXZ0OmFjdGlvbj0ic2F2ZWQiIHN0RXZ0Omluc3RhbmNlSUQ9InhtcC5paWQ6MGQ0MDEwZGYtMDNjMy00ZWRiLWJlNzQtMTQwMjljNDU5Njk5IiBzdEV2dDp3aGVuPSIyMDIwLTEwLTI4VDE1OjMyOjEwLTA1OjAwIiBzdEV2dDpzb2Z0d2FyZUFnZW50PSJBZG9iZSBQaG90b3Nob3AgMjIuMCAoTWFjaW50b3NoKSIgc3RFdnQ6Y2hhbmdlZD0iLyIvPiA8L3JkZjpTZXE+IDwveG1wTU06SGlzdG9yeT4gPC9yZGY6RGVzY3JpcHRpb24+IDwvcmRmOlJERj4gPC94OnhtcG1ldGE+IDw/eHBhY2tldCBlbmQ9InIiPz7Fws43AAAWkElEQVR4nO3deZCV1ZnH8W/LpmCgR8AFUeOIioyi4oIaVxRFY6I4jsao4w4GIxUcY6q0MuWSmMSKy8SMCiaWicmoIzo1JuUGbnEDt3IhKjGMow4KBaKCC5v2/PHcN7Rtd3Pf933Oe869/D5VXb3Q93kPaP/u6XPP+5yWtrY2RETEV8/YA6jDCGA4MArYgzVjHgZsGGtQIlLYPGBZ7eMPgJeBl4BngbcijcldS6Iz1+HAkcB4YE8a40lARMr5GHgRuBm4G1gYdTQlpRauOwJTgG8D60cei4jEsxC4Bfg34P8ij6WQVMJ1E+AiYALQJ/JYRCQdC4FfAlcAKyOPJZcUwnUccCMwNPZARCRZs4DvAs/FHki91ot8/YuBe1Gwikj39gIeBE6PPZB6xZy5TsWWAURE8pgITIs9iLWJMXNtQcEqIsU1RH7ECNcraYB/GBFJ2lTg1NiD6E7VywL/BPxnlRcUkaa1DNgfeCHyODpVZbgOw17xG1jVBUWk6T0P7AOsiD2QjqpcFrgcBauI+BoFnB97EJ2pauY6BttGISLi7UPsNvm/xB5Ie1XNXC+q6Doisu4ZAHw/9iA6qmLmqlmriIS2CPiH2vskVDFzPaWCa4jIum0w1kUvGaHDtRUYG/gaIiJgt8bGvqX/b0L3Sd0N2My55gzgUeAZYLVzbREJrxV7lf8orM2ol52AISTSojB0uO7vWGsucB5wj2NNEYnjLuAy4ETgZ8Agh5p9sQYv0x1qlRZ6Cr2nU50Xgf1QsIo0kxXATdipI+851fScCZcSMlw3ALZyqLMcOIOEXgUUEVezgXOcau3kVKe0kOHaF1v/KGs6DdQgV0QKuQP7DbWsjRxquAgZrm3AZw51klg/EZGgPgf+4FCnpfYWXTLbFrqwikRe+ROR4J53qDEC240QXerhuhQ741xEmt8Shxo90cy1Li2kP0YR8dHDoUb0E1czCi4RkQAUriIiAShcRUQCULiKiASgcBURCUDhKiISgMJVRCQAhauISAAKVxGRABSuIiIBKFxFRAJQuIqIBKBwFREJQOEqIhKAwlVEJACFq4hIAApXEZEAFK4iIgEoXEVEAlC4iogEkHq4tgEfxh6EiFTio9gD8NQz9gDWoi9wOfBp7IGISHBbxx6Ap9TDdQPggtiDEBHJK/VlARGRhqRwFREJQOEqIhKAwlVEJACFq4hIAApXEZEAFK4iIgEoXEVEAlC4iogEoHAVEQlA4SoiEoDCVUQkAIWriEgAClcRkQAUriIiAShcRUQCULiKiASgcBURCUDhKiISgMJVRCQAhauISAAKVxGRABSuIiIBKFxFRAJQuIqIBKBwFREJQOEqIhKAwlVEJACFq4hIAApXEZEAFK4iIgEoXEVEAlC4iogEoHAVEQlA4SoiEoDCVUQkAIWriEgAPWMPYC1WAbNq70Wkuf0dsGvsQXhJPVyXAuOAT2IPRESC+xrweOxBeEl9WaAF6BN7ECJSiab6WU89XMECVkSkoTRCuIqINByFq4hIAApXEZEAFK4iIgEoXEVEAlC4iogEoHAVEQlA4SoiEkDqt7+KSJr60fUdVUuqHEiqFK4i0lEvoBXYARgEjMSyYg/WZMYwYMMuHj8PWFb7+APg5dr7l4AFwDu1z5uawlVEtgSGY+E5qvbxECxgi9iow+fHtPt4NfA+8CoWwo8Bc4A/A8sLXi9JCleRdU9/LEjHAQcAI7Bf86vQExhce9sfOK329TdosuUEhavIuqE/cCBwNHAIsEXMwXRi69pb01C4ijS3fYDxwPGkF6hNTeEq0nzWB74NnIGFq0SgcBVpHpsA38FmqcMjj2Wdp3AVaXxZqJ5d+1gSoHAVaVy9gZOAS4ChkceSijYSOdBUt7+KNKZDgEeBX6Ngba83iczeFa4ijWVzLFBnAHtFHkuKvgI8DJweeyAKV5HGcQIwmwSCI3FDsSege4HtYw1C4SqSvsHAf9TeNo88lkYyDpgFnBnj4gpXkbTti91/f0LsgTSoVuDG2tuAKi+scBVJ1xTgQSL+attEzsT+LUdVdUGFq0h6BmBrhldhr36Lj92AB7CbLILTPleRtAwG/gCMjj2QJjUQuA1rqXh1yAspXEXSMRr4DWktA7Tvv7oYa3wN8GbtrTMjsbXOAbWPN6Vcf9gQrsJuEZ4Y6gIKV5E0jAb+iHX+j2kp8ALwPPZC2mvkPzngoQ6ftz/ZYBQWuKOB7YibQRNq74MErMJVJL7Ywfo2MLM2hmdqn3taBSyqvf2p9rVewLbAEVhLxD2Jk0fBAralra3Nu2ZmI+B1vnzkQx5LsP8ATdWhXKSdWMG6FPhvYDrwSO3zmEZgQXsyNrOt2jScA1bhKhJPjGB9G7gJ243gPUP10BM4CAvZ4+j6hNkQXANW4SoSx87Yr+JVBesc7NXx6cSfpdZrR2yv74lUF7LTsNaNpYNR+1xFqjcI2xVQRbAuBCYDu2Mz1kYJVrAnhDNYM/YqTACu9CikcBWpVk9srXPnwNdZCVxbu861wIrA1wspC9mxWK+A0KYAZ5UtonAVqdZ1hD/XahZ2ZPZkbObaLGZif68fAh8Gvlbp/04KV5HqfA+HGdFaXIIFUBUzvBhWAj8CDibs37EncCewWdECCleRauwNXBGw/nzgcOBiLICa3XPYk0jIW1g3BW6mYE4qXEXCGwT8Fts4H8J92Lau+wLVT9VK4DzgW9ituSEcii1D5KZwFQnv34FhgWpPw2as8wPVbwS3A0cCcwPVvxD7zSMXhatIWMdjm+FDOI+AjUcazGxgv9p7b72x3zz653mQwlUknM2AawLVnkjglnkNaBE2gw0RsMOAy/M8QOEqEs7l2Isi3iZiywFF9CLc2q+nXLPEdhYTLmAnYDc01EXhKhLGAdj98Z4+p1ywDsLaCD5G/NaG3ZmItTosuuQRKmB7YXdv9ajnmxWuIv76AD+nzh/CHC6jXLD+EdtVELvFYXcmADdgSyo3sKYlYF5ZwD7tNK7M/sBJ9XyjwlXE3wnk+PWxTjcClxZ8bPtgzaQYsBOAqR2+NpVyAXsi/tu0LqKOUxUUriK++gA/cK75JDAJWxbIq7NgzaQUsJ0Fa6ZMwP4VOApr2O1lW+xuu24pXEV8nYCdzeTlXeBY7CyrvLoL1kwKAdtdsGbKBOyTwAUFH9uVSdhhkl1SuIr48Z61fg6cigVsXvUEayZmwNYTrJkyAXsNcEfBx3ZmMHBOd9+gcBXx4z1rvQx4oMDj8gRrJkbA5gnWTJmAnYwdtuhlErBxV3+ocBXxsQG+s9ZnyblpvaZIsGaqDNgiwZopGrALsL6wXgbTzXY7hauIjzH4zVo/A84nf3erMsGaqSJgywRrpmjA3of1IvByOvbE+iUKVxEfUxxr3QI8mvMxHsGaCRmwHsGaKRqw38Nve9YI4JDO/kDhKlLejtgdWR4WYV2Y8vAM1kyIgPUM1kyRgF2Ab8+HTq+vcBUp7xSsc72H68i3OyBEsGY8AzZEsGaKBOzPsVtsPRyM7X39AoWrSDm9gW841VqE9X6tV8hgzXgEbMhgzeQN2BXAz5yuvQEwvuMXFa4i5YwCtnOqdR0WsPUYTPhgzZQJ2CqCNZM3YG/Fb/Y6Hmhp/wWFq0g5x9Dhh6qgPLPWvqw52qUqRQK2ymDNTMX2G9djBfBTp+t+6UlW4SpSXB/gm061rqf+Wetq4CWn6+aRJ2BjBCvAEuDtHN9/Jz43FvQGjm7/BYWrSHE74rMk8Am2/apeK4HTKN5+sIx6AjZWsC4GjgAez/GYj7DlAQ+Htf9E4SpS3MH4LAk8jHVvyqtM4+wyugvYmMFatEH2zfgcR74rMCT7ROEqUtzhTnWml3hsSgHbiMEKMAd43mEcrbRbB1e4ihQzCNjJoc5S4P6SNWIH7EZY965GDNbMXQ5jATgw+0DhKlLMDsBAhzqPUaylYEcxA/Y57KSEqnmelXU3tnugrF2zDxSuIsXs4lTnTqc6EC9gv4rfHWr18j6E8C/Y8kBZO1BbKlG4ihQzyqHGCuAJhzrtxQrYKoU43bUNeMihziBge1C4ihTRCxjpUGcOxXYJrE0zB2yoY7MB7sFCtqztQOEqUkQ/YGuHOnModuhgPZoxYEMGK8CfsRcYy9LMVaSgIcD6DnUedqjRnWYK2NDBCvA+MM+hzkhIP1zbsK7sIinZjC66z+ewCnjZYSxr0wwBW0Wwgt1W/IJDncHAhqmHa1/a3fEgkgiP/a0fA2841KlHIwdsVcGaed2hxjbA0NTDdQNgy9iDEOmg1aHGO8Byhzr1asSArTpYAV50qtMzZLi24LPsMMahhoinVocaC4FPHerk0UgBGyNYwTqTrSpZoxXYJWS4rsTnlbdTsTUukVTs7FDjTYcaRTRCwMYKVrCtcWVzqwXoFTJcl+HzytvGWNcakVR4bJ/y+NkoKuWAjRmsAD3wudtsVeg1V4/byQAOBe4FhjrVEynDYwdLH4caZaQYsLGDFay37nyHOsNC3w/8MHCuU61xwLNYU+EZ2LYJkRg8TkN9z6FGWRNr7/OenBpCCsEKtg4+HxhRss42ocN1NrZ+0d+p3ibA+bU3kUb2QuwB1KQQsAuwI1JiB2umh0ON1aGXBd4B/hT4GiKNKKVtkBOBRyJdezVwCukEq5sq/gOntq4jkoKUlrXOBHaPdO0ewIX4LLUkpYpwnYnf2eAizWKb2AOomYA1ut4w0vVbgAPIf2x3SB6dsVqqCNdP8TsbXKRZpBCusc686kyeY7tDaqFBtmJlfofWXkXaK3sXUFkpBWsmhYBtpfxOAYDZVYXrZ8C/EP9/KJFU9Ip47RSDNRM7YNvw2S1Q2cwVbI/qBRVeTyRlsV5ASjlYMzEDtj8+T3xBb3/tzDXoVlYRsHaaLRVfsxGCNRMrYP8e+ErJGp8C/xtjr91kmnBPm0hO21H+hziPRgrWTIyA/apDjeXAWzHCdRlp3OYmEtMAquv21ojBmqk6YIc71FgGLI91l8hi4DDgpkjXF4ltfXxONFibRg7WTJUB69FO8n+At2PegvchcAZwHtb7VWRdMypw/WYI1kwVAdsPn21Yb0Ia9zdfjd2hMTP2QEQqtmfA2s0UrJnQAbsDPm1NXwPaUghXgFnAWGwm69UDViR1uwADA9RtxmDNhAzYffGZcL6AUyFPN2H7/44C7sbWZkWa1UD8112bOVgzoQJ2f4canwCvALS0tXn0KAhmELAP9uvTHtiUfdOoIxIxvfFpdnIF8AOHOhAvWNuofs8u2I6jI/GZhPUHXgWGlKwzF3tRbEXq4dpRL6rdGyjSlSHYcla/knXmAiMp/6JurGBdDIwHjsPv1JE8vAL269hsuKybgdPAp/tLlVYBS2IPQgT7//BVyt/Guh22a2BWiRoxgzXbs/44di5Y1ScaZEsEZQP2WJ/h8Gj2QWprriKN5EmHGi2U+8FOIVgzsQ49LLsGOxg4wmEcK4Gnsk8UriLFzXCqcwLF1m9TCtZMIwbseGBjhzHMA97IPlG4ihT3BPC+Q50h5Ju9rgdMIr1gzcQO2M1zPu4Mp+s/QLu1c4WrSHHv47M0APCdHN/bF/hXp+vmkef465gBe3qO7z8Iv/aPD7b/ROEqUs50pzq7A2Pq/N6PsF9lq9wHnidYMzECdjb5epaciU8Ovku7F7NwKiqyLrsfWOpQZz3gohzf/xR+ezzXpkiwZqoM2Gxb1vw6v3974Bina8+gw/8HCleRct7F73y4MdQ/ewXfTfRdKROsmSoCtsi/xaVYd7Ky2oDfdvyiwlWkPM/g+CH5znAKGbAewZoJGbBF/g3GYDc+ePgrHZYEQOEq4mEm9gPm4UDg5JyPCRGwnsGaCRGwRf7uPbAnMS+/B1Z3/KLCVaS8T4FbHOtdTv5uWZ4BGyJYM54BW/TvfDL2JObhI7rYEqdwFfExDftB87AZcEmBx3kEbMhgzXgEbNG/66bYk5eXO4EFnf2BwlXExwLsB83LJKzHcV5lAraKYM2UCdgyf8dr8Du7bDXW1axTjdYVSyRlw7FGyX2c6r0O7A28V+CxeW8HrTJY25tKvmYvZYL1dODXBR7XlYeAg7v6Q81cRfy8BtzmWG9b4IaCj80TQrGCFfLNYMsE687YrNXTj7v7Q4WriK+fAisc6x0LTCn42HrCKGawZuoJ2DLBOhD4Db69oO/HZq5dUriK+HoNuNW55pXAoQUf210opRCsme4CtuwLdTfgc2R2ZgV1POEpXEX8XYjvntMW4HfYOmoRnYVTSsGa6Sxgywbr9fg1ws7cijVK75Ze0BIJ4yLgR841F2MvcBW9YWE01hYPbCacUrC2Nw04C3gaO36laLCejYWrp/ewQyXfXds3KlxFwuiD7RwY7ly3bODsXXv/VLffFd8k4C662ENah1CNxM8FflnPNypcRcIZi73w4X0y6mzgG8Ai57rNIlSwPoc9Oa2q55u15ioSzgzgugB1RwOPUXwNtpmdTZhgXYmtCdcVrKBwFQntQuxmAG/bYzcJ7BugdqO6Hv811sxPsJlr3RSuImEtBc4BPg9QexB2tEjVx1mnZiB288bZgeo/RYF+BApXkfBmAJcFqt0b+zX4qtrH65rdsB0Qxweq/x7wz7Q7eLBeekFLpBrrAfdS/GaAejyOnQk1N+A1UnIu9qQ1IOA1jgPuKPJAzVxFqvE5cBJ+TbU7sy8wCwudZrY99kT1C8IG69UUDFbQzFWkantiJxd43ufemZlYt/1Zga9Tpd7YK/aXAq2BrzUdm7UWDkjNXEWq9TQwuYLrHIKd6/QLYJMKrhfaWNb8fVoDX2s29uJYqZmnZq4icYTa6N6ZhVjzkutrHzeSscD3KdY4vIgFwK4UvzPsbxSuIvFcRfF2gkVkIXsb1r0rVT2Bg6g2VMG5mY3CVSSeFizsqt6nuhx7oeYW4BFy3HUU2BbYlqqTgZEVX9u9S5jCVSS+vEedeHoFuAf4L+AZqg/aLbD14aOxE1n7V3x9CNR+UeEqkoaYAZt5BQuYx2rv3wQ+dr7GIKxx9X7Y1rE9iBOomWB9bRWuIumYgq3DpmA18A62NvsMMA8L2wV88cWeJe0+7sWaLWY9gB2A9bEA3ab2NoL6D00MbT7wjwTqa6twFUnLBOBa0r2VdTXWLyEzD1hW+3jT2hvYNs/W6oaV22wsWOeHuoDCVSQ9+2KNogfHHkiTuh34Lr5H8XyJbiIQSc/j2JpkqsewNLJLgG8ROFhB4SqSqrnAYcCvYg+kSSzCQvXiqi6ocBVJ14fYQX1nAR/EHUpDuw/7TeD2Ki+qcBVJ36+AvbCQkPqtxJYBDidCG0aFq0hjmIuFxGQ0i63HTOAAKlwG6EjhKtJYrsVmsbfGHkiiFmJPQGOJ3G5RW7FEGtdYrLfpXrEHkoAVwDTgxyTS+UvhKtLYemMnHEwBdow8lhhWAL/HTg2YE3ksX6BwFWkOfYATWXdCNtlQzShcRZpLH+x4kpOpthdqVRYCd2MnEiQZqhmFq0jz2gc4FRiHtfZrZE9ibRFvIZE11bVRuIo0v/7AUcCxxOuZWkT7XrNPRh5LbgpXkXVL1px6P+BgYMu4w/mCj7FAfZR4zbvdKFxF1l39sP6qX8PCdndgCHaGVRU+AF4HngBeAh4E3qro2sEpXEUk0w/YChjKmgbXW7GmT2uRHq1ZM+15wPusabw9D3gVa6jSlBSuItKZFuzEgIFY2A7FZrSjqX9m+wHwYu3jV7BwfQNruN30/h/eEXtgq+WCWQAAAABJRU5ErkJggg==;" parent="1" vertex="1">
          <mxGeometry x="315.77" y="241.85" width="86.47" height="60" as="geometry" />
        </mxCell>
        <mxCell id="y1rmw7ey6d1EXsP7_uVQ-6" value="Certificado Tributario" style="text;html=1;strokeColor=none;fillColor=none;align=center;verticalAlign=middle;whiteSpace=wrap;rounded=0;fontFamily=Verdana;fontSize=14;fontColor=#FFFFFF;" parent="1" vertex="1">
          <mxGeometry x="570" y="529.99" width="40" height="20" as="geometry" />
        </mxCell>
        <mxCell id="y1rmw7ey6d1EXsP7_uVQ-7" value="Bloqueo TC" style="text;html=1;strokeColor=none;fillColor=none;align=center;verticalAlign=middle;whiteSpace=wrap;rounded=0;fontFamily=Verdana;fontSize=14;fontColor=#FFFFFF;" parent="1" vertex="1">
          <mxGeometry x="339" y="310" width="40" height="20" as="geometry" />
        </mxCell>
        <mxCell id="y1rmw7ey6d1EXsP7_uVQ-8" value="" style="shape=image;imageAspect=0;aspect=fixed;verticalLabelPosition=bottom;verticalAlign=top;fontFamily=Verdana;fontSize=14;fontColor=#FFFFFF;image=data:image/png,iVBORw0KGgoAAAANSUhEUgAAAYMAAAHQCAYAAABDfgZLAAAACXBIWXMAAAsTAAALEwEAmpwYAAAF92lUWHRYTUw6Y29tLmFkb2JlLnhtcAAAAAAAPD94cGFja2V0IGJlZ2luPSLvu78iIGlkPSJXNU0wTXBDZWhpSHpyZVN6TlRjemtjOWQiPz4gPHg6eG1wbWV0YSB4bWxuczp4PSJhZG9iZTpuczptZXRhLyIgeDp4bXB0az0iQWRvYmUgWE1QIENvcmUgNi4wLWMwMDIgNzkuMTY0NDg4LCAyMDIwLzA3LzEwLTIyOjA2OjUzICAgICAgICAiPiA8cmRmOlJERiB4bWxuczpyZGY9Imh0dHA6Ly93d3cudzMub3JnLzE5OTkvMDIvMjItcmRmLXN5bnRheC1ucyMiPiA8cmRmOkRlc2NyaXB0aW9uIHJkZjphYm91dD0iIiB4bWxuczp4bXA9Imh0dHA6Ly9ucy5hZG9iZS5jb20veGFwLzEuMC8iIHhtbG5zOmRjPSJodHRwOi8vcHVybC5vcmcvZGMvZWxlbWVudHMvMS4xLyIgeG1sbnM6cGhvdG9zaG9wPSJodHRwOi8vbnMuYWRvYmUuY29tL3Bob3Rvc2hvcC8xLjAvIiB4bWxuczp4bXBNTT0iaHR0cDovL25zLmFkb2JlLmNvbS94YXAvMS4wL21tLyIgeG1sbnM6c3RFdnQ9Imh0dHA6Ly9ucy5hZG9iZS5jb20veGFwLzEuMC9zVHlwZS9SZXNvdXJjZUV2ZW50IyIgeG1wOkNyZWF0b3JUb29sPSJBZG9iZSBQaG90b3Nob3AgMjIuMCAoTWFjaW50b3NoKSIgeG1wOkNyZWF0ZURhdGU9IjIwMjAtMTAtMjhUMTU6Mzc6MzEtMDU6MDAiIHhtcDpNb2RpZnlEYXRlPSIyMDIwLTEwLTI4VDE1OjM4OjU1LTA1OjAwIiB4bXA6TWV0YWRhdGFEYXRlPSIyMDIwLTEwLTI4VDE1OjM4OjU1LTA1OjAwIiBkYzpmb3JtYXQ9ImltYWdlL3BuZyIgcGhvdG9zaG9wOkNvbG9yTW9kZT0iMyIgcGhvdG9zaG9wOklDQ1Byb2ZpbGU9InNSR0IgSUVDNjE5NjYtMi4xIiB4bXBNTTpJbnN0YW5jZUlEPSJ4bXAuaWlkOjNiY2IyNzM0LWE0MGQtNGZmYi04YWQwLWZkOGIwMzliMTM2YSIgeG1wTU06RG9jdW1lbnRJRD0iYWRvYmU6ZG9jaWQ6cGhvdG9zaG9wOjQ3MWE4YjRhLTgzNGQtOGM0Mi04MGFmLWEwYjA4NTE4MzdkNiIgeG1wTU06T3JpZ2luYWxEb2N1bWVudElEPSJ4bXAuZGlkOjk0MTllY2IyLWM1MWItNGVjNS05ZTZjLWFiYTNmZjk3Y2YxZCI+IDx4bXBNTTpIaXN0b3J5PiA8cmRmOlNlcT4gPHJkZjpsaSBzdEV2dDphY3Rpb249ImNyZWF0ZWQiIHN0RXZ0Omluc3RhbmNlSUQ9InhtcC5paWQ6OTQxOWVjYjItYzUxYi00ZWM1LTllNmMtYWJhM2ZmOTdjZjFkIiBzdEV2dDp3aGVuPSIyMDIwLTEwLTI4VDE1OjM3OjMxLTA1OjAwIiBzdEV2dDpzb2Z0d2FyZUFnZW50PSJBZG9iZSBQaG90b3Nob3AgMjIuMCAoTWFjaW50b3NoKSIvPiA8cmRmOmxpIHN0RXZ0OmFjdGlvbj0ic2F2ZWQiIHN0RXZ0Omluc3RhbmNlSUQ9InhtcC5paWQ6M2JjYjI3MzQtYTQwZC00ZmZiLThhZDAtZmQ4YjAzOWIxMzZhIiBzdEV2dDp3aGVuPSIyMDIwLTEwLTI4VDE1OjM4OjU1LTA1OjAwIiBzdEV2dDpzb2Z0d2FyZUFnZW50PSJBZG9iZSBQaG90b3Nob3AgMjIuMCAoTWFjaW50b3NoKSIgc3RFdnQ6Y2hhbmdlZD0iLyIvPiA8L3JkZjpTZXE+IDwveG1wTU06SGlzdG9yeT4gPC9yZGY6RGVzY3JpcHRpb24+IDwvcmRmOlJERj4gPC94OnhtcG1ldGE+IDw/eHBhY2tldCBlbmQ9InIiPz5w+21wAAAhTUlEQVR4nO3debyuc73/8deyJ9s2lTnaMhZKpEiIZIpS+qHYypAkpyNUROJWadROAyo6lZKSlMhUKYejVHQMSVsHIXQyDxn2sH5/fNeqbZ81X8Pnur7X6/l47IfHY6u13mtb+36t676v67r7+vv7kSR12+QSPkYfMBNYB1gBmFHSx5Xa7BngQeBu4Bbg8dg50sgm+qC9NLA7sCuwFfDc0hZJ+ekH/gD8DDgX+K/YOdL/1TfOp4lmAkcCBwDTK1kk5e8W4NPAmcD84C0SMPYYTAOOBo4CFq90kdQdfwAOAq6OHiKNJQZrA+cAG1c/R+qc+UAPOJH0dJIUYrQYbA5ciK8JSFU7C9gPmBe8Qx01UgxeSXrBa0Z9c6ROOxfYC4OgAMPFYG3gGjwikOp2DjALg6CaDXVq6TTSN6QhkOq358A/98YzjVSjxYb4vaPxxWIp0p7At4FJ0UPUHYs+TTQT+BOePio1wdnA2/AIQTVY9MjgSAyB1BR7kS5M8whBlVv4yGBp4D68slhqmrOAffEIQRVa+MhgdwyB1ESzgG8w9Gt8UikW/ubaNWyFpNHsg0FQhQafJuoD7sfTSaWmOxPYH1gQPUR5GfwpYyaGQGqDtwP/gUcIKtngN9Q6oSskjce+wBkYBJVo8ArkFUJXSBqv/Qf++Q6826lKMPiThTejk9pnf9IRQl/0ELXfYAx8z2KpnQ4AvopBUEE+5yi134HAVzAIKsAYSHl4J/BlDIImyBhI+TgIOA2DoAkwBlJe3gWcgkHQOBkDKT/vBr4UPULtYgykPB1COkKQxsQYSPk6BPhi9Ai1gzGQ8vYe4AvRI9R8xkDK378Dn48eoWYzBlI3HAp8LnqEmssYSN1xGDA7eoSayRhI3XI48NnoEWoeYyB1zxHASdEj1CzGQOqm9wGfiR6h5jAGUne9H/hU9Ag1gzGQuu1I4JPRIxTPGEg6CvhE9AjFasM7nL0zeoBK0wdMJb3N6vLAKsAawIuA5QJ3CT4ILAA+FD1EMdoQgzOiB6gWqwKbAVsCOwLrx87ppGOAfuDY6CGqXxtioG74K3DewC+AFwB7ArOADYM2ddGHSEH4cPQQ1cvXDNRUdwCfBl4KvBI4C5gXOahDjgU+Ej1C9TIGaoNrgH2AtYCvAnNj53TCh4Fe9AjVxxioTe4kva3jBsCFwVu64PiBX+oAY6A2uhV4A7AbcE/wltz1gOOiR6h6xkBt9iPgxcD3g3fk7gQ8wyh7xkBt9xDprKND8LWEKn0Ur0HImjFQLk4DtgUeiB6SsY+RrkVQhoyBcnIVsDnwl+ghGTsRODp6hMpnDJSbW4GtBv6panycdD8jZcQYKEd3Aa/FI4QqfZJ0x1NlwhgoV3cB2+NrCFX6FPCB6BEqhzFQzm4lXYvgWUbV+TTpXdPUcsZAubuS9Cbwqs5JpPdVVosZA3XBKfzrbqiqxmcxuq1mDNQV7wTuix6RudnAYdEjNDHGQF3xIPCe6BEd8DngvdEjNH7GQF3yA+CS6BEdcDJwaPQIjY8xUNccDsyPHtEBn8cjsVYxBuqaW4Azo0d0xBeBf4seobExBuqij+LRQV2+RLqjrBrOGKiLbgfOjR7RIV8C3h09QiMzBuqqL0UP6JA+0rUeB0cP0fCMgbrqKuDm6BEd0gecChwUPURDMwbqsu9ED+iYPuDLpAsA1TDGQF12TvSADuoDvgIcGD1Ez2YM1GW3An+OHjGK84Abo0eUrA/4KvCO6CH6F2Ogrrs0esAo/k56o54cg3A6cED0ECXGQF13VfSAMcg5CGcA+0cPkTGQrokeMEa5B2G/4B2dZwzUdXcAj0aPGKNcg7AY8DXg7dFDuswYqOv6gTnRI8Yh5yB8HYMQxhhIcFv0gHHKPQj7RA/pImMgtfMd0HIOwjeBWdFDusYYSHB/9IAJyj0Ie0cP6RJjIMHj0QMKyDUIk0jvO7FX9JCuMAYSPB09oKCcg/At4K3RQ7rAGEiwIHpACXIOwreBt0QPyZ0xkPKRcxDOAvaMHpIzYyDlJfcg7BE9JFfGQMpPrkGYTHoPit2jh+TIGEh5yjkIZwP/L3pIboyBlK+cg/Bd4M3RQ3JiDKS85R6E3aKH5MIYSPnLNQhTgO8BbwrekQVjIHVDzkE4B3hj9JC2MwZSd+QchO8Du0YPaTNjIHVL7kF4ffSQtjIGUvfkGoSpwA8wCBNiDKRuyj0Iu0QPaRtjIHVX7kHYOXpImxgDqdtyDcI04DzgddFD2sIYSMo5CD8Edooe0gbGQBLkHYQfATsG72g8YyBpUO5B2CF4R6MZA0kLyzUIiwPnA9tHD2kqYyBpUbkHYbvoIU1kDCQNJdcgTAd+TPratBBjIGk4OQfhAmDb6CFNYgwkjST3ILwmekhTGANJo8k1CEsAFwLbBO9oBGMgaSxyDsJPgK2jh0QzBpLGKvcgvDp6SCRjIGk8cg3CDOAiOhwEYyBpvHIPwlbRQyIYA0kTkXsQtoweUjdjIGmicg3CksDFwBbRQ+pkDCQVkXsQXhU9pC7GQFJRuQZhKeASYPPoIXUwBpLKkHsQXhk9pGrGQFJZcg3C0sClZB4EYyCpTLkHYbPoIVUxBpLKlnsQNo0eUgVjIKkKuQZhGeAy4BXRQ8pmDCRVJfcgvDx6SJkmRw/ouMWBVUiHn5OBvtg5Q+oHngEeAu4F5sfO6ZwVaP+DzlHAt4DlooeUaFngp6S30Lw2dko5jEG9lgfeSPoG2hRYg2YGYDhzgVuAX5FOt7sYeCp0Uf7ePPBLzbMs/wrCdbFTijMG9dgUeD/wJmBK7JRCpgAvGfh1EPAI8E1gNvCXwF1SlOcAPyODIPiaQbVmAucB1wB70O4QDGUZ4FBgDvAZ0k2+pK4ZDMLG0UOKMAbVeRtwE7Bb9JAaTCUd+dxIpqfdSaMYDMJGwTsmzBiUrw/4LHAm6VL2LlkDuBKYFT1ECvBcUhBeGj1kIoxBufqALwNHRA8JNJV05siB0UOkAMuRgrBm9JDxMgbl+hjphdWu6wO+QjpzSuqa5YEfANOih4yHMSjPG4Fjokc0yGKkI4S1oodIATYCPh49YjyMQTmWA06PHtFAS5FOPW3TtRRSWQ4DXhY9YqyMQTk+SrpSVP/XFqQzq6SuWYx0MkkrGIPiVscXS0fTAyZFj5ACbDPwq/GMQXHvIb+Lycq2Bt243kIaymHRA8bCGBQzCXh79IiW2D96gBRkF1rwNLIxKOZVwIrRI1piO2DJ6BFSgMnArtEjRmMMitk2ekCLTAW2jB4hBXlt9IDRGINiNoke0DL+eamrGn/PLmNQzLrRA1rmhdEDpCBrkI6OG8sYFLNK9ICW8c9LXbUYsHL0iJEYg2J8QXR8unYXV2lhy0QPGIkxKKY/eoBK4fs6qw6NvvDSGBTzWPSAlmnqn1dTd0m1MQbF/DV6QMvcEz1gGPdFD5CiGYNibo4e0DJzogcMo6m7pNoYg2J+HT2gZX4XPWAY9wD3Ro+QIhmDYi6NHtAizwBXRY8YweXRA6RIxqCYPwz80uguA56IHjGC86IHSJGMQXFfjR7QEl+PHjCKC4G/R4+QohiD4r6GDyKj+R/g/OgRo3gGOCV6hBTFGBT3BHBC9IiGO452XNh1MoZdHWUMyvFl4LfRIxrqCuDs6BFj9AhwVPQIKYIxKMd8YB+8knVRDwP70a7bdnyd5j+lJZXOGJRnDjCLdjwdUof5wN7AHcE7JmJf4I/RI6Q6GYNyXQC8A1gQPSTYAtKfw8XRQyboEWBH4PboIVJdjEH5vgm8BXgyekiQp4C3kv4c2uwuYCvg+ughUh2MQTXOBV4F/Cl6SM3mkL7u70cPKclfSV/PN4J3SJUzBtX5b2Aj4ETST8s5e4r0dW4E/D52Sun+AewP7ALcGrxFqowxqNZTwLHA2sBs4KHYOaV7ADgJWIv0deb81NhFwPqkF5evC94ila6vv78f4GDgtOAtw+mLHlCiacBOwOuAzYH1gCmhi8bnSdK9mK4GLgF+Trpyt4vWB3YFtgY2BlaKnaMW2Jj0jEEjGYNYk0gPIsuSotDEr7UfeBp4kHR1bpuuGajTksCKwAwa/vaGmVsfOCt6xDAaHYPJ0QM6bj7pXvpNfQcwjd3jA78Uy8e0CfI1A0mSMZAkGQNJEsZAkoQxkCRhDCRJGANJEsZAkoQxkCRhDCRJGANJEsZAkoQxkCRhDCRJGANJEsZAkoQxkCRhDCRJGANJEsZAkoQxkCRhDCRJGANJEsZAkoQxkCRhDCRJGANJEsZAkoQxkCRhDCRJGANJEsZAkoQxkCRhDCRJGANJEsZAkgRMjh7QYc8FXgSsCixN+m/RF7pIuesH5gGPAncDtwAPhS5SYxiD+vQBrwH2ALYD1o6dIwFwK/BT4Fzgl6RgqIOMQfWmAu8AjsAAqHnWGfh1CPBn4LPA14C5kaNUP18zqNZ2wB+AUzEEar61gdNI37PbB29RzYxBNSYDnyMdfhsBtc06wGXAF0lHtuoAY1C+GcDFwGHBO6Si3kP6gWaZ6CGqnjEo1xKkEGwXPUQqyauByzEI2TMG5ekDvg1sFT1EKtnLgB8BU4J3qELGoDyHA7tFj5Aqsg3wmegRqo4xKMc6wMejR0gVOxR4bfQIVcMYlOMkYFr0CKlifaTTpH26KEPGoLiXAbtGj5Bqsi5wQPQIlc8YFHdo9ACpZkfiY0d2/A9azHRg9+gRUs3WxNOns2MMitmWdJGZ1DVvjR6gchmDYraOHiAF2Tl6gMplDIrZOHqAFGQl0inVyoQxKGat6AFSoI2iB6g8xqCYFaMHSIG8I29GjEExS0QPkAKtHD1A5TEGxcyPHiAF8j27M2IMink0eoAU6JHoASqPMSjm7ugBUqC7ogeoPMagmD9GD5AC+f2fEWNQzG+iB0hB5gHXRY9QeYxBMZdFD5CCXA08ET1C5TEGxdwE/Cl6hBTg3OgBKpcxKO6M6AFSzZ4EzooeoXIZg+JOBx6OHiHV6AzgwegRKpcxKO4R4BPRI6SaPAacGD1C5TMG5fgc6fUDKXfHAH+LHqHyGYNyzAX2Jj2XKuXqIuCU6BGqhjEoz43AfkB/8A6pCn8EZuH3d7aMQbnOAd6Ff2GUlz8DO+CJElkzBuU7nfT+sD5lpBz8GtgS78OVPWNQjXOAzUhPHUlttIB0YsTW+IJxJxiD6twIbAIchYfXapergc2BI4BngreoJsagWnOBTwOrA+8HbomdIw3rGeBHwHbAFngTxs6ZHD2gIx4FPjvwawNge2BTYD1gNWAZYErYOnVJP+n1rPuB24AbgCuBn+Kb1XSaMajfHwZ+SVJj+DSRJMkYSJKMgSQJYyBJwhhIkjAGkiSMgSQJYyBJwhhIkjAGkiSMgSQJYyBJwhhIkjAGkiSMgSQJYyBJwhhIkjAGkiSMgSQJYyBJwhhIkjAGkiSMgSQJYyBJwhhIkjAGkiSMgSQJYyBJwhhIkjAGkiSMgSQJYyBJwhhIkjAGkiSMgSQJYyBJwhhIkoDJ0QM66jnAy4H1gFWBpUn/LfoiRyl7/cA84GHgTuAm4FrgH4Gb1BDGoD4rAfsCewCb4AO/mmEucAXw3YFfT8TOURSfJqreTOBrpJ/EPkU6IjAEaoopwHbAGcDdQA9YKnKQYhiD6kwCjgJuAQ4ApsbOkUa1LHA88Cdgt9gpqpsxqMaKwM+BTwLTg7dI47UKcB7wFfwhpjOMQfnWAH4FbB09RCroIOAy0gkOypwxKNdqwC+ANaOHSCXZGvgpvo6QPWNQnunABcDq0UOkkm0KnEN6HUyZMgblmQ1sFD1CqshOwEeiR6g6xqAcrwYOjh4hVeyDwBbRI1QNY1CO2dEDpBosBpyGTxdlyRgUtzPpimKpC14CvC16hMpnDIo7JHqAVLOj8Sr67BiDYpYDdoweIdVsXWDb6BEqlzEoZge82Z+6aVb0AJXLGBSzZfQAKcgu+FRRVoxBMRtGD5CCrAi8MHqEymMMilkjeoAUaOPoASqPMShmuegBUqC1oweoPMagmGnRA6RAK0YPUHmMQTFzowdIgeZHDxjCgugBI2jin9c/GYNiHooeIAV6MHrAEP4RPWAEjX5/aWNQzJ3RA6RAf4keMIT/jR4wgr9FDxiJMSjmpugBUqAmfv8/SDOP2O/DI4Os/Sp6gBTkCeCG6BHD+H30gCE0cdOzGINiLokeIAX5Oc09geKK6AFDaOKmZzEGxdwFXB09QgrwvegBI/hx9IAhnB89YDTGoLgvRw+QavZ34LzoESP4b5r1FNbvgFuiR4zGGBT3XeCO6BFSjWYDT0WPGMUXowcs5PPRA8bCGBQ3l/TesFIX3Ek7Hty+CdwWPYJ0RHB29IixMAbl+B5wcfQIqQbvBp6MHjEGc4HDo0cA76XhVx4PMgbl2Q+4J3qEVKGTgYuiR4zDj4FvB37+M4DLAj//uBiD8vwvsCvwePQQqQIXAe+PHjEBBwM3Bnze64BDAz7vhBmDcl0L7Aw8Fj1EKtGlwO605OmORTxB+jt5e42f839I7wTXhqfT/skYlO9K0tth3hG8QyrD6cAbaNkD2yLuBrYG/ljD57oReDXp9hOtYgyqcQPpXaDOih4iTdADpDe9P4jmXmk8HncBmwM/rPBznANsQUtfOzQG1XkY2Ad4LfCb2CnSmD0NfIH0/sbfCd5StkeANwP7Uu7dTe8jhfMttPgpYmNQvcuBzYBtSGc2PBq6RhrazcCxwOqk0yEfiJ1TqTNJb9l5LMWezrkXOBpYhwzC2dff3w/pFffTgrcMpy96QMmmkOKwKbAesBqwzMDv5/a1qnkWkJ7/v590UdYNpNe57gjcFGkKsBOwG7AtKYYjuYN0k74fkl5Yn1fluDoZA0n6l+VIT5GtAiw18HuPkV4HmEPGR0yTowdIUoM8QEfvROxrBpIkYyBJMgaSJIyBJAljIEnCGEiSMAaSJIyBJAljIEnCGEiSMAaSJIyBJAljIEnCGEiSMAaSJIyBJAljIEnCGEiSMAaSJIyBJAljIEnCGEiSMAaSJIyBJAljIEnCGEiSMAaSJIyBJAljIEnCGEiSMAaSJIyBJAljIEnCGEiSMAaSJIyBJAmYHD2gg6YDrwI2BdYDVgWWJv236Avc1UbzgUeBvwK3ANcAVwFPRo6SKrAC8ErgJcDzSY8ZfcDjpO//P5K+//8y0U9gDOqzPfBO4PWkIKgaTwIXAKcDPwveIhWxNPB24G3AKxjbD4tzgHOAMxhnGPr6+/sBDgZOG9fM+rT9p+XXAZ8AXho9pIN+BxwFXB49RBqH6cAHgCOAZSb4MeYD3wM+DNw2lv+DrxlUZ3ng+8BFGIIoLwd+DpzJxP9SSXXaCrgJOIFi37OTgL2Bm4HjGMOzQMagGpsAvwd2jx4iIB1mXwtsED1EGsHhwC+ANUv8mNNIYflP0uuTwzIG5XsNcAWwWvQQPctapBeXN48eIg3hk8Bs0k/0Vdic9ALzi4f7HxiDcm1GevFyRvQQDWlZ4BJg4+Ad0sJOJL22VbVVgV8yzPe/MSjP84DzMQRNtzQp2CtFD5FIJ5ccU+PnWw64DFh30X9hDMrzDXyAaYtVSS8qS5E+BXww4PMuzxA/uBqDcuxDuo5A7bEDsF/0CHXWScCRgZ//RcDnFv4NY1DcVODj0SM0IZ8Alogeoc6ZDbwvegRwIOmqZsAYlGFv0uXhap+VgYOiR6hTTiadQtoEfaQfiABjUIaDoweokPfQ/qvc1Q5fBN4bPWIR25CuizIGBb2AdDqp2mstFjpUlirQB5xC+sGjiQ4AY1DUjtEDVIo3RA9QtvqAU4FDooeMYDfwrqVF+RNlHraKHqAs9QFfId2tuMlWAdYzBsUMe2m3WsUbCapsfaTbqL8jesgYbeLTRMXMjB6gUixFuhBHKsNiwNdoTwgA1jEGxTwneoBKYwxUhsWA/wD2jx4yTiv7NFEx/vnlY0r0ALXeYqTb0rwteMdETPfIoJinoweoNE9FD1CrTSLd76qNIQCYZwyKuT96gErjf0tN1CTgW8Cs6CEFPGgMirk9eoBK8TDwUPQItdJk4DvAXtFDCrrdGBRzffQAleKG6AFqpcnA2cCe0UNKcIMxKOaq6AEqxZXRA9Q6U4Dvkcf7nD8F/M4YFHMZMDd6hAr7SfQAtcoU4BzgzdFDSnI58KQxKOYh4OLoESrkNuDX0SPUGlOBc4E3Be8o01ngjerKcEr0ABVyKtAfPUKtMBX4AbBr9JAS3UOKmzEowWXAb6JHaEL+TrqRmDSaacB5wOujh5Ts48AzYAzKcjj+dNlGHwIejx6hxpsG/BDYJXpIyW5koR+GjEE5rga+FD1C43I5cEb0CDXe4sD5wOuih5TsaWBfYN7gbxiD8nwA+F30CI3JvaSrRT2a00imAz8mzzexOgT4/cK/YQzK8zTphaXboodoRI+Snve9L3qIGm06cAGwffSQChxLurPqsxiDct0LvAaYEz1EQ3oQ2AG4LnqIGm0J4ELgtdFDKvBh4MSh/oUxKN+dwKtIZxmpOW4ivU3pNdFD1GgzSBchbhs9pAIfBj423L80BtV4ANiJdJbRE8Fbum4+MBvYFLg1eIuabQZwEbBN8I4qjBgCMAZV6gdOBtYlXdjk/fLrtYB0Mc2GwPuAJ2PnqOGWBC4BXh09pAKjhgCMQR3uAf4NeD5wGOnmdvMjB2XueqAHrA3sAdwcukZtsBQpBFtGD6nAmEIA0Nff3w9wMHBalYsK6IseUIElgZcB6wGrAcuQbn6V49dapXnAY6TgzgGuxTepGcoqwPNI33cLgEdIr209HLipKZYmhWDz6CEVGHMIwPfwjfI48J8Dv6SyrUY6KtqJ9FrJssP87+4GfkV6nvxHdC8OywCXAptFD6nAuEIAHhlIOdmEdIuNXUlvxTgeT5HesetTdOPU6GVIZ/xtGj2kAuMOAfiagZSD5wLfAH4L7Mb4QwDptgsHkF5jOYX0YJmrZYGfYQiexRhI7bYF6W0796Wco+hJpFsV3ARsXcLHa5rnkELw8ughFZhwCMAYSG22J+mGe6tW8LFXA35OOhMuF88lfU2bRA+pQKEQgDGQ2moP0nP8Uyv8HJNId+M9rsLPUZflSCHYOHpIBQqHAIyB1EY7kd6qcCKvDUzECaRrN9pqedIR1EbBO6pQSgjAGEht80LSm7FPqfnzHk87g7ACKQQbRg+pQGkhAK8zkNpkCvBd0hWzEY4f+Gcv6POP14qkEGwQPaQCpYYAPDKQ2uRI4p/qaMsRwkrALzAEY+aRgdQOKwFHR48Y0PQjhJVJIXhR9JAKVBIC8MhAaosjSLdYboqmHiGsAvwSQzBuxkBqvsWBA6NHDKFpQXgeKQQvDN5RhUpDAMZAaoOdSRdMNVFTgrAacAXp/UNyU3kIwBhIbfD66AGjiA7C80lHBGsHbqjKcdQQAjAGUhu04U1XooIwkxSCtQI+d9WOAz5a1yczBlKzzaA9P/HWHYTVSSFYs8bPWZdaQwCeWio13Uza9Z4edZ12+gJSCFav+PNEqD0E4JGB1HRNfeF4JFUfIaxJerHYEJTIGEjN1taj96qCsBbpiGBmBR87WlgIwBhITfdk9IACyg7C2qQQPL/Ej9kUoSEAYyA13d+iBxRUVhDWJT01tFoJH6tpwkMAxkBquruAf0SPKKhoEF5IOiJ4XhljGqYRIQBjIDXdAuC66BElmGgQXkQKwSpljmmIxoQAjIHUBj+LHlCS8QZhfVIIVq5iTLBGhQCMgdQG348eUKKxBmED0m2oV6p0TYzGhQCMgdQGNwNXRo8o0WhBeAkpBCvWsqZejQwBGAOpLT4RPaBkwwVhQ9JbVa5Q65p6NDYEYAyktriYfF47GLRoEDYihWD5iDEVa3QIoL1XN0pd9C7gemDJ6CElGryX0fmk2LXx9hujaXwIwCMDqU1uAw6KHlGB44GrMQShjIHULmeTHmBys3j0gAq0JgRgDKQ2+ijwkegRGlGrQgDGQGqr44ETokdoSMfTshCAMZDarIdBaJrjaelRmzGQ2q2HQWiK1oYAjIGUgx4GIVqrQwDGQMpFD4MQpfUhgHZcdHZw9AA11nzgMeA+YA5wT+yccL2Bfx4/0v9IpcoiBNCOGJwWPUCtcQ/pdgbnARcCc2PnhOgN/NMgVC+bEIBPEykvzwP2IcXgLuAY8rp1w1j18CmjqmUVAjAGytdKwInArcBewVsi9DAIVckuBGAMlL+Vge8AZwEzgrfUrYdBKFuWIQBjoO7YG7iCPO+TP5IeBqEs2YYAjIG6ZRPSC8w53h1zJD0MQlFZhwCMgbrnxaQXmNtwJl2ZehiEico+BGAM1E1b08IbiZWgh0EYr06EAIyBuutI4OXRIwL0MAhj1ZkQgDFQdy0GnBw9IkgPgzCaToUAjIG6bQtg++gRQXoYhOF0LgRgDKRDowcE6mEQFtXJEIAxkHaie9ceLKyHQRjU2RCAMZAmA7tEjwjWwyD06HAIwBhIANtGD2iAHt0NQo/ufu3/ZAykbp5iOpQe3XtQ7NG9r3lIxkCCtfHvwqAe3Xlw7NGdr3VU/gWQYArpltdKeuT/INkj/69xXIyBlCwbPaBheuT7YNkj369twgZj0B+6QorXtRvXjUWP/B40e+T3NZViMAZPha6Q4vl3YGg98nnw7JHP11K6wRjcH7pCiuffgeH1aP+DaI/2fw2VGozB7aErpFgPAw9Fj2i4Hu19MO3R3u21GYzBHODJyCFSoBuiB7REj/Y9qPZo3+YQgzGYB1wTOUQKdGX0gBbp0Z4H1x7t2Rpu4VNLfxK2Qorl9/749Gj+g2yP5m9slL7+/n+eVboa8Be89kDdchvpCmRPrx6/HulOn03TwxCM28IP/HcD50cNkYKciiGYqB7Ne9Dt0bxNrbDwkQHAJsBvgb6YOVKt/g6sCTwePaTlejTjCKGHIZiwRZ8SuhY4M2KIFOBDGIIy9Ih/EG7ChlZb9MgAYDngRmCV+udItbkc2A6fIipTj5gjhB6GoLChXix+ANiLdLqplKN7gVkYgrL1qP9BOeJzZmm4M4euAA7EvyzKz6PA64H7oodkqgccU9PnOgFDUJqhniZa2AHAV4FJ9cyRKvUgsDNeYFmHWcDpwPQKPvZ84AjgCxV87M4aLQYAOwJnkV5LkNrqJuDNwK3RQzpkfdIJKZuU+DHvAt4O/LLEjynGdoHZpcCGwAUVb5GqMB+YDWyKIajbzcBmwMHAPQU/1lPAScAGGIJKjOXIYGE7kJ6je2U1c6TSLADOI53dcnPwFsE00okpBwBbMvZrme4kHV2cSnrhXxUZbwwGvYJ0qLYrMLPURVIx1wM/JD2AeGv2ZloJeA3pcWRd0mnsS5DOYHyQdIuQ60knslyPJ7LUYqIxWNjqwMbAWqT/yDPwBWfVYx7wGOkpiDmkiyZ9kxppAv4/IvUoc6W1uL4AAAAASUVORK5CYII=;" parent="1" vertex="1">
          <mxGeometry x="675.29" y="241.84999999999997" width="46.96" height="56.3" as="geometry" />
        </mxCell>
        <mxCell id="y1rmw7ey6d1EXsP7_uVQ-9" value="Referencia Bancaria" style="text;html=1;strokeColor=none;fillColor=none;align=center;verticalAlign=middle;whiteSpace=wrap;rounded=0;fontFamily=Verdana;fontSize=14;fontColor=#FFFFFF;" parent="1" vertex="1">
          <mxGeometry x="678.77" y="310" width="40" height="20" as="geometry" />
        </mxCell>
        <mxCell id="y1rmw7ey6d1EXsP7_uVQ-10" value="" style="shape=image;imageAspect=0;aspect=fixed;verticalLabelPosition=bottom;verticalAlign=top;fontFamily=Verdana;fontSize=14;fontColor=#FFFFFF;image=data:image/png,iVBORw0KGgoAAAANSUhEUgAAARUAAAFeCAYAAACrcYtNAAAACXBIWXMAAAsTAAALEwEAmpwYAAAF92lUWHRYTUw6Y29tLmFkb2JlLnhtcAAAAAAAPD94cGFja2V0IGJlZ2luPSLvu78iIGlkPSJXNU0wTXBDZWhpSHpyZVN6TlRjemtjOWQiPz4gPHg6eG1wbWV0YSB4bWxuczp4PSJhZG9iZTpuczptZXRhLyIgeDp4bXB0az0iQWRvYmUgWE1QIENvcmUgNi4wLWMwMDIgNzkuMTY0NDg4LCAyMDIwLzA3LzEwLTIyOjA2OjUzICAgICAgICAiPiA8cmRmOlJERiB4bWxuczpyZGY9Imh0dHA6Ly93d3cudzMub3JnLzE5OTkvMDIvMjItcmRmLXN5bnRheC1ucyMiPiA8cmRmOkRlc2NyaXB0aW9uIHJkZjphYm91dD0iIiB4bWxuczp4bXA9Imh0dHA6Ly9ucy5hZG9iZS5jb20veGFwLzEuMC8iIHhtbG5zOmRjPSJodHRwOi8vcHVybC5vcmcvZGMvZWxlbWVudHMvMS4xLyIgeG1sbnM6cGhvdG9zaG9wPSJodHRwOi8vbnMuYWRvYmUuY29tL3Bob3Rvc2hvcC8xLjAvIiB4bWxuczp4bXBNTT0iaHR0cDovL25zLmFkb2JlLmNvbS94YXAvMS4wL21tLyIgeG1sbnM6c3RFdnQ9Imh0dHA6Ly9ucy5hZG9iZS5jb20veGFwLzEuMC9zVHlwZS9SZXNvdXJjZUV2ZW50IyIgeG1wOkNyZWF0b3JUb29sPSJBZG9iZSBQaG90b3Nob3AgMjIuMCAoTWFjaW50b3NoKSIgeG1wOkNyZWF0ZURhdGU9IjIwMjAtMTAtMjhUMTU6NTM6MzktMDU6MDAiIHhtcDpNb2RpZnlEYXRlPSIyMDIwLTEwLTI4VDE1OjU0OjQwLTA1OjAwIiB4bXA6TWV0YWRhdGFEYXRlPSIyMDIwLTEwLTI4VDE1OjU0OjQwLTA1OjAwIiBkYzpmb3JtYXQ9ImltYWdlL3BuZyIgcGhvdG9zaG9wOkNvbG9yTW9kZT0iMyIgcGhvdG9zaG9wOklDQ1Byb2ZpbGU9InNSR0IgSUVDNjE5NjYtMi4xIiB4bXBNTTpJbnN0YW5jZUlEPSJ4bXAuaWlkOjVhZmY1YTJjLTFhOTMtNGRiZS04NTRmLTgyYTk0ZjA2NDVlZiIgeG1wTU06RG9jdW1lbnRJRD0iYWRvYmU6ZG9jaWQ6cGhvdG9zaG9wOjhkNzc3YjJjLWE1NzEtNmE0MC05ZGE2LTNmODk3ZWMxMmUyMiIgeG1wTU06T3JpZ2luYWxEb2N1bWVudElEPSJ4bXAuZGlkOjY2MTcyNTFjLWZmNjQtNDhkMS05ZTRhLTEyZTE3MzRjMjY0NCI+IDx4bXBNTTpIaXN0b3J5PiA8cmRmOlNlcT4gPHJkZjpsaSBzdEV2dDphY3Rpb249ImNyZWF0ZWQiIHN0RXZ0Omluc3RhbmNlSUQ9InhtcC5paWQ6NjYxNzI1MWMtZmY2NC00OGQxLTllNGEtMTJlMTczNGMyNjQ0IiBzdEV2dDp3aGVuPSIyMDIwLTEwLTI4VDE1OjUzOjM5LTA1OjAwIiBzdEV2dDpzb2Z0d2FyZUFnZW50PSJBZG9iZSBQaG90b3Nob3AgMjIuMCAoTWFjaW50b3NoKSIvPiA8cmRmOmxpIHN0RXZ0OmFjdGlvbj0ic2F2ZWQiIHN0RXZ0Omluc3RhbmNlSUQ9InhtcC5paWQ6NWFmZjVhMmMtMWE5My00ZGJlLTg1NGYtODJhOTRmMDY0NWVmIiBzdEV2dDp3aGVuPSIyMDIwLTEwLTI4VDE1OjU0OjQwLTA1OjAwIiBzdEV2dDpzb2Z0d2FyZUFnZW50PSJBZG9iZSBQaG90b3Nob3AgMjIuMCAoTWFjaW50b3NoKSIgc3RFdnQ6Y2hhbmdlZD0iLyIvPiA8L3JkZjpTZXE+IDwveG1wTU06SGlzdG9yeT4gPC9yZGY6RGVzY3JpcHRpb24+IDwvcmRmOlJERj4gPC94OnhtcG1ldGE+IDw/eHBhY2tldCBlbmQ9InIiPz7YsD3wAAASVElEQVR4nO3d7XHbxhqG4cdn8j84FQSuIHAFpiuwUkGgCiJXYKUCKRVYrsBMBaYrMFxBkAqCVODzY8lDiqQognj3E/c1wzEpkbtvJubjBbC7ePH9+3cBgJUfYheAA5WkZsT7F8b9vzZuL7ZB0reA/f2op///VSd+N0Yn99/VS/pb0mr9SMILRirBtZLu5P6CAZaWkv5Q5IAhVMJqJX2IXQSKdy/pXazO/xOr4xlqRaAgjBtJt7E6Z6QSRisCBeG9lDvvEhQjFf9aESiI47cYnTJS8asVgYJ4ernRSlCMVPxpRaAgrlo2l7BHIVT8uBWBgjQ0oTtk8pu9D3KjFCAFP4fukJGKLQIFqWlCd0io2CFQkKIqdIdc/bFBoCBlL0J2xkhlOgIF2EGoTEOgAHsIlcsRKMhFFbIzQuUyBApy0oTsjHkq48UIlP/KbcqDeVlI+hy7iLEYqYwTI1AGESjICKFyvliHPFWEPoGLESrn4RwKcCZC5XkECnLXh+yMUDmNQEEJ+pCdESpPI1CACxAqxxEowIUIlUMECjABk98eI1AAp14/dnU6Y84UobJFoKBE/Yj33kh6q9O30u0kfZT0oCcChsMfx1egDB7aBMboz3zfQu52vItn3tes3/dVT6wpIlT8BUon6dpDu0AKarl1Sc3+L+Z++OMzUN6IkQrKVskFy0vt/F2f80iFQMEcDJ7br+QOh/5vrqFCoGAuvgXoo9XOlaI5hkroQNl/DZSo3TyZW6jEGKF0HvoDUvN282ROoeLzsvG1GJFg3hqtD4HmEio+A+WNGI0gXV3AvhppHqFCoGDOhoB9NVL5oUKgAOH8LJUdKqkESu+hBiBFlVRuqKQSKJL0t4c6gBQ1UpmhklKgAHNSSeWFCoECRFZSqBAoQAJKCZVWBAqQhBJCpZUbpVgbRKAAo+UeKq0IFCApOYdKKwIFSE6uodKKQAGSlGOotPITKBKBAkyWW6i08hco1yJQgMlyCpVWfgPlwVPbwKzkEiqtCBQgCzmESisCBcjBIKV/359WBEporQ7voYvHbmMXkKhOSjtUWhEoMdxpvdoUT7qNXUDKUj38aUWgxNCIQMFEKYZKKwIllip2AchfaqHSikCJqYpdALLWSWmFSisCJbYmdgHI2r9SOqHSikABipBCqLQiUIBixA6VVgQKUJSYodKKQEnNKnYByNogxQuVVgQKUJpOihMqrQgUoFihQ2UhAgUoWshQaSR98tT2OxEoQBJChUoj6bP8zNh8kHTvod2UNLELAM4VIlQa+Q2Uaw/tWnpt0EZl0AYQhO9QudK8AwWYHZ/7qbTyd1L2QQSKDytJL2IXgbz5Gqm0IlCAWfIRKnciUKw1sQsAzmUZKpVcmNwYtrnrQfMMFIkTtciI1TmVSu6EbGPU3r4HzTdQgKxYjFQaSV9FoADQ9FBZyI1Q6smVHPcgAgXIypRQaeVvDopEoABZujRUbuXvCo9EoADZuuRE7Qe5UYovDyJQ9llM9QeCGDtS8R0o70SgAFk7d6RSye8l40HSL2I7QyB754xUKvkNlE7SKxEoQBGeG6lU8h8ob7TeMBdA/p4bqdzJ77qTX1R+oHyJXQAQ0qlQ8X1SVpJ6z+0DCOypw58b+Q8USfoeoI8SdAH78rnkohTsOXPCsZFKI3fYg3T8G6ifSgQKJtoPlUr+drxH+prYBSB/+6FyI3+LAwHMwG6o1JLeR6oDp/WB+mkC9YOC7YZKG6sIPKsP1E8VqB8UbDdUfo1WBZ4zxC4AONcmVGpxLiVlXewCgHNtQqWJWQRO6grtC4UiVNLXBexrCNgXCrUJlR+jVoFTWDuErDBSSdsgaRm5BmAU3zdoxzRLcUiCzBAq6RrkttcEskKopKkXm1chU4RKWgZJv8ttr9lFrQS4kNW9lCV3a42/DdsL7Sc9ngBYK8yEwG79+FPxT8r2cqEGXMwyVD6q7M2rGz1eG7P/+lyDXIhs/kxJL3ejOOBilqFSum7v9SpCDUDyOKcCwBShAsAUoQLAFKECwNQmVFi0BsAEIxUApggVAKYIFQCmNqEyxCwCQDk2odLFLAJAOTj8AWCKUAFgilABYIpQAWCKUAFgilABYIpQAWCKUAFgilABYIpQAWCKUAFgilABYIpQAWCKUAFgilABYIpQAWCKUAFgilABYIpQAWCKUAFgilABYIpQAWCKUAFgilABYIpQAWCKUAFgilABYIpQAWCKUAFgilABYIpQAWCKUAFgilABYIpQAWCKUAFg6ofYBWSikrSQ1Oz8rFs/+sC1AEkjVE6rJL2X1K6fH9NJ+kPSQ4B6Qviqx+GJQy9iF5AyDn+eVkn6LOlGTweK5L6AH9bvzV0lAgUTESpP+6xxX7CFpNpHIQE1sQtA/giV42512ResNq0CyBChctyvsQuIZBG7AOSPUDlUixEHcDFC5VAduwAgZ4QKAFOECnZ1sQtA/giVQ0PsAiIaYheA/BEqh7oJn62MagCyRagct7rwc58k3YmTvZgxQmWrlpuS/0nTZpbeSPpLbg3Nrdzcj2pCe0BWWFDoFgv+Jvsp6s368X79etB2ZfO/cqOhXqxyRmHmGiqV3IjiN4UbRVRyo5bF+vUmbHq5gPmiclY6Y8bmePhzK3d48l5pHJbUcqOlD5L+kasPyNacRioLuS9uHbeMkyq5sHsr6Y3CX+Lt1v0CF5tLqNxqe7iRg0YuBJeB+x10+ZUvQFL5hz+V3FWYnAJlo4ldAHCJkkOlEVsjAsGVevjTyO3cVsUtA5ifEkcqjcoIlC52AcAlSguVWmUEisSkOGSqpFCp5KbYV3HLMNPFLgC4REmhcqdyTsouYxcAXKqUULmSm5Vaii+xCwAuVUKoVHKjlJIsYxcAXKqES8o3Cjf1ftDxcx2N7M7lLMVJWmQs91Cp5FYa+zLIfcn/lJu+Pjzz/nr9aCT9pO10+zH+GPl+ICm5h8qN/F3tWUq61rhFfb22WxnsataP1zvPj1kd+SyQldxDxdco5UEuUKx068fD+nUlN4LZhMxi/fPfDfsEosg5VK7kZ5Sykm2gHDPIjYSWOz9biFEKCpBzqLz11G6s0cIqUr/7Sprv4wt7zpyQc6gsPLQ5KJ0vdyw3sQtA3nKdp1LLz2XkzkObOWliF4D85RwqsFfFLgD5yzVUFrELKFQduwDkL9dQ8WWhef9rXccuAPkjVA61sQsAckaoHErlfkBAlgiVQ5XK2T1urCF2AchfrqHSeW6/kQuWxnM/qeliF4D85RoqfYA+GrlguQnQF1CMXEOlC9RPJTdt/S9xAhc4S66hIoXdHa2Wuw/zJlyqgH0DWck5VP6M0Getbbh8EJPwgAM5h8pS8a5WVHIjls9yAcPKXmAt51AZlMYG0bXcydyvImCArLc+kNzeJ1dK5xxHLRcwN3Inkz8qr42sB7H1AybKPVR6uY2i30eu45hm/biT+6J+1HY7yVR1YgMiTJTz4c/GrdKftLXQ9gTvrdIZWQHmSggVafyu97HUcqMqwgXFKiVUOknvYhcxQqVtuFxFrQQwVkqoSPa31QihkvRJ7tCoiloJYKSkUJFcsPyiPA6FdrWa78poFKa0UJHcJdxXSv/k7b5G7nCoiVsGME2JoSK5S82v5M6zDFErGacSIxZkrtRQ2biX9FLpzw/ZVYlgQcZKDxXJjVSulVe4NEpzQh/wrDmEykavbbj8rvQPi27EKmhkaE6hstHLTTx7KRcyXcRanvMhdgHAWHMMlY1B7nDo1fpxr/RGL7XYcQ6ZmXOo7OrkrhT9V270soxZzB7OrSArhMqhB7kJdJtzL33MYsRoBZnJfesDn3q5cy+3cutzflW8dTpvFe7KVSMuZz9nFbuAlBEq51muH7Xc4ciVwn7xNv0NAfr6JO6p/JwXsQtIGYc/4/TaXpa+D9z3IkAflQgUTESoXGaQO7H7UuGGwq8D9NEE6AOFI1Sm6eW2Xwyxl0sToA9gMkLFxr3cXJfBYx+Nx7Y3FgH6QOEIFTud3KVoXyqPbQNmCBVbK7m5LcBsESr27pXedH8gGELF3qB8tljY18UuAPkjVPz4FruACw2xC0D+CBU/+tgFALEQKn5UHtocPLQJmCNU/Gg8tNl5aBMwR6j48dZDm52HNgFzpYRKpXSmsS/kp5ZcT/5iZkoJlU+SvsrdjOtO8fY9qeRvX9mVp3YBUyXsp3Kl7ZqVWm4X+pv166WkL3JfyM5zHbX87UXSKcwVpU5ugSRwsRJC5e7E7660HbUMcuHybf3nyqj/Si7EfpO/9TkfPbW7bxAjIkyUe6gsdP7IoNI2ZDabSfdy/zp/Wz/ffZzT72uF2QVu6bl9wEzuofLrxM/X68fVE78ftD1s2rw3tAcxmQ4ZyT1Urjy3Xyn+HiOsekZWcr7606j8PUYexCgFmck5VBaxC/BsEKMUZCjnUPkpdgGepXAjM2C0nEOliV2ARyuFvwUIYCLnUKljF+BJL7973QJeESppGeQCZYhbBnC5nEOlNIPcFPkubhnANLmGSh27AGODCBQUItdQqWIXYKiTu31qF7cMwEauodKpjH/Z7+X/zoZAULmGiuQuu76SO7G5jFrJeCu52kPcgxkIKve1P5ILlKW2q5Dfys22reKUc1IvN6ntIW4ZJ92p7DlAFthz5oQSQmVjkPuyPqxfN3Lh8nr9vA5d0I4HuT1RVhFrONdN7AKQt5JCZV+3ftyvX9dy4dLIBc3Cc98rbXedGzz2ZWkRuwDkr+RQ2devH8udny3kDpeuZDOSeSem12Pmcj5Ra2ElFwQv5U6cLie21038fGx17AKQv7mHyq5O0nXsIiKrYxeA/BEqjw1iuwFgEkLlUB+7ACBnhAp29bELQP4IFezqYxeA/BEqhxaxCwAi6KwaIlQASIYTNAkVAFZqiVA5ppvw2cGoBiBHtUSoHNNd+LlhwmeBYhAqh37X+HAYxN4ogKR5LSg8Vy+3DqiRW2j4s9zeLI22e7Ss1n92kr7JrRkaQhTn2aA8tmdAwgiVp3Wa3+FMJzYgmrNOBht0cfgDYGOwaIRQAWCKUAFgilABYOW1RKgAMEaoANj4YtEIoQLAFKECwBShAsAUoQLASiURKgDsNBKhAmBrZdEIoQLAFKECwBShAsAUoQLAFKECwBShAsDSglABsNFbNEKoANjoLRohVACYIlQAmCJUAJgiVICy1aE7JFSAstWhOyRUAJgiVACYIlQAmCJUAJgiVACYIlQAmCJUAJgiVACYIlQAmCJUAJgiVACY+sGwrTtJg2F7wNxVBm0MBm2MYhkqjWFbAGx0I97bWHTI4Q+AjcqgjY5QAWBpIFQAmCJUgLL1I95bWXS4CZUxHQPIRz/ivc3EvjqJUAFgZ5A4/AFKthr5/h8tOt0NlbEFAEhbP/L9zcT+vkiPQ6Wb2CCAtHyL0eluqEQpAIA3q5HvX0zsr5Meh8pSrN0BStEr/NHHID0OlUHSH4GLAODHx5HvXxj02UmHV39uJT0YNA4gnk7S/cjP1BP7HHTikvK1pF/E1SAgN72k3yW90fhTGT9P7LvbPHlq64Pl+lHJDYuadaeVXKLVBgUME9sAclPL5t7GvbaXi79oe/6km9DmYsJntdv3i+/fv09sC0DmKkn/TGzjWutTJ8yoBbAwaKPbPCFUALyd+PlBhAqAtUrS1cQ2VrsvCBVg3m40fR+VP3dfcKIWmK9K0l+aHiovtbN4kZEKMF+fND1QOu2thiZUgPmpJH2WzVWfg+UAhAowH5XcUpy/ZBMokpsk+4jlzcQApKeWC5C3mn6VZ99SRzaCKjVUap0/HbrR5ceVm6ULSEsv6e9AfQ06Pj1+Faj/jUrbv8uN3N/NRjbLAp5ydCV0rKs/iyee73p94vON+DIjP4OeX5/TSfp372c/6vhWj9UTPw+hl7vqcyBGqCzkThIByNf/1/rs40QtgLE6ndh3KUaoLCL0CcDOu1O/ZKQCYIx7PXMSmlABcK5ebme5kwgVAOcY5LaZHZ57Y4xQ6SP0CWCadzpzu8oYodJF6BPA5Z68fHxMrMlv/4jJa0AORgWKFO+cCjctA9I2SHqlC+4DFmukUslmcxgA9pZyI5Thkg/HGqkMuuyGRwD86eWu8Jx1lecpMS8pd3LB0kWsAYALk2u5BYLLqY2lskdtKz/7PQA4bpALkI8y3qYhlVDZqOSWci90fLn3ImQxQEF6uaOCL3Ih0vnqKLVQiaGW341scjSIw9JTKh3fx6TW4d+lp/ZCaWR7oaLT9jxIJ7cny+ZnK8N+nkWoAOlbKPxOchf7H5QFAfyg/4EwAAAAAElFTkSuQmCC;" parent="1" vertex="1">
          <mxGeometry x="678.77" y="390" width="47.49" height="60" as="geometry" />
        </mxCell>
        <mxCell id="y1rmw7ey6d1EXsP7_uVQ-11" value="Ciclo Facturación" style="text;html=1;strokeColor=none;fillColor=none;align=center;verticalAlign=middle;whiteSpace=wrap;rounded=0;fontFamily=Verdana;fontSize=14;fontColor=#FFFFFF;" parent="1" vertex="1">
          <mxGeometry x="678.77" y="461" width="40" height="20" as="geometry" />
        </mxCell>
        <mxCell id="y1rmw7ey6d1EXsP7_uVQ-12" value="" style="shape=image;imageAspect=0;aspect=fixed;verticalLabelPosition=bottom;verticalAlign=top;fontFamily=Verdana;fontSize=14;fontColor=#FFFFFF;image=data:image/png,iVBORw0KGgoAAAANSUhEUgAAAgAAAAIACAQAAABecRxxAAAACXBIWXMAAAsTAAALEwEAmpwYAAAF8mlUWHRYTUw6Y29tLmFkb2JlLnhtcAAAAAAAPD94cGFja2V0IGJlZ2luPSLvu78iIGlkPSJXNU0wTXBDZWhpSHpyZVN6TlRjemtjOWQiPz4gPHg6eG1wbWV0YSB4bWxuczp4PSJhZG9iZTpuczptZXRhLyIgeDp4bXB0az0iQWRvYmUgWE1QIENvcmUgNi4wLWMwMDIgNzkuMTY0NDg4LCAyMDIwLzA3LzEwLTIyOjA2OjUzICAgICAgICAiPiA8cmRmOlJERiB4bWxuczpyZGY9Imh0dHA6Ly93d3cudzMub3JnLzE5OTkvMDIvMjItcmRmLXN5bnRheC1ucyMiPiA8cmRmOkRlc2NyaXB0aW9uIHJkZjphYm91dD0iIiB4bWxuczp4bXA9Imh0dHA6Ly9ucy5hZG9iZS5jb20veGFwLzEuMC8iIHhtbG5zOmRjPSJodHRwOi8vcHVybC5vcmcvZGMvZWxlbWVudHMvMS4xLyIgeG1sbnM6cGhvdG9zaG9wPSJodHRwOi8vbnMuYWRvYmUuY29tL3Bob3Rvc2hvcC8xLjAvIiB4bWxuczp4bXBNTT0iaHR0cDovL25zLmFkb2JlLmNvbS94YXAvMS4wL21tLyIgeG1sbnM6c3RFdnQ9Imh0dHA6Ly9ucy5hZG9iZS5jb20veGFwLzEuMC9zVHlwZS9SZXNvdXJjZUV2ZW50IyIgeG1wOkNyZWF0b3JUb29sPSJBZG9iZSBQaG90b3Nob3AgMjIuMCAoTWFjaW50b3NoKSIgeG1wOkNyZWF0ZURhdGU9IjIwMjAtMTAtMjhUMTU6NTk6MzItMDU6MDAiIHhtcDpNb2RpZnlEYXRlPSIyMDIwLTEwLTI4VDE2OjAwOjM1LTA1OjAwIiB4bXA6TWV0YWRhdGFEYXRlPSIyMDIwLTEwLTI4VDE2OjAwOjM1LTA1OjAwIiBkYzpmb3JtYXQ9ImltYWdlL3BuZyIgcGhvdG9zaG9wOkNvbG9yTW9kZT0iMSIgcGhvdG9zaG9wOklDQ1Byb2ZpbGU9IkRvdCBHYWluIDIwJSIgeG1wTU06SW5zdGFuY2VJRD0ieG1wLmlpZDozZWQ5ZGY3MC1lOTNjLTQ4MDUtYWY3Zi0yNjg2OTE4NzhkMzMiIHhtcE1NOkRvY3VtZW50SUQ9ImFkb2JlOmRvY2lkOnBob3Rvc2hvcDo4MmViZWRmYy04NGRkLTJmNDUtOTA2OC0xZmJjZWZkZjMwYWYiIHhtcE1NOk9yaWdpbmFsRG9jdW1lbnRJRD0ieG1wLmRpZDo3ZDhlYWEzYi0zNjRiLTQxZDMtYjUxOC00ODk0YWQyMGUzZDciPiA8eG1wTU06SGlzdG9yeT4gPHJkZjpTZXE+IDxyZGY6bGkgc3RFdnQ6YWN0aW9uPSJjcmVhdGVkIiBzdEV2dDppbnN0YW5jZUlEPSJ4bXAuaWlkOjdkOGVhYTNiLTM2NGItNDFkMy1iNTE4LTQ4OTRhZDIwZTNkNyIgc3RFdnQ6d2hlbj0iMjAyMC0xMC0yOFQxNTo1OTozMi0wNTowMCIgc3RFdnQ6c29mdHdhcmVBZ2VudD0iQWRvYmUgUGhvdG9zaG9wIDIyLjAgKE1hY2ludG9zaCkiLz4gPHJkZjpsaSBzdEV2dDphY3Rpb249InNhdmVkIiBzdEV2dDppbnN0YW5jZUlEPSJ4bXAuaWlkOjNlZDlkZjcwLWU5M2MtNDgwNS1hZjdmLTI2ODY5MTg3OGQzMyIgc3RFdnQ6d2hlbj0iMjAyMC0xMC0yOFQxNjowMDozNS0wNTowMCIgc3RFdnQ6c29mdHdhcmVBZ2VudD0iQWRvYmUgUGhvdG9zaG9wIDIyLjAgKE1hY2ludG9zaCkiIHN0RXZ0OmNoYW5nZWQ9Ii8iLz4gPC9yZGY6U2VxPiA8L3htcE1NOkhpc3Rvcnk+IDwvcmRmOkRlc2NyaXB0aW9uPiA8L3JkZjpSREY+IDwveDp4bXBtZXRhPiA8P3hwYWNrZXQgZW5kPSJyIj8+NAv2SQAApVJJREFUeJzt/Xu0bV9W14d+5lyP/TqvfX7nHApUIr7ujQINQeUpWCVVCApXlIdKFDVKEoJNjV69Go0g2IyaRBtpBgqKQES5VSAqxEgugonhEQho5O0DKaTAqjrn/M57P9dj3j/GHGvMx3j0PtZa8+zzq9Wrtfrts/caa83+7aN/15xj9O/oRUWmFUDV+O9VHgfV6r/aT8wd93I8HBKZVyv2QyCzHqLOhvjE2sb6IauPthe9zBxXKS+4XHNc/pUO4+EOmfQ4WAwwLheZilHj59zYaz4x38PaLAEUavawzmon3ZJxzci6C66wYZkrx9krXSiv1I5bDuThBwIyk/qnmXLcuJ7oOg9zx1Vrxd68gzb2wyIDdc6P2/9U2LjxvaNxdrRiSd24YnWtYxVIxQqigpnq5mpSjyuV02CSjYyjY42HZbaHNoa6cTCuY1gqv68mq9gvM5HRJUjJaE1ktB6OV1+LS9W4USYyzkMtdRRAQVVU7p+aZ4gpI2BRX/ZMzD9jJpjbqlI1rmQP6k8smHMpHFewRwnMGQNLLoQ+unEjCiouxOGc1p9kPLxUIDNtjJN7WLJHQcUi20PdOOvh0MhYD4dGRu+hHpl27OXItD3UZIW506yaT48FRYNN4rbHlBFLLrmgZMT+6gYmbhP2GVFwySWFYlzJASNKLrikomTKvmhcwQFjSmZcMqNkzIHIQzvOeFgw4qDxVBizfaaUwAUXQKlCpjlO6qFBpuCCS5YZHmqRsR4OjYzzcGhktB7qkenGXpcVemQKSofE6EvtTxUl5pYnZQdMKZhzjrnVmVIyEdzyTDigYMkZFTBnwkg0bsQRJXDGEsOvY0aUSZ4sOGRMwTkzzNPclJKxeFzXw/STskFG76EPGYmHPmQ0HmqRCcV+28joY79ZZOQe6pEZPitG7vu/SQAAJUWSAg6ZUjDjrP53xYIpBZPEE++UQwqWnK7ef86EMjnOOnq6etWckjEjRtGnnoJrjFahBBNO84mScV0PSybMo9gc1pNc62EImZSHIWSkHmqRCcV+28joYz/iGiVw0hhnEiSNzJiCsxYyU0qmSQ/3esjsCcZNOaJgyUkDmSkjpom1gJCH5t4l5uEEKBwxtQmgoqRgHFnZN45erhw1o+Y1SOGLNo4uGo4CzJgknB1xnZKq4SgYZydRZwuuM6bgtPVctKBij5JJ8GnJjvN5OGIaWUoyyOg9jCET8zCGjMRDLTJwFIi9mehhZMy4JS86HhpEwxSwxxEF8MIb+zAFGGS642YrctQis2RKIfDwktPG7yTI7NXp30emjCIT8zA2Z0qmFLR2fdoEYDZ4SkaBde8j9nuOmlFz9iiCE32PaxQsed5711mUOsbcoASe9/46q/lu5A1nwQ1PKMG4bj4xNi7kYckec+/N2bV6kvs9HLEXROY6BYvguEnAwzE3GFEFkDG3kSEPJxSceJHZC46Da+xTcOFBZsYeI6ZBZPYDHl5Gv+vMnAl7GIr9tpApEx7qkTEe6pGJeximALdk2LiaLgGYncWSsefp5Rr7lFxw4nnzijn7lOyx7D2F7NeT/JmXVC7ZqxOkO27MTUrgmReG8DQouMmEghdceMYtWLLPiGnvrwW36vR/EfVw1gvn9XqShzycBjxMITOtb1y7HqaQMdS4F/TwJIBMVcei/9frNfUPi0zcw6GRiXmoR0YS+9ysmFD2kBnVj1Oz9rg+AZiihJJphwKu1zznc9SMmtXOLloXvc8NChY8Cd4IXbDPqDduzC1GVDwNLmtcMmbChFEraAXHTCh47g0lOArY49wz7oLnUQ9H7HHZCucNDrI8lCLT9VCKTMjD563fNm3uRcZ6ODQy+thvG5ky4KEemW1mhe+L0ab/RZc2fARQsWBS3+7ay7PpH3IUYMkl+xSti97nBjDncXQp5LzmVzduzDElFU+iq5oXqwcBOw0KjhkDz4KhBJjXSzRuGthx5zxLeliy3wjnDfazPNQg0/RQg4zPQy0y1sOhkdHHfvvI9D08oBAhM2qNO+AmhQiZEfuNu4Axx4ySHhqSa1KAXTI874/zEYBb3d2rFzCuJ3jO2pJLDijZr8N5wC2BowDn7DNejZtwmxEVj5ObGheMma6+CUpuM6VIhBIMox/UN4PValw8lM5DF86bHGZ5qEXGeqhFpuuhFhnr4dDI6GM/DDJNCshFRpb+4ChAnxWjxv3RmBuYrVTPyoCfANyi1z4zjjgg9Q1gzThbsM+CCTdJfwO4i96rqaPgNqXIUTPOOjvjNhPgaWudOmSG0c00MOPOeCoYZ0nugEuuc0COhznITBixVCMzXXk4pVAgc1DfJt/gkEKFjJno18Xpb67UTvSJOP3NuFFNAUtxcrhxuciUDQ/1yOyJqd9cqUWmUHto7gIW3Ky3Ur2Lu0XkKkbcpKSonx0kjhqb8NqqBmrG6+KCyJLX6kLhkiWvK2qbb3FYj4PHolAaO+B49fMpT8Tj1vVwnXE5yBh70lunDtsht7CIDo1MrodDImNMj4xBdJisuMk+FabkJ7giFitWXPCMgoKCS0X6N91bKBx1ASypVI7aAJbAE0X6N7/zNaE0HrqfdB6aRZg8ZIAsZACeKia5xUOb/ptARh97e+s+JDIA52pkKnX6r5MVT7msv8D9+2FAnACoyzAL9oTVydYmjCgoGAurk62NGFNQUCo/zxQ4FBS1ZEg+7qgeN00g0bVr9Tir/pLafu1hLjIF11TjHDJHSg/3XhIy2thPVlc6NDL6rCizkMnNiglTjMxvGnnzLw3/za78jyg5VGibjrhNwZyCkgMWYtaacJcRFQtGqnEld5lScFkv7qQWc3zjRuzX1dgSO+ao9nDEIedqZJZKD5vIDOnh0MjoY2+RuWAyEDK3V8iUWbHXIpObFRNeY0TFZb3rEah/DBOAKfs551m9gHEgpIAjjoEZDzjjkEJ80RPuUrLkAS/YVzhbcpcJ8JgnjJkwZSx6DLDjTnm9XvSSToPbHOE8lE8Dh8ypysMuMloPLTJaD4dGRh/7JjI5sc9B5hCHTJERex0yuVkx4U79SPycEWNvaRAQJoCjeuPvGW7dW3IX4BxdsuRcTAHO0RkVZ2JnXShPgLO6PCQ9DVz6P8JUR0knupkCTQ9l4Wwio/HQh4zGwyYyGg+HRkYf+yYyObHfBDIyCuhnhQyZ3Kxw6X+Gq5jwUoCfAIy4we37L7kQXXTTUTNORgHtUCJ2th1KkE6DdvqDfKI3J7nzUI+M1MMQMlIPu8hIPRwaGX3su8hoY78pZNIU4M+KNDK5WWEeGprLnBEK8BHAYV3d3Cz7kVCAecpxjlpnjxJrARPuMaJqhNI6O46Os89xj1vqhDPGTKM3g3acCyWYcB4mpoF5/vN5GH+u8yEj8TCGjMRDHzISD4dGRh97HzKa2G8SmdysiCOTmxWGNrpbm4YCRvRkQn0COKiljd2a/xRvHXEbOo66ceG7gAn3KFlyv/PXirN67cE/ruQeU+BRT5wUnwZ23EkrlOC+6w4auvWmuSdcn4d6ZFIeppBJeRhCJuXh0MjoYx9CRhr7TSMTvguIZ0UYmdysMOPoEBwYjcAIc9JFw7oEcFCvjfoUf/aijzwXbR2973EnRgHhUELFadDZkntM8IUSYtPAjuuHEuIT3U7ysIf+cMaQiXkoQSbmYQyZmIdDI6OPfQwZSey3gYyfAtJZ4UcmNyvC6Q+WAkqKZi1hmwD2mFAwCxZGmIvu37rEHHXj+hQQD2XY2XgoITQN4ukP4Ykem+TOw344U8iEPJQiE/IwhUzIw6GR0cc+hUwq9ttCpk8BsqzoI5ObFfH0B7ik7FJAkwCmnQOfpBedctSNa1NAOpR+Z9OhBN80SKc/+Cd6apI7D/XI+DzUIOPzUIKMz8OhkdHHXoJMLPbbRKbIzIo2MrlZYdM/7uGMkpKSwsqCHQFMmGAPNYxZ96IljrpxjgJkoew7KwsldKeBLP2hP9Elk9x5qEem66EWma6HUmS6Hg6NjD72UmRCsd82MkVmVjhkcrNClv7mSg0B1D2PRl9qigXN8sAiXDMcuOgDoaNunKEAxKFsO7sQhxKa0+BCnP7QnujHwkkO+cg0PcxBpumhBpmmh0Mjo4+9Bhlf7IdApsjMCoPMKDMrEKc/mINVy/qzy6Iy54SXlFTixgKOqYy4QeJoc5zVNslCCY7DTbMGmaPGDIebK5WF0pj9lsrzUD/OepiLzFIxBYy9TGRyPdSMa3v4KiDDYLE3J1guWZo7gIKCpQJYx1s6R91dQKEMpeU7raOW0Qt0oXSMnuehHhnrYS4yBa8OMrke6sY1PXw1kBku9gsKCioqp4NqdAsRmVWJua5mOitjGqUNWv7n6JSFznKRsa9/eVd81T7HWi4y7vUv64q3bbmfU1i/zH8qoKg5T2bmZmeOuw2Rmb3ZWWJvtGTmHgHyx5lrlpr5lDnusUVmdvlnmYnMjKvu4XrILAdH5oJhY79OVuSM02dFwb7NdfMIUAEjTIcXibk1zrmoGrp9wUvuc6JSCrpV3CfROqjQuBMeJItE2+bWt+fRGriuOWS0qi+LzIssDy0yWg8tMnIP10PGxn5YZHJir0dmM1mhRUafFQWma+GCudsGNBQwElFAc4tDo4lqbnFolILNTZxYHVRonHmOS9eJO2tub6XKYJvWREan+nLI5HjYREbjYRMZmYfrIdOM/XDI5MRej8zmskKDjD4rzAEoFXVn7mZzUEj3levvcEqd7e5wSimgu4crdba/7y+dBt3dbelE7yIjV321kdF62EVG6mEXmbSH6yHTjf1wyGhjr0dms1khRUafFUV9QPjM7vg1KwGXLDGtk8JvccQxRWeNU+Ksr8BBQgG+Eg6Js/6yH8k08BW3SCa6r/RDEk4fMhoPfchIPPQhE/dwPWR8sR8OGU3s9cj4Yr9eVkiQ0WdFwXVGVMxcvU9bC2C7xPo75/WVzVJnQ/VNKQoIVXClnA1X/aWmQai2LTXRQ5Vf+aovmYchZFIehpBJK/7ykAnFfjhkpLHXIxOK/XpZkUImHPv9ADKm82XFZbPat6sGNBQw8lJAKP1TzsbKG2MUECvglCgF/Xu4sWkQK22NTfShVV8SZGIexpDRK/7SyMRiPxwyktjrkYnFfr2siCETi73/9I2Cm4yBi7bv/fMATDvkfvPMw4CyOeVsqro5RAGp+u2UUjBcwhGaBqnK9tBEH1r1JUUm5GEKGb3iL45MKvbDIZOKvR6ZVOzXy4oQMvHY+04NKjhmBP0exr4TgSwF7DduFVLpH3JWIm7wUYBEvhFTCsYruHzTQCJs8U30oVVfGmR8HkqQ0Sv+wshIYj8cMrHY65GRxH69rPAhk4q9PThsvnp30/2w8nX29p8JuGBZN4o2FHBYL/3F0t/nrFTb1KUAqXorpBRMF3B2p4FU19ad6EOrvrTIdD2UIqNX/PmRkcZ+OGRCsdcjI439elnRRUYS+zYFlJjWd+e+zt6hU4EdBVxg2jXOeJhwtOusRtvUpACN4s+nFJTVbzengXSSQ3uiHwqnAGxG9ZWDTNNDDTJ6xV8fGU3sh0PGF3s9MprYr5cVTWSksT+rOxIvWKzS39vaN9YbcJ+bFCzqQlNJ+huz3K/VNrnCRp3ir60U1Mg3bMnnGJ18w5Z8asetq/oaGhm9rq2JjD72wyHTjv1wcyY3K8w4XezvMKFiTgmchlr7xjoD2XbIMFd1M7N8p9U22bsAreKvqRTUqbcMo+uVe8bDXC1kvupraGT0ujaHTE7sh0OmGfsh50xuVpRqxZ+5CzDjzsKdvfO0Tim7VADTtIU9qCjbJAea+Cz3iq+6LRVnPGzW1o/lVbWXNcfyYxkZF7sDsI8AJbruafampVAIIqB5vIFcJrTOOHejWyikIuBudEuFVAQcMpWg2LNp7kZX120x30M3TuehvdHVjntZyMwps2Kf76E2K5pH6OiQucMEU+K/zzyk8QkTwD43KJjziEW9oCCjALfGeZkshWxfsF3GeZalFDzhYbIUsm126e/9jFRqsbbqSz4NclVfuVpIt779MFEd6B9nkclR/F2+IshoVaI29lpkcrPCrfw/UyJzlymmj9EeJVOj/etbiAD2uE7BnMdU9dPLWEQBzS0OjSaquYmToxQ84ZFKE9Xe3tKoxfqqL9k0yFV95Wohm9tbOUrBJjJ6xd+rgoxOKdiMvQaZ3KxobvzpkLGt755Qcc6Ukj0/BfgJYI9rlCx4XLsm7Q/X3eGUOtvdw9UqBe0yjnwadDf+pNPAr/pKT4Nc1VeuFrK7u61VCnaR0Sv+XhVk8mMvRSY3K7r7/nJk7tZZ8RiAinP2KJn41mV8BDDlGgULnjTcmtW3uzEK8BU4SJz1lXBolILNVVzZNPDt+0umQVj1FZ8GuaqvXC2kr7hFoxT0IaNX/L0qyOTHXoJMblb4yn5kyNhv/8eN356zR8GUZZcC+gQw5ZCCBU87LqXuAkL1TSlnQxVcUqVgdxMnPQ1CZT+paRBXfYWnQa7qK1cLGaptkyoFQ8joFX+vCjL5sU8hk5sVoao/KTKnPQ/Ng8C4SwFdApjU6f/c406MAmLljTFnYwWcEqWgbw83Pg1iVX+xaZBWffmnQa7qK1cLGSttlSgFY8joFX+vCjL5sY8hk5sVsaJfCTL99Ae4YELJmEVzXJsAxhxQsORF4IbGLgd2nU1VN4ecTdVvp5SCoRKO8DRIFf2GpoFM9dWfBrmqr1wtZKqyPaUUTCGjV/y9Ksjkxz6ETG5WpGr+U8j40x/gkgkFY5ZuXJMAxuxTsOQksqThC6dE3OBzViLfiCkFYxVc/mkgqfn3TQO56kuPjC+cuVpIibAlphSUIKNX/L0qyOTH3odMblZIJD8xZOIe9ijAEcCIKSVVclOjG06ptqnrrFS9FVIKpgo4+9NAKvnpTgOd6kuPTDecuVpIqa4tpBSUIqNX/L0qyOTHvotMblZIFX8hZCRdDCcUjFiaPLe9AUsmFFSiYp9mOMcKbVPTWRTqLZ9SUFK/3Z4GGsVfcxpIpwDkI9MMpwYZn4caZPRayL4eThP7q49MfuybyORmhUbx50NG2sVwRN0XiML0BixqOcWlsuRzxkjsaHPcstYYysUNbaWgXL7hmkPsoZNvmEmjH5eLjP3O0CLT9lCPjF7X1tTD6WN/9ZHJj72l0tys0Cr+2sjIPSzYw2Rh5ZqDFszE6e8uWqv6avZo0am3XI8WnXrL9VrRqbdcrxXtuFxknIc6ZJyHQyOTG/urjkx+7NdFZqisKJhSsWTp1IBLVfo7bZNW9XVWFyRqtU3uc3RqLPc5J6pQus/RqrhykbGv1yLjXp+LjNZD+zlaD18VZPJjbw/dyEUmPyu8x30ErWouAhb1Q8BIcdFO26TTRDlOzlMKAoJiz6a5nmmh45L95lRfOrXYushoVV9N5V4uMjl6OCBbD3fVkVkn9qbnXg4ysE5W6JCZMqKiojIEsKSkVFBAW9skd9at4p4lSyF94054pFIKNte3fWelhq2t+pJPg/WR0am+uoq/XGS0ergl76dYQw93lZFZN/Z5yKybFRpk9hlTsWBOYbcBl5SMGFMKegP2tU0yZ5ubODlKwRMeeesCwuYm+UKlFuurvmTTYBPIaFRfPsVfLjIaPZzxcD093FVFZhOx1yOziayQInOAOSpsDuYOwNiyfgwYJSjAr21KO9vdw9UqBe0ih5wC2ttb8mngV32lp8GmkJGH06/4y0VGqodzHq6nh7uKyGwq9jpkNpUVEmQOmQDe3oALCkaMGUVAmnCXUWeNU6b6utvbxNEoBZtrnDIK6O9uy6ZBWPUVnwZh1VccmbAWMhXOsOIvFxmJHq7t4Xp6uKuGzCZjL0dmk1mRQuaIKZHegAtGUQqYcJeSKkv15Tu1VaoU7G5xpCnAX9ySngZx1Vd4GsRVX2Fk4lrIWDjjir9cZFJ6uL6H6+nhrhIym469DJlNZ0UMmWvskegNOKdkzISRZzvCpP+SBx4A06ov/w6nRCno2+GMU0C4ti0+DdKqL/80SKu+/MiktZChcKYVf7nIxPRwfg/X08NdFWS2Efs0MtvJCj8y19lD0BvQUMCYcYcCYunvLjqkiQoXOKSUgqEChzAFxEtbw9NApvrqTwOZ6quPjEwL6ZvoMsVfLjIhPVzYw/X0cFcBmW3FPo7MtrLCh8yNOv0FvQFn9V3AuFE+kUp/d9E+TVS8vimmFIzVN/kpIF3Z7p8GctVXexrIVV9tZORayG445Yq/XGR8eri4h+vp4V42MtuMfRiZbWZFF5kb7KPoDThjxIQJo5oCJtxhlEh/d9FdTVS6vDGkFEyVN/YpQCZs6U8DnerLTQOd6ssho9NCNsOpU/zlItPVw6U9XE8P9zKR2Xbs/chsOyuayNxkH2VvwMuaAsZcMOE1RlTJ9HcX3dREyaqbfUpBSXVzmwLkurb2NNCrvsw0kE4B56FBplBrIW049Yq/XGSaejiZh+vp4V4WMkPEvo/MEFlRcsAFS25yQFZvwBscUHDBHiUVDwWOGmuqvjTihrZSUC5usIyqVW85RpUmhzUz2c7YE08BYxYZxJPcmJ1sFxwwhBayPU7j4Xp6uOGRGS72TWSGyYq7FCzqGAZ7A8YIAG5wCBRUvC521F00aLVNbpxO2+RqqXXqrZenh7vqWkg3TuvhGx2ZfA+d9mKorLhTq/7PeBp6URn6A0C9YlhwqXLUaZvmCiEFOKWgVtvkCht0ir/lKhBapaC9vgslMtZDLTLOQx0yuVpIh4zWw1w93PDIDB17O27YrCigu/LftBgBjDmuf9pf/SQxx8nj1U8SK+tyIWDFzjK7zUH9060Vy0rsiFtZ4ybcq386WLGzxJyHOmSaHmqRsX7lIqPz0CEzyYz9UMgMHXs3bqisOF4hc7x6h56FewOOOaak4hEFE6aMm/VDEWtrm/SqrxNeJEsh22afrl7nQKUUdMs/OqVgW/UlV4u1tZAawahb4MrRw+VqIZc8YKpSCubq4YZHZujYu6xYZiGTmxWnPOGAkr3QyQYhAhhzk5KKx8w5V8gi+9omnerrhEfROqi+uUk+VykF3RTQKQX7qi8ZMn0tpHQauEmeo4fL1UIa4a5GKZirhxsemaFj38yKHGRysuIQk/5LLtkPU4CfAEZ1+j+pnz7OGTNlItREdbVNctWXXeSQO9ve3pIrBdubP3K1mF/1lZ4Gfi2kZBq0t7e0erhcLaT1UK4UzNXDDY/M0LHvZoUWmZysOMT1BlxywT4lU2b9cT4CGHGDEnjaEAabu4A4BYS1TTLVV3ONU+Zsf3dbRgH9vV/ZNAirvuLTwFfcIpvo/d1tjR4uVwvZ9FBGAbl6uOGRGTr2vqzQIJOTFebb3/UGXHJZ9wbsHfvbJ4AR1yiBZ51zAc4Z16VBMU1USNuUVn11tzjSzvqLW9IU4C/9SE+DuOorPA1CtW3pie4vbpHq4XK1kF0P0xSQq4cbHpmhYx/KCikyOVlh0r+LjKGACZ2jf7sEMOKIkopnnk2cswgFpLVNcdWXb4cz7my4ti1OAeHKr/g0SKu+/NMgVtoan+jh2jaJHi5XC+nzME4BuXq44ZEZOvaxrJAgk5sVvuZgS2Y1Bcybn9cmgJIjSuBFYA/XUEBIE5XSNoVVX6ECh7Cz8dLWMAXECz/D00Cm+uojk6psD0/0eGlrSg+Xq4UMeRimgFw93PDIDB37VFakkMnNilBvwCWXTCkYs3Cf1ySAkgMK4CRSwhHWREm0TX7VV6y+ye9surLdTwHpum//NJCrvtrISIQt/omermyP6eFytZAxD/0UkKuHGx6ZoWMvyYoYMrlZEddCzpgCY3cX4AigYJ8SOE1UcPk1UVJtU1/1lSpv7DsrE7b0KUAm++hPA53qyyEj1bX1J7pM2BLSw+VqIVMe9ikgVw83PDJDx16aFSFkcrMirYWcY3oD1ncBlgAKphQUnAn2GPuaKI22qa36klQ3t52V69raFCBXfbWngV71ZZCRTnLnoZ0Gcl2bTw+Xq4WUeNimgFw9nEbxtxlkho69Jit8yORmhUwLuWAMlCyg3Ruw5EKQ/saamii9tmkGSm2TnaRG9SWXb9hQaFVfNn2fcU08BYzZUEx7k/wuH8Ev45dwh2vs1w0knI2ZAkuWjIG5uENMyR4FFUtGGIRkNXRFHTvT468Sx96OW1BSKMaZ9iOuA96l4AB6Y+siM2dCDjIzxlkeLiiZccF7eQ/v5qf46aQqwlL3elmh0ULus2TJ3KgBTW/AEk+ZQPKiYShtkxunU2+trxRcV/X1Jj6dt/KJfKjiPXb2xrETfpD/ne/gnyWrGsyr87JCq4WcsmTJ0hFAJWZkYxPeBMAF91XjSj6o/iZ4r4pw4B57ANxXdnq7yQ0AnijVVHu1fONZWEzptZIPxpxP8JzP5Q/wGxmpxu/sjWn/jnfxDfyU9292zuRnxftUX1IwpmwTQMlcIeBsar003NPsZqb7RnYcqftGdhypu1dpeqgZZz28w3/MF6wUZzvbGUDFP+Kv8D2d3w6fFWPGzTsAGDGiZCa8C3CLHHvixQdornFeKA5iAveUdMItNM7aNYfH3FGtVtjln4ccixeswHp4xH/MF3MoGrGzDzz7Lv4sP7T6l8sKlCtVdr3pQnFwG8CEKQs6vQFHlJie4enhXW2TTg/ntE061deM+1yoNFFu9VenFGw2stSoxYyHv41v4G0q5fbOPrDsl/EH+RC+l3PaWaFRCjY3/nRKwQn7VJijYip3JFjBHmMKzhMTvb/FIduC6O9wSjdnuttb0m2r7vtLN2e6mz/SDb2Se9zlr/Jboq/a2c6M/Ty/n/+tlxXSzdxu1kmzYso+FXPO23UAYBqDmbuA8FqA6Q3o0zbJ9HB9bZNM9dUERMZ3fXqRKQX7e78ytVjJPT6Od/FRwVfsbGdNu8F/xE1+mKqVFbK7gP6XriwrphxSsbDp3+8NOI5SgGkPUgS0TWk9nF/blFZ9XfCg5VTaWf/dRZoC/KUfaQooucfv5u3c9P51ZzvzWcHH8+F8G+9v/TZNAf577nRW7HGNikXzfbunAhccMabkxLPVZtIfHntvhcMPAvHyxtiDQOzhInbLE3vP2INArPIr9iBQco8/xp/2XOXOdpayH+IzeNj5XexBIJUVFf4WPvscUTHjRZNW+seCF1xjQsFJ5wzAePqHLyxd3RxK19TaQogCUmsLIQpIFX6GKKDkHn+KPx64yp3tLGU/ylt4vfO7EAWks+IYPBSwzzUqZjxv31X0TyetajHwNfYbv02nv02M5r67TNxg/tY9RTa9tGj+1txDBcnSov2b20MFiezD/q09ruQe//ku/Xe2hn0k38n1zu9MNuVkxWOg5G4rK/a5Acy76e8/FtweB3JjRQGTehc9lv7uoh0FSLVNfQqQ7Sz0KUC2s9CnAJnso08BJff4bP5s9Cp3trOUfTTv6tWL9ilAmhVdCjjgJrDgWX9NIXQq8AV7jNhnyRzTG7BIpj/49XBybZNe9dVe+JCrvtrLgXLVV3s5sOQeH8nXM01e5852FrdfyQH/uPO79nKgPitMb0CT/nOe+JYUw63BCo6ZUPCCa5QUPI71F2lZWw+n1TbNuFRVF7q1gBfcIEcpqFX8WWJ7whE3+Q4+THidO9tZzCo+i3/Y+61dC9BnxTEVi1oHe8lj/45CrDdgwTFTjFz4iTj93UWjumB4mUpBXSW1e+j4y3yBeNTOdha3+/ya3n5AfjYdckxFRcWMR6GagliLomrVT/xUlf7wpE7CueqCWW0+LnmiHGcfTh6rtFSz1ee8UGmplnWYPp7foxi1s53F7R5/w/PbR7VCR5sVLmt7S3/O4r0BbVnLoUrYUq6+V8etHYG03a6ljWVn7TNlRyuOvKOqwZ+s1Ho3Wiv7KSu5A4z58t6xHjvb2Tr2e/iU3u9u1539tFnhsvZWuDdg+A1Nb0B4zhw4FlOAW/rrbwrGrbnIoWktadcOntDfFIyZXfp75NkUjJn9jM/kVwlH7GxnMiv4bzpfKjYrfJuCMbNZ8Qwow+1B470BC55xyjl7jDhU6OGa2iZpA8WutkmqiXIr/zqloFv5P1cpBZ2H31gfNLKznW3OPoT/m3+1+pfLCp1S0JQDzXidSxbsQ6g3oJ9PXHOwM2DJ68yA4+R3ZHfjz1ca5Lf2Fof8LqC98ecvDfJZe+PPXxrkM1cN+Nv5xSmndrazDPszq5/aWeEvDfKZTf+HLIEzngIlN313Ab5dAJP+Jc8bxcAld5gSLwXy7/tLdi99r5Hs6fteI5FF+vb9JWLhZjHwj/CREY92trN8+zh+EH9WSMTCNv2bArp9brBkydOuzK/PJSOuUUAr/c26d/wuIFT2k74L8FNE+i7ATxHpuwB/2U/6LqCZ/h+3S/+dbc3+MKGsSN8F+NIfznkGFFzv1ht232bEEQXwoiMFcvICPwXEqv7iFBC+Q4hTQPgOIU4B4aq/OAW0pUC73f+dbc8+hw8OZkWcAmxWPOhlxTkvMFK/FgW036TksG4O5jt311JAP0FSRb9hCog/IIQpIP6AEKaAeNFvmALa6V/wO7zXu7OdbcJu8mmksimWFf30B0cBh81xzbcoOQDgNHjstp8CJDX/fgqQKv66zqbXB/wUkK7591NAVwj8a/mQ4BXvbGfr21sE2RTKCn/6A1zUX18NCnBvULBHAZxGO68secAlXT2cpOa/TwEaxV/TWZnkp08BMslPnwL65wC8OXrFO9vZuvZxomzSZ8Ulp7g+oDgCKGpFW+pI0O5dgEbx16YAubapTQFyxV+bAuSKvzYF+I4B+YTkNe9sZ+vYr+BO4hVtCpBnxSVn2F6g2NZgpk+IvC9AUw+nU/zZtCdL8Wf7AsglP3ZT8Am3VIo/C6z1sL05+DM7BeDOtmyfyncnX9PulqHRwU5ZsGRu7wDM/8vbNdpEuqVMf3cXoEt/dxdwC53iz94F3Falv/uMW570P+SXSi97ZzvLtF8teI29C7iFLitm9Spf2VwDWCgagzk9HFwoFX9W26RXCtokfKhS/J3wrP7piUrxN1t5eNJKf/ilOwnQzrZusnvMR6sFe11WzO2XfYnR+5sG4XIrV88oeyodndM2aZWCTcWf5konXKt/uqVSCpYc9z7Z2G4HYGfbt18ketVRrZ/VZkVpy4LtcRjVqiu6bLhd+vPXBYStqW3SKAWbij+NJsou/T3DXxcQMvvaZ55NwdfEV72zneWaZJa5lTFdVpT1aZ9LQwBLlsypKDgQvUVz5d93Tm7Y3Mq/XCYEzTXO5yqxsFv5fyqWCUFz5f+ppy7gQHTNO9vZOpaW37uskMuEAEZ1ud+MJZXVB1XMKCk55CyxFmBPGzXLa0vuc48JtyF5ZGhX22RvrlNrAV3FH9xmwr3kokd748+MK7mXXApsb/zNuM89yoaHm2j7+dO8o/GvQyaYUw2rxr9nyXOYphwAFSd1zMy/l+3WDx4zBd9uXPffISu4Rgmc1bUi3X+Hre2RHSf1UI9M1yMdMs4jLTLmyj5iA6XiqYNm21lhskmSFSMOgSWXVOAIAJZccEDJUdTZkrtMaa7gSymgv+8vo4D+DqeMAvr7/jIK6O/7dylgE0uAP8tfWf3sU3hJqiR8ukfJfnBYCxnfJ/FVRMgap/a9kdWP+LyRIOPzRo5M2xsNMvaqPncDBBD/mul7I6OAEdeoWLoTM5q3DMu6ROBa74Rya+1vfzcu/SAQ0zbFHgRiir/YLY8/bGmloH9Cy88L0Jtf4ClFxu+hHhnz+XpkcmNvx+ljn0YmFvs0Mv7YS5DRHdmZsjITGdvCx2cjrlNQcebGtV+65JSKghteCvCnvxkXnwZh1o6HM6X4C4UzzNpxCgh/n22LAsL6bgkyYQ/1yMQnehiZ3NinKCAc+zgyqdjHkQnHPoXMZtMf8pEJUYA55avitHmH333hghMqCs/pITb9T72OxqZB/KYtHE6J4s8XzvhNW5gC4rezjgL2PH/Ns/jxDilk4h7qkQlP9DgyubGPUUA89mFkJLEPIxOPfQyZzaf/knxkfBQw5iYFy7rx38r6TLHghYcCyvq8XX/6mwv2T4P0M5s/nFLFXzec6Wc2PwWkn2bttWhOSI5Z+nSXGDJpD/XI+Cd6Gpnc2IcoIB37EDKy2PuRScc+hMzm0x/mmVnxiFP6FDDmFgUVz9MnAtkeYs2TRO2BYOH0B/80kEl++uHUKP6a4ZRJfvoUIFvM0rUdiZvkcKcwMjIP9cj0J7oMmdzY+yhAFns/MtLY95GRxd6HzDbSH/Kzok8B5oRv2/OzZf7lggXPWFLUFFDyWuLb31p3GsgVf21ntYo/G0K54q9NAbJJTn1N6TNZ0zYRpT/4kZF7qEemPdHlyOTGvksB8thvEhlp7PvIbCv9IT8rLAXcqT00xPjUp/UJrRfOeUpFyW2mdfrLHG1OA3n6m4u2zsodhWY498ST3I0r63GySQ4w47ngVSkbIfewi4zOQz0ybqLrkMmNfZMCdLHfFDLy2HeR2Wb6Q35WWAp4jWmd/k/8Ur9w5dCcxywpuV1/+z8WXnL7myBHKahxFNqMrlH8te8CZFMAUImmwqbxsImM3kM9Mu3vOjkyubFv3wUMjYzGwzYy205/yM8Kuxz4GgVLHoeUvrHSwTlP65/OxekPJhDmMvVKQdsbUPes7RR/D8VTwIx7Uv/0TDwFNmOV0kOn+tI0Mc1Hxmkhdcjkxn7J/VUHvKGReaLy0CFzNkD6Q35WPK7regh9+0OcAIqVjm6qLH+9Vb+vVil4tOoNeEs1zin+jqMeda1cXd+1jRT4yq1QKgqc6uu6alw+MlYLqUUmN/YHqw54t1Tj1kfmKBOZvYHmTH5WOGSC1ath1wuOmQAXLFebgDKzN4BapWBT26RRCjYVfzpNlL2R0ykFN2N6ZEyl5pDIPEvUwPVt3dinqgP943KRob5N1iNzpkYm1/Kz4i5ljcyE4xAFhBwv6o6iZzzmdZarMqC0uec/nVKwq22SOttV/EnD6Z5wH0WrA31Xur5VaJFZcp+HAyPzNFkG27b1Y58uEO6Py0XGxV6LzAkPlcjkWn5WmPR/vX4QCFKA3+2Cm4ywXcVmCgpoLv9I6sStdbVNUme7ij9pONsLXPKegnA7qdOS2KUSGevh0MikK+GdbSL2Eo1Ae1wuMu3Ya5AxIzTI5Fp+Vpj0N+s+psOnKQXqmc9p20DofLVMYtoMpimgu/ornQY+bZPEWZ/iTxLO/vq2lAI2pQWoVMg0PRwaGelE31TspRSwHjL92EuRcR5umwLys8Kk/4MVMoYCRtzoU0Df5YJrjIGLVfqDbTcQp4CY6is2DYZWffm3tyQUYLxIad9lJkem6+HQyEgmuj/25pw6bezlSsFcZPyxlyDT9nCbFFBmZ0U3/QGecQ6M+8uBXYcLjhgBF71ylxQFpFRfoWkwtOorvLudooDmcWabMBkyPg+HRiY10UOxnxPXUIZiL1MK5iITjn0Kmb6H26OAMetkxYMeMs+4AMZ169+Vtd0tOKzT/4XnzS0F+JyVqL5802Bo1Ve8uCVGAfrCprSlkQl5ODQysYkeQyYmo47FPq0UzEUmHvsYMjEPt0EBuVlRedIf4DkXuDOPams6axsGXQa/40IUIFV9dadBrupLqvjrhjNd2xaigG2kP6SQiXk4NDKhiZ5CJkQBqdjHlYK5yKRjH0Im5eGmKSBWKpYb+xdcALYFMNAkgII9RtjuYSHzUYBG9dWcBrmqL43irxlOWWmrjwK2lf4QQybl4dDI+Ca6BBkfBUhiH1YK5iIji70PGYmHm6WA2Zay4hJzKnBNAY4AJvVJoWfJC2s7q1V92WmQq/rSKv5sOOWV7V0K2Gb6QwgZiYdDI5Mb+y4FSGPvVwrmIiOPfRcZqYdDlpPlxv6UGVDazewS0xhkXKf/ueCjm87mqL5uc6RIf2g6qxO2uHCOxZPcjdN7mGt9ZKQeDo1MbuybFKCJfV8pmIuMLvZNZDQeGmSupV++AcuN/RkzoGBCQWnrrwtgId7gsufkvgnQqr7sCcJabRMcYc4Q1qm+zAnCH1y/i3QF34zTe5hrbWQ0Hg6NTG7sm2cra2JvkdF72ERGH3uLjN7DN9VtN7ZvubE/Z6/uBrZ0jwBL1f72jPv1TzpNlFN9zRXpD/Bo9XCiVX09qX/Sqb5c4IdRfbX1cBoPh0YmN/Yu6XWxd8hoPXTIyNMfmsjoqN8hM5Tlxv7CitodAZTROqi+We2VVhN1sOoNqNPDTTJVX07xp1N9sfq8oVRfTg+nKzYeHpnc2E/rz9HG/mB1OJ1W8ediqDGHzDQTmaEsN/aF9cv8xxxyJe8NaJdz9JqopupLU1Zrn3K0qq+m4k+j+rJXd0GoLmDTZp9wXxVk8mOfqg70j1smqwO7Zr26UI6zXl2Qj8wwlhv7ot4FqCwBLOsbAllvQLf6q9VEdVVf0mngFjl0qq+u4k8eTuvhfUGB8CbMLXC9KsisE3sNBXSR0Sv+7mchY2Ofg8wz0evXtdzYmx6gBQsWVCXm+3/JHFcJGLfm6q9m+8On+pJMg/Yap1wT5VP8ycLZ9FCjFMy15vr2q4NMbuw1TVZ8yOgVf3pkmrHXIxM8f2eDlht7W+x/yQIMARhb1JsDRwkK6G7+SKdBSPWVmgb9LQ6ZsyHFXzqcXQ+3TQHd7a1XB5nc2EspIISMXvGnQ6Ybez0y61v883Jjb5uYehYBYc458d6AcJtDcjRRMdVXbBr4dzjTzsYUf/Fw+kK5TQrw7W6/Osjkxl5CATFk9Io/OTK+2OuRWdfGW4i9E/qv7lHaTlkK8PcG9Kc/pKdBSvUVmgbhAoe4synFXzicoVBuiwJCxS2vDjK5sU9RQAoZveJPhkwo9npk1rXc2B8GPLR5fdYc13VpVp8k2u8NaNPf3x4kNg0kqi+fs/H6pnA4JYo/fzhjoXQUkF4lkVqstu3VQSY39mmlYBwZveIvjUws9npk1rHQoXGS2PsowOR0UZcCr6zvkBED9SngOJL+EJ4GUtVX19l0eaM/nFLFXz+cqVBaCtjUXm+qtPXVQSY39nGlYBoZveIvjkwq9npk8s2/VS6J/Sl9CrBdvk665X7973kjB75Gwa3GeeLHHJFqDmZLIe81Lk+q+rJlsDZwsupmWwrJ6rqkij9T7HmvcV2SUJpxwSOWFfaL+CMcgq9dY8vsU9vp6vR72+M9Pg6OmNKUdvffyW97HAILnq9aoHXfyW/96+q/U3hc87r2VMi46+q/k99CyKQ8lCPzMdH3kdo6WXHIIdWqm4dJ/2UtB26ZjwBMCcR1So7rjiK3Et/+1roUoFF9NZ2VixvaFKBR/LUpQMrkmoLSmP2HfOWG3mlnb1RbLysOOQIeYzoZjKl86R/ebDBnApnGYLcCS38+a94M5qi+bnOkcBSaN3W6VlbNmzrNjdxJ9LyEne1sc7ZOVpgHgVvY5n7P/Epf/x0AwDlwk5LX6tsqaXMwdxdQkqP6us1S4Si4u4CDxPNf15zqq0TzHBe/wdzZzjZn62RFxSGHtTIxkP7xcgN3LLiuN6C9C9AJfh3f6RwFm/S69Ae3rDeE4HdnO8ux/Kx4XC/n22PBvZaqNzI2zVR9jZRbZvb1Wj2ce71O9eVer1V97WxnQ1l+Vrj8jbwobDc4gPoMMU1vQKf60hXO2KccjRgG2uotjSaqqfjTqb52trOhLD8rTM5eAgfcCL8sZNfZxxz58BSQ9wZsq77kFOAWOXR6OLf0p1N9dRV/cgqQB2FnO1vP8rPiLlPgCa9zRoQCQlP+GnvY3oCnPEFKAX3Vl4wCmmucGj1ce+Vf00Cxr/iTqr420RtwZztLW35WmFw1qwBmBWDfX8Dmn/CmI7lbBDyt9xNTFOBXfaUpoLvFIXW2v/EnpQC/4k+q+trZzrZv+Vlxt84Ku2FtKGDPd1ipb7ofske3N+BpvV4eo4Cw6itOAb4dTomz/n1/CQWEFX8S1Ve8Am9nO9uEFdlZ0fz2t2a2Aff64/qT/YApvt6AqbuAuOorTAGhAoeUs+GynxQFxBV/KdXXrIfMzna2eRuvlRWPe1lhegNOOewOaJtNf19vwJOaAvJUX/5xsfqmmLPxqr8YBaQVfzHV14z70cr2ne1sM1askRX99Ad4zjkwbR/I2p7oe4yJiSJCFCBTffXHpcobQ86mi35DFCBT/IVUX7rCpp3tLN+q7Kzwpz9YLeCk2begOc2ndfrHat19FCCp+fdRgKS62eesrObfRwEyxV+fAnbpv7Ohbb6VrLAUsCqYc5N8wghJb8Du2ThSyU+XAqTihq6zcslPlwLkir82BezSf2fDW/xBMz8rzIEgY/tFXGKqhUeU2CPBUtakAI3ir0kBGm1T01md4q9JATrFX1cpuEv/nV0ty8+Ks5oCxmB7A9r0l0oNjI5Or/hzSkGduMFpouaM0Uh+rFJwrz4PRSr5aSsFd+m/s6tn+VlxzpSSkrHpDVhQUNTVxlJzOjpdcti7AK22yb5a5yirV+vSH/I93NnOhrL8rLjsHwteZB51pVX8vTqmVRbubGevinl6A5ZMFRRgnqvnaI/Kts/+WqWgffUcbTmuefWcPKXgnJ1ScGdX1XKzomDP5noJVCxYAmXdMjBtdunv/crT8pvaJg0FuEWO9ytlkXbp771ZSkHr4Y4Cdnb1LDcrCg4YYdoBrnoDzlkAIw4FFNBc+dc0zGiu/GuUgs01To0mqr3yr1cKNj3cUcDOrpblZoVt/rdgTqs34IwFpjN6nAK6G39SCuhu/EkpoLvFIXe2u/GnUwp2PdxRwM6GtHgW5maF7Q242vFrTulLZsCIa5EPP+KY7rq4hAJ8+/4SCvDtcMqc9e37y5WCPg93FLCz4Wy8haywHRBm7mDb9oS+YI5rsNA3k/6XvW2xFAWEyn5SFBAqcEg7Gyr7kSkF+xt/OwrY2bBWZGfFcSArCm4wBmbNcr/udD7jEhhzw0MB9tv/gWdXPEYBsaq/GAXE6pviFBCr+ksrBf37/o4CNtEZaGc7i1u1Rlb4KMA2+7tsF/v3v88sBdzsTPTDSPpDmAJSRb8hCkiVN4YpIFX0G1cKhst+LAVsqjfgznYWtvlaWdGlANsb8KIr9fPd0JreamOOGxRwWC/9hdIf/BQgqfn3UYCkutlPAZKa/7BSMF71Z971jVr4tLOrZFV2VjyoKcAd/eHSvzfO/0R70qGA1Le/G9emAKnkp0sBUnFDnwKkkh+/UjBd9LtrILKzoSw/Kx7UWXFYjzPNwbzH/ISWtF7Up+XfpuSQW8BlMv2hTQEaxV/TWY22qU0BGsVfXykoq/nf9Qbc2VCWnxXuLsCm/7n/KLtwb8DnFBww4TUmwIyHQkGMUwrqFH9OKbhQSBubmihzlrH8O7qtFJRLfna9AXc2lOVnxQPuMOEWc0rgrHXEb8Nim1rPOIN631Ca/uDuArSKP8t3GkfB3QXo0p/Vp+jSf2c7G9Lys+JhXdcTSf9Ub0CNQLhpl5nJtKhFiksuVePc63O/nXOveGc727blZoWxAmLjwo8AsM8NjFJgwh3FPYB99i8puae4B7BPOUvlOPsMv6TkNihY0o07AvG9wz3x+4ftCT/Gpfh84YJJLdsqsEXbMjMHvenHjZisxi0UkWiOWzJTeGi0qBUF1eDI5HoYGvdBfIT4/VKWmxWmN2DFErgJoaP+wgRg0n/GY25wqKAAt/Q3rdcCZBftFjku66ceqbN26e9JvRYgpQC39HeLIxEFHPL5fAkfLXr3uP0YXyB+QOoiI78VbCMjH+f0HrcUy6p2nI29/MFqsvLrUrFwvElkdB6mkPk83iV6t7TlZoXp31FxyjNuM+YGlf+4v9AjgGkjNOMRS55wCky5KyiDba78a5SCzTVOjVKwufKfoxQ0nyXRCPwK/jo/z/+4kfQ3D1e5yOi1kDpkmnIvjYbSpb+Nvax0etJI3lyV6LrIaDzUI5NruVlh2/ec8oQlj5gBN5qHgTdf6jOT/nMe17dihgImSQrobvxJKaC7xSF3tr3xp1UKum+oWDjHfBb/P/41f4zjxLvKbbEWMnotpByZrtpTOtGb6Q+IKWDS+e7OVYmui4zUQz0yuZabFTb9zRH+rCjgmu+MK19wpvVZOI8bT2Km2UCcAnz7/hIK8O1wypzt7/trlILtG1R/OD+I/5J38228beMKgPWQ0WshZcj4TnmWTPRu+oOMArrpD7LYbwMZiYd6ZPItLyvct//j1e8qHjPHSwH90JjuYXOedhZiHifuAkJlP6mJHipwSDvrL/uRKgX7z6fdcH4i7+I9fAW/OPA+69p6yOi1kGlkQoe8pya6L/0hTQG+9Id07LeFTMpDPTL5NsnKCvuX046HlgKOus3tu4GZcADMeeZZh30UoYBY1V9sosfqm+LOhqv+JEpB//KUDeeH8p/yY3wvnydahci39ZDRayHjyMR6PMQmeij9IU4BofSHeOy3iUzMQz0y61hBPjLd9AeoeMocOGyPa4dlzD6w4HlgG+ZRvRzYDWeq6Dc00VPljWFn40W/KaVgeHX6Eb+Er+An+So+3Pv3Tdt6yOi1kGFkUi1eQhM9lv4QpoBY+kM49ttGJuShHpl1LRcZX/oDVDxjDhw0xzWDYtP/RWQX1t4FNMMpqfn3TXRJdbPf2XTNf0wpGArllM/nn/J9/D7RSvKmbD1k9FpIPzKSDk++iZ5Kf/BTQCr9wR/7IZDxeahHZl2bZyIT87DiOQtg323/u5CM6nKDk0QRxqN6OdCGUyr56U50qbih76xM8hNSCvpD+Uv4cn6Od/LJ0ffcjq2HjF4L2UdG2uCtO9El6Q99CpCkP/RjPxQyXQ/1yKxv8c8LIZPysOIFS2DPitpLzNNGyRhYcCqowWpSgEbx15zoGm1T21m54s+nFOyHsuBT+Xu8mz/HByXfcVu2HjJ6LWQbGU1/x+ZEl6Y/tClAmv7Qjv2QyDQ91CMTq6/dlPmQkXhYccICWwlZFJXpCWS6A8pLMG06jcTpb8xOGp22yd1nXHCARvJjoblgj34oj/lCvphfKXyvTdo/5m2d36yHjPVQj8xJYlWkbyb25vP0sZ/Vc00f+6GR8c+ZmBlkzvgcvko4Imz/nI9JvqaNjNzDgn0qlizsseCmClue/u4uQKv4s991ulA6vtOlf1sp2A7lx/B1/AJ//aWkv8/WQ0avhXTfdVotpLk6bfq7uwBd+ufr4dZFRpv+9uoOEqVPm7MmMhoPK86pgKK5BrBUpD+wOl5goRBgAJwxrz9Pp21yRxl7DzYImvuckzqUB3wh388P8wc5UL3Ttm19ZHRayOUqmU4Uk7z5OReK9AenuZyHpCkBy9XDrY+MViWqm5vrm8s+3SdX1q/mIuA08GKfTbjX+EnOeCX36ickaa2/tdurdNWOswtBtzjil/NXeA/fwMcr3mEY2wQyuq6JR9yqf7qlHGeXug5Ui15upozVc8YsUA+PjG5Zz2XFMNbEQ4dMaxGQujfgSNwP1z57vK+zIyC94EeCMti22WWc9ymngV2reC9L3sq382/4U7wmHDukbQYZzUS3T+TvFWoE2uNs7OUJ4pb+5DIhaCKj6ye5KWS0Hi55n193t3FzqzjarDDbgBULQwAVlgImfsVQx5or/91NQckFP+IkWQbbNreKm6MUnFHwJ/kevo63XNEz/TeHjF7xNxfLhNy4ZuxlCdJc+dcoBTehEl0XGY2HBhnP4Zsbt+bKvw4ZUwhUMaNi6UIwY0HFJPlc3N34k1JAdxNHPtHbmzhapeCv5a/xbv4yH5Z49cuzzSKjV/xplYLd2KcTpLvxJ6WATalE10VG6qFuUXQd6278yZE5rB+nLu0bObtkjhUDhcwoAdqOSijAt4crm+j9PVypUvAeX8A/4tv4j8SPNi/DNo+MXvGnUQr6Yh9PEN++v4QCNqkSXRcZiYebTf+JABl9Vhgx0LLeBaCrBbioKSAEki/9IU0BoRKO9ET3l3Cknf0E/hv+L/7yQBX9+bYdZPSKP6lSMBT7cIKEyn5SFLBplei6yKQ83PS3f5FERp8V1+r0b5T7dT/CNAYzB4J0LZT+EKeAWAVXfKKHK7jCzk74PP53vpc/8Aq08NoeMnrFn0QpGIu9P0FiVX8xCtiGSnRdZGIebuPmP45M2MOiPhGga9fZAxbtYv/+B1gK6KaPTf8HAUdDFJAq4AxP9HgBp28a/GK+lJ/hXXzKFV3sa9t2kdEr/lJKwfAkD1FAqug3RAHbUomui0zIw22k/5wYMqms6FPAjTr9O1I/302G6Q24x43G71LpD34KkNRv+yd6un67OQ0K3sK38G7+wtaO79i0bR8ZveIvphSMT3IfBUhq/n0UsE2V6LrI+DzcztLfMoJM3MMHHgowJwLO+0J//1OG6Q24v6KACXeS6Q99CpDKN/oTXSbfMCG7yZ/hJ/luPmcQEcZmrBgEGb3iL6QUTE/yLgVIJT9dCti2SnRdZLoebm/lP4RM2sMuBdzkAFj4jvkJrTSa3oAH3AQmvCZKf2hTgEa91Z7ocvXWR/Jl/BBfxv8z+cqrZdOtI9Oe6HJdW5MC9vhF/CrucZ1TcezNJ2kUf82JPoRKdF1kmh5ud+PPh4zMQ0MBd5hg03/OE1+xf6o34AEle5TYRkNpewQcYYoipaEEOAFMHwGZ4m+fz+c/42NF7331LHTgk8+0yFibYfrK3WZPKPmZ8uF8OL+GX8Yv500ct8rCLnnE+/hZfpaf5Cf4Ee+1m9gf1XNG66F+zlgPt4+MMduH8miVFdve9+8iI/fwAXcpeW2laXzs1/rEbpqfAYfsUbDkdYWjlgLMz7JQgpvo6VD+Ur6YP3glS3rlth1k2mYnemqST/k4PoPfyEdHKkGnvIk38VH1v+b8ON/HP+W7O1djYn9Q/6z1UD9nrIfbQqZrlgIO0Gohc62JjM7DB9yhZJ8qnP6powtO66KgS6WjT2pJpFb1dcJRXbQT0jaN+Az+ML81UiTxali1cWT8NuNFvZLjV/wd8Vl8Nr9FvWU65qP4KP5zZvxT/i7fysPVX57Xz9YXijQGo4Uco58zs/rbf9PIhGzJY4zkR6uFzDWLzJInqnEzLmpCD53xSXgNAGC8aoSxr2qJUa6WLXSqL7i9qtnz7fHe4//Dv+bb+cxXPv1jZR5+iyMTtqPVQm5f8fexfC2/wDfxuWtUTEz4VL6aX+Af8OkUNPVweyodndNC6udMnko0hkzMJtypf9JpIXOtrRLVIHO8QuZW+Is+/IZjblGy5HXOgEMxBbSXcTRi4eYyTneD5xP5W/w7/jK/TPheV982hUzM2gtcbt17xOfz/fwAf4ibyqv225T/F/+If8Mf5UMbz/5yHV1bC5mDjFYPF0ImZe2lv+02BoPuyr8emRmvU1FyHKKA0NuNuUmJaSpkGoPJnG2mv44C3CRvT/RrfBH/jO/l94qUiq+KzVgfmZS5SX7RmOglX8CP8s4tnIjwy/kb/CB/mNNV7PVzRjfRc1WifmTS5tL/YhAKaKa/FplDTPpf8oglZeguwP9mI25QsKy7idjegIdJZ7ubOHIKaG/i2In+ifz3/Bxv31BDzqtkC3E4/cikJ3r7O87+9zP5Yf42v3rNqw/ba/x5foQvoBBTgF8LqUdGTgF+ZNIU0P723/5dQHfjT4PMIXBZ9/Oe1RRw00cBvrcy6V/xpE5/sL0B4xTg28OVUUB/D/eCT+Cb+Cd8yQYbcl4tk4Wzj4yMAvq72zMK/ib/X37tuheetF/E3+b7+AgRBYS1kHpkpHq4PjISCujv+2+bAvr7/lJkzLf/w5WHcx6zpOCGPQfIWf+NRlyjWDUScvY4cRcQKuFIU0A3lB/Ef8W/45180itR0Z9v6XD6i1vSFOArbvn9/Difuf5FC+3j+WG+lOcJCohrIfXIpCnAX/aTpgB/2c82KWDi3feXIGPS/0HLQ1MGVHC9SwHdtxlx5E1/sF2B/BQQq+CKU0AzlAVv4Zt5D1/GhwTce2NZPJzh2rY4BfQn+V3+Hl+/oQU/qU35C/yf3IlQQFoLqUcmTgHhqr84BYSr/rZHAQWx2MeR6aY/mHa/SwqutSmgqzU6pKDiWeCk30eB5cBUAWeYAlwor/PF/DjfzeeqNnNedQuHM17aGqaA/iT/Dfwwn73Jixbbx/DD/OYABci0kHpkwhQQL/oNU0C86Hd7FBCPfRgZX/qDbflbcNikgOZbmHqqiheRg759FCCp3/ZTgA3lh/B23svf3OLi1NU1fzjTle1+CuhP8i/ie/jQTV+02K7zLv40Z+TMmVxk/BSQrvn3U0C65n87FLBMxt6PTCj9wbb9LZqdC9wbFOzhGgeFrbu0I5Vv9CngNkdM+a18Gz/GF6mKMV6mVbxnw+/YD6dM2NKngO4kL/mrvF113PvmreBP8XaW5MyZXGT6FCCT/PQpQCb52QYF9B/BmxZCJuWhOQ+gYN+Os8OLepqcCtp8NClAo95qU8BtfiV/mh/kq/ik5MirYk/5G/w/+IqNv287nHJdW5sCupN8zDfy/974tebY7+BdjMmZM7nItClArvhrU4Bc8demgCEqVX3ISDw0/T8LphRAMcZc7ogCOBNWRVvVl0bW6sZNeBO/kT/EW16pkt4f5mv4Jk6AN2/h3Z3q61I8yd24knt1ZbubAnu8k9++hSvNs0/kW/hdXGTMmVxknFKwi4xs3G3GXBOmPzSVgrSO0tmedZGRerjglH0KJsxZVRkXVKo2SI4CdOqtR9zi9/P7+A/EI16+nfN3+Wq+b8ufYsOpEX26cWUv/b+V37qNy8y2j+Gb+Z3MM+ZMLjI2lTXp3x2nUfw5ChjqYJomMjpN4zlToGz2BVioNFHwpH69RvX1MXwDP8Gff4XS/+f5y3wEv3fr6Q/2HCa96utkFYHHVzb9AX4t76zLubVKwVxkXIuOx6rZPVt9zguV4m/ZUEUOYyerrocPVR4u7RqDI4BRv0ooYk6ZJFN9HfCF/BA/zBe+MhX9S76bP8gn8VX1jev2zSr+tKqvo9X1mRNgrmb6A/wG/gdGaJWC6yBjb8bvqDaXJ6vegDdUsS9XSsGhzKlE76iQGdu7lBLTI2wJTMW3Lu1lHMna53fxDfw6xQW+XHvIX+UT+AN8J+/rnJC3PWsucGlUX3aB6wkmLteubPoDfCp/QiETMrYuMtqegnbp75FSKWg/40liBX9zZpf+nqBDZlLv+K16A1bMqYB9EUh9xV86nFe5N0/bvo/fx4fxlfz7lupr2xTQVfxJw+km+XMeAfv8gyuc/gBfwm9VUcD6yFyoKMCt/J+olIIuK57zTPD69c2t/D9XIWM6gHp6A8oowJ422lb8bV8ZvX075R18NJ/EO2spdFv1tU0K8Cn+JOFsb2+dcMLX8Ju3dpWbsrfzJvGc2Qwy8ruA9safXCnYvifWrablWXvjT47MtD7OrNcbsOKCBXAYLRwpucsUn+Lv1aaAn+KP8ov5w/zfEdXXtiggpPhLhbO7u73H3+ItW7nCzdoB7+RUNGc2hYyUAvqxl1GAprJBavHH8f6+vwwZ0/kz0Buw4pwl5iBQv3W//a2lKeDqntg/5x/wVn4NX8ljUqqvbVBATPEXC2c//a/ys3/bPoK/KJgzm0LGWJoC/LFPU8A20h/KJDJdDy0yd4PImJZ/kd6AVV0JeOSlgFD6Q4oCbl/Rkp9f4Ev5MD6b76oBSau+Nk0BKcVfaKK/yukP8F/wsck5sxlknMUpIBz7OAVsJ/0hhYzPwzgF7HONZG9AqwW41tuus+n/OKr48130EGvoevtBfjcfxpfx86vfyFRftze4oClR/Pkm+que/jDiqxkn58z6yLQt1lI2FvswBWwv/dvqCWfxot8wBZj0n6d7A1o1YJsCbJeRUPpDiALMBQ+xLCK153w1v4nP5Xtav5Wrvg43dB1SxV93or/66Q/wUfwnxOfM+sj0zU8B6dj7KWB76Q/zCDIxD0/qR9k2BZg2fwtZb0B7HsCNFQWU3GFKPP3BF04byqF2RlP24/ynfDD/Gd/fmQY61dcmTKP4a070N0b6A/wFbhKbM+si47c+Bchi36eAbaY/hJFJeWgpwJUGmRZ/C55KewNWPGWB7SpW8lry299/0XL11vbtknfyCXwEb+eE7jTQqb7Sesm0TZSKPzvR3zjpD3f5E0D+nIkjE7bc2LcpYNvpD35kJB4aCpjWFGDSX9kbsOIJx0y4Sclh7eip8KJdcepVSf/38Ha+lvut3zm12JO6A4JU9aXrQOO3EVrF34R7nHCLN0r6A/xR/jqPyZ8zYWTilht7pxQsOdp6+kMfGamHJ8AxE17jlOtEegOGV+crHjMDrtff/rL0Nxd9srrsl53+S76L38Yv5S910h/cN8FtxRQAwm2WVKZT/Jnvulu8kdIfbvBH6p9y54wfmbTlxt5+xq1B0h/ayGg8tMgYLWSwN2Bse67iaf3TqSL9AR7Vz/zzl5r+j/jv+FW8lf8lsiT0pP7pycae7WVWKZFxir+Hb5j0B/ji1Z5K7pzpIyOz3NjPVoq/kwHSHxwyS0X6g83aAvw3/8ZiBFCszpE9VK583171eXtZ1YH/jC/kF/En+LfRVznV1y2VWmx9K5TINBV/JW+U9IcP4vPqn3LnTBcZqeXGvlx1qnCfvF27vTq145ZqnMvaW+ED9sOQFRwzAZ4zA44VFGCXcV5OgfA538iv59fxtzhPvLKp+tKoxTbTrUCDTFPxN+EeB2+Q9Af4Q0D+nOkiI9fD5cXevvaZUimYb3bpLxeZp8CE49CsDS0CFnUvsaecccZrTLlNIbrlaa/iGpYc6kHgZ/jbfAuPPc/7fWuu/l7WS0KSZ8FyjV66zky9pQyZ5vr2ktsc8Y186gau4WrYb+RX8ChzznSRmXBPdJucH3u38n9aLwey1QeB9sq/BpljYMbrLFlykwnH/nUAPwEU3GQEPOUcWPI6d5hyTNrZdvo31zC3a3O+na/iuznktiicfdWXbBqU3FMdnBKyGSfCcHYVf3t8wwCSnxd8J/+EH+XdnPIa1/kQPoRfz2dsoWFLwR/gq/HNGS0yCClgndi7pT+3I7A9CminvwaZY1xvwDPgBmNu+dYCfLdMtoHQs9VN9JKHXALHiWTu7+HaNcxtioHu85f4MH4n30WFrHNeSPWVGqe5WUyZTEP5MhR/P8kf48P4nfxNvoef5xE/y/v5Eb6DP8Yv4W38rxvaBXH22/HPGR0yUj3curF3K//65uI66+/7S5Ex3/5uUfSMp9ienx3rQ1VwjTHwovUMveRhvRYQdtZfwmEueltioB/gS/gw/lyjoj9NATHVV2yc/ZtuRyRs6XAOX/bzgP+CT+cdrbPt3EQ/4B/z6XwKP7rRz/zVHHvnjAYZY2kKWDf27Y2/bVLA2LvxJ0HGpH+7Pcg5z4Ax17sU0AWq4IgR3fQHWPIgSgHhCq7t7JY+53/iU/kcvqaXkHEKSKm+QuPcFLjw/DXP4uEcPv3/N97G3+X1XrzaE/17+A38jY1+7sf3fqNDxlmcAtaPfRyZTVqJ30MZMv3uQOe8AMZca1NAGybbN+zEO8ktBficjRdwPtqwGOgn+JN8HH+efxl4bgtTgET15Ru3rcLPcDiHT/+/wx/k9YCH7Yl+wR/nD21Q3+HrtCBHpm1hCthO7LdHASEP08j4m4MZCjDtf1fWBMk2DDoNfseFKCBdv72pyXLJu/hkPpZv5nm0gstPAVLVV3fcNuu+/eEcPv2/hj/DIuJhd6J/HV+0sdWAT/b+VoZM3/wUsL3Yb4cCqoiHcWTCvQEveIFtAVybg6hgjxFwak8L89qSB1zSdnYoyc97+C/5UH4X/5zbpJV5fQrQqL6a44ZXfQ2f/m/nK0h52J3oX89/vaFP/+BA+9I0Mn7rU8B2Y78NCphFPcxF5pJToGTfUoAjgAkFcC7Qw7XvAoZT/H05/zXvrx2V1G+3KUCr+rLjhld9vYz0/0tIPOzq4f4m/2xDV/Axgd/HkQlbmwK2H/suMtu3XGQuOQNKe/JnCRQUjIXpD+3jsYYU/I65x3Vx+kOTAo7EUwCa02BvgPSHZjiHT/+vFaY/NCf6de5R8mc39HD34cG/hJGJm6OAvUFi30TmhuD161suMjPOgYIJBaXhqpICuBQHs31C3nCKP1O/rVFvWQrIU30N8e1vrcnow6b/l6PxsK2H+z7+zkau4j+M/M2PTNqadwFDxN4hM9QRuLnIzLgACkbNm5WF6qALp0y6GCz9bQAfikMJcLJq05Cr+no2mOrLdsAbOv11Hrb1cH9tI9fxy6J/7SMjMxd73ZzJjf1s8N6AucjMfb0BdU8ut+rX7w2kiWK1MHOsVH1dq3/KVX1dG0gpaM9itqqvIVb+vxzQetjWw/3ERtYB4u1iu8hIzcVeN2dyY+/GDWW5yJTN3oD2iIs9BUj25j9UF7AdW3JGnurrGbpC3qbqa5MFwGGzN3L2pm6Ib/+vgLpOcx093N/fwLWEz7LvIyO1Zuw1cyY39va1ZxuueglbLjJlfdrn0vYGtM2CD4QguWf/YTrnGVtyn4ecoOmCZp//noo0Atbc899TUZ34+uae48xz3TH/8yDf/o94tBYycJsf2sDVjILTt4uMdKJ3Yy+dM7mxt6874eFAvQFzkRnVdQAzllQWkqre/T8UaN2aS39DdM6z9owZduFDEs728o9MJgTNKXCCVCqynrWXcR4x46t469Y+Dey3v/FwPWTgFzZyRX6RdRcZ6UT3xV4yZ3Jj79L/EZsre4tZLjIm/SsuqcARgOkN6LQAYeuu/A9HARZWGQX0V39lEz2k+toeBfRX/t+x5fT/ms7K/3rIPNvIN55v9vTXt2UTPRT71JzJjX07/Tdj8Z2EXGRGXKNYNQGkXbJgnrALrkUo4DaHdB2VUMBmN0bSFODf/ElP9JjqazsU0A3llG8e5Nm/7eF6yGzqnOS2+be30hM9FvvYnMmN/TbSP94bMBeZEdcpqJqrFG0wTNvAghsBCvClvxkXp4DN9waMU0B47zc+0VOqr81TgG/f/7M2+gld6377W1sPmfWtq1QP727HJ3oq9qE5kxv77aQ/5GghzbUfBsaNuUGx6v9ZWxcK0zqw4KbnO9uk/6nX0RgFbOfhIEwB8dKP8ESXqL42dSKQsX76fwu/bWPv7rOvidT85yOzifi2FSjx4pYwBUhi75sz0tiHkNl8+lfkaCHDFDDmJuWq8d/K+ly44AVLDwUcR9IfwhRg/r3pU2QgRAHpyi//RJeqvjZzJiD40/8zN/TefoulP+Qic30ju9/NUx3StW1+CpDGvjtn5LH3I7ONWtgZM3K0kKaBT5cCxtyiYMnzbrmf72bItBAsWiWN5hiQcPqDnwLssUaaOiy59SlAVvjZn+ga1dcmTwVuPvtvO/19z/5dy0HmV28EERcvWWlrnwI0sW/OGU3sfchsqxT+fo8CpMgYCnC0POaYkqqf/iHd0oJnVJQc1xRwK/Htb61LAe5Us21ZmwLkdd/tia5TfW3ibmbU+/b/u1v/9pfV/OuR+Y0buLo5o3rOyCvb2xSgjb2dM1rFXxeZ7Slhlh0K0CBzij0cDCa1Euapb3sytDg35ykVJbeZ1Okvc7SvFNzUIlHIHAXoVF9uomtVX5tY855w9b79rWmR2cSV36fiNkdKYYujAJ3kx1HAWBn7rlJwu0K4JgVokTF3AbdW6f/EX50Q3p6b85hjRrxGAZzyWHHR95jUrLXt9Ad7XPKEe2iVgmZ/4l79LpIpAGykO/Cw6f8OpeJPg8yH8UlrXh3Au5llzRkTe3NYtj72Ez64fhcpMu4QcfMu2xbC2WzS9wZ8RMUhhxyyZMnjUHFSbHtuvkr6c3H6Q1OZNB8g/QEecVb/pFUKPql/GkrxZ61qpP/f3fLG3zv4i8ATlYdyZP74RrZ4/y33V70BdXPGxV6e/tD0UIeMU/ydbT39wWRTXm/Ax5xhlt+D6Z86u8S2A5sqd7+tUnDMgWpcrk1WLSa1qi+7XDmU4s9aUSMz3fqz/9fyFwE42goyH1a39lrXfpKDVW9A3ZxxsdftzjgPtcjYxbW9gebMQWZvQIdMpK1fzPUbHAAXVJTcUTjbXPkfQiNgn/+0SkG3jKPTw23GbnM0SPp/OagEVKBB5is3RPE/XT/haudMM/Y6PZzzMAeZs8FVor5NwZhNuEvJknPgIHxGUdjx6+wDZzzmdZaU3BU665b+htEIuOUfnVLQrf7q9HD+qnWtVcCb+PuDpL/1cPPI/JGNlS29m5w50429NEG6HmqROeHh4CrR/qZgzGz6v14/CAQpIOT2NfawLYVmCgporvwPIRNqr/7KlYLtzR+5Hg5u2+MU17JL4Kv5jA28U9iah33l6uFiyHw6/+2GrvTneZAxZ3yxlySIz0MNMmbE0CrR7qZgzGz6mxWxp5wB+/5HJL/T5pyR85XKy/QZS1NAd+PPhXPTWgBj/c0fGQX0936lFLApMpvwP2y5w2/3rL9cPVwImU/jWzc29X/AO2fiSIdin0qQkIdSZNzK/9AqUSkF2PR/sELGUMDe6nykhvlcPmQPuGiJPE27gTgF+Pb97UVv45hE/95vmgL8pR8SCjAexvomSO1Ttlzz7zvqM1cP50Pm0/gHG1zg/R7vnIlRQCz2sQSJeShBpr3xt00KKD37/hIK6Kc/2Ea/nuP7+g4fMAUueuUuKQoIlf1odmc1Fi79iFNAuPIrRQH2JIRhNwxzLHTSb64erovM2/gH9aFSm7Al3xKYMyEKSMU+lCApD1PI9Pf9t0cBY2LZlNJCPugh84wLYNrdEei6a9P/hefNLQX4nI1V/S03VD7btHjlV5gC4oWfMQoY+gj0fIsd9J2rh2si82l82wbTH36I9/Z+F6MASex9CSLxMIaMP/bbo4BwNoUowFx95Ul/gOecA9P2nVvb2T3GwGVEE+WngFTR73LD9wDpwk8/BaTrvkMU8MZIf8jXw1lkPnej3/4A3+z9bYgCpLHvJojUwxAy4dhvhwLCvQFDFCDRQl4Ak2b8mq5O6/Tvtttumo8Chqn5dyar++5TgEz24aOAN076Q74e7oRHfAr/44bTfxkgAD8FaGLfTBBN7H3IxGO/DQqI9Qb0UYAMGdP505UINQhgwoiC2aqwMnxhbWeHS3+zhimXfbQpQK766lLAGyv9IV8P94l8rZs6G7Lv5OeDf+tSgDb2NkG0se8ik479EJuCTetSgByZ03pRvr7OEnMY05gS2zUsZU1nh/z231ervhwF6FRfTQp446U/5OnhNv3sb+wd0b82KSAn9ke1qEkb+yYystg3s8Kz3bZxa1KADpmzmgLGQDkGCkxvwIV4g8tqot60+tcwN/961ZdVCmpVXyeY6oU31f+6+un/dVmKPzkym135t/ZzfFviFU5dulRMcnBKQdPtIhcZeexdVmweJ5+1lYIaZM7Zo2QELM0jgC79oXnIx3Dpb69Pt63oAq/Vw9nAD6P6Ws/ewZehmeSg08Nt59sfvlJwhr6d2rr0B4uHLv2hiYyO+rd59I3PmnjokLlgbnbmSqCigvouQG62sHC0wUMy42aLibSqL1u6q1N9sXraHUr1lW/vqBV/uudzuR5uO9/+8DpfI3qdnWOlsgzbvT4XmalyzmzqvEipuezTfXJh/TL/qYCCqYIC7LP/kAsf66i+zPaHXPVlPbzAtyl4tcwIfi/Ylh5uW9/+8N+KTleyT7haXUkz9kPOmdj6/WatiYzGw4I9CqCyBLBkAZTsCymgqfgbjgLWUX3dF8uEjNmlv/tKpeDwZk/7uZ+JTEoPt61vf3gvXyl4lVvg0knLurHXImNjr50zM+4P1Buwi4zUw4IDRsCChWkNVgGmPahtGxi35sr/kNsfzd6AetWXXCnY3vjTKAWHN/Pt3/Rws3q47X37w18XvKa5vq1RCvpir0GmGXvNnDH5MERvQB8yEg9t878ZC1q9ARf1QstRggK6G3/DUUC7N6Be9SWlgO7G39WlgO5Zf5vWw72Nv7+19P8XfLNa8SelgFDspch0Yy+dM5tcEI9/XgiZlIcF1yiBC3uyZVOlN+ecA0Zc40Wwdt90B2o76g5KDK9EblYObDd4CK7R+vd+3fGh4UD59v3tpmDMw+HNt++fi4zd+moi82lbu/kH+FD+DwAWwblW1Atc3VeM6l2rsL7E/4qSElhGUtSM677CXEcVOQy2rBfT7Ss2IRkvOAruXPj2/d2mYDj2BdcxpwSt7lHaMt055xwy4jrPvfCa9L/kQQeiFAUcbVwOHJ/o4dKPFAWEyn6aFHA1LFT2k4tMlwI+bYvf/gC3FYtWH4h2yW3wUkCo7MdSwCH+2Juen8u6EKi27jezKQU2bQS7Zr/9u+lvxoUfBDTrk3LLVX3FHgRiVX/uQWCobc+YxQ763oQe7m38/YEOdN2Z356j10La3/p6A9pmf6ftcf0kMGKgMTc7FHAcSX8IU4CZiNvrDahXfYUoIFX0aylg6L3evjWX/ny2rh7u8/m2Xfq/ZPv3LNFrIUMUUNRdvk665X6+Z3MjBx5z3KCA43qRI5T+4KcAMwm3tS6aq/ryUYCk5t/8dTO9AfNN0uZjHT3cJ29c8bczvb27fhTTaiHtYSDN3oA2/V9w0X25f3HOHAjiKOBW4tvfWpcCbPpv/kAQa7mqry4FSCU/L18VkPr2t5aLzCfxjl36XwH76dVSu1YLaSnA9gY0Df686R9enTcUYPqK3Qos/fmsSQEu/be5cp6r+mpSgEbxdxI9L2HbpmnylYPMNjf+dqaxH4MWBWgUf+4u4NYq/Z/5lb7h1flz4CYT7tZlAw+FO5xuR8Bsumx/4yxX9eWUgiWa73YPjw5k7xB++1vTIvO2jR71ubN8O+MnAJdNWi3kkgfcYcJhTeeB9I/vz5tjwQs06W8vejlY+kO+6suNe/m39mnTpj/okNnsSb87W8d+cLVYZ+8CtFpI2xWgwB4L7rVUvVGeaTVU61qu6svZ0FesN6v405kcmd3G31Wy7/T8TquFNFZAbFxs2pvegAtgwh1Fgthn/6E0ArmqL7u8Mker+hrezNLfnG3p4d622/i7UvY/r36yz/6+TcGY2X6ec9bqDTjjdZ6goQC39DeMRiBX9eVW/t+rVApu+lS8tNmqv/dvSQ+33aLfnWntJ/nx+qem4k9DASV3mQJPeBingNCUN70BZzxiySlPgCl3BQnSXPkfQiaUq/pqb/xplIJHsWbLWzG38r8dPdzu5v+q2TfU/22u/Hc3BWNm2/c85pQlj5iR1RtwzuN6//6Ux9imQzHrbvw5CthO8Uyu6qu/7y+lgO2UNcesve+/eT3c7ub/qtl5TQDdjT8pBdj0f1RvWFsKUPYGdOkPcFoXicYowLfvbylgG70BQ4q/NAX49v0lFGDeNawK27z1JT8SCpAjs7v5v3r2P/EAf9mPhAKa3/7WKh4zR9UbcM7TTvVe6i4gVPZjLnrzdwAxxV+cAkJlPykKsN1aJcdYbcb8ZT8pCpAjs7v5v3o2468QrvpLUYCN/eNO7B0FiHoDznnmKd49iVBArOpvtoVSYIniz08Bsaq/GAW4Zs3bKmvuWrjoN0YBcmR2N/9X0b6Wd0er/mIUEEp/gIqnzBH1BlwETgOwFDDtJUiq6He2YTGQVPHXp4BU0W+IArq92rdv8TYfIQqQI/M5u5v/K2iP+K+SRb8hCoilP0DFs3rLO9gbcAIsIucBubuAZoJIav43+a2pUfy1KUBS8++jgOHTP13z76MAOTKfzDfuvv2voP0pnglq/n0UIIl9xfO6rifQGxCWnCSStXtK2jCSH6DmLa3iz1GAVPLTpYCX8e0vKfrtUoAcmV+3U/xdSftf+Uah5KdLAdLYV7xgiac34IgSWHAq+K5uUsBw6Q/XOMpS/Jlr1Cj+mhTQTf89fkfm9UtN3uOvSQEaxd/2TvrdWb69nz/MXXHNf5MCNFlRccICGDEGCrM9N6qlO5fCW/UTzPlxH8SY4SQ/cJs5Y3L0cHv1eShSyY9VChoPm+n/rXya9rJVpmnx2eycJ0Vm22f97SzPZnwxlUry45SCuqyoOGMPKBnb3oDm19L0B5tKw6b/vP7EHD2cLv3b49rp/1sV76E3bYtPh78MmbfuNv6uqP0Zfkit+LMzU5sVFRc21x0BLDMX6haDFsYMaV3d//bT/2v5Msyd2HbsbXz7Lv2vpP153pk1Ljf7Krue5QhgpBIb2mf/IXV0Y/R6uKbiT1fG2/Vw++lvVv616gn76jQyu2f/q2pfztfXir+82GuVgrBnz7Y2qbtgCYzEOje39KfrnrauafVwXcWfnALs0p9VCv5i/t7W09+s/OsEVG75J4XMLv2vpi35k7y9ofjLib1OKQj79cP73LYHtxQwFk2R5sq/pnvauvZCqYfzKf5kFNBc+X/ECVO+ns9Y48rT5k770Wgom6u/cWR26X817Tmfzzs7ij997DVKQTio633m0FwEnNUlAqlnxO7G33AUYE41k1OAX/GXpoDuxt8JX8Vbsq9aYu3DvqTToLv5E0Zml/5X036MT+D/9Cj+9LGXU8Bh/cA4s2/k7LKuFY7p3c1Rw+21SgkFbFIMJKOAsOIvTgH9ff9v5a3rXnLU+mf9SaaBb+/Xj8wu/a+iLfgbfCKPA4o/fexlFHDIFJi5Be52yl7UFBB6C1/6Q5oCJhuWA6cpIK74C1OAL/2HefZvb+KkpkGo9KOPzNt2Nf9X0H6Qj+VPcSOi+NPH3s7a40j+mmN+GicEdxP2jEsCRwcE0x/iFDDZwoEgcQpIK/78FHBV0h/i0yBW+dVGZnfQ99Wzn+Tz+Hh+NKn408c+TgHmkL/L9gnB/XS1FNA9QOiwTv8HgUKFEAWY32xeQhumAJnir08BVyn9ITwNUoWfDpnP2qX/lbIl38Xn8BF8C2OR4k8f+zAF3GAP2/mz9YZ9O+UC2GsdI3hYL/2F0h/8FGCljdvoDeinALnir00BVy39wT8NJHXfBplP5l279L8iVvGj/Dl+JW/lW1kmBb+QH3vbwO+4tZZ3g33goj/O/2x+QsE++8AzIP3t78a1e8w7R7dziIarhLed1OWKP6MRoH7lVUx/aPZZMpNFKvtY8lE7xd9Lt4r7/BQ/wj/nx3nAjPuAvMdfbuxnPOAuJbeh/r6/yT5V3e6vY6HFuRcUHHBAwVMOuYUk/aFNASNFN7Nca1OATvHnKOCqpj+0p8FCofj7e1tN//v8J57pZE6eXfCYEbcoqHgiuvcz4yqesOCYEfA81MqqZWNuUQDPuajHnYsObCsan2KejBetEzDDZl59zvOGr75xl5zzOu9bxekoKyvyYu8o4Bg45SYHVCFkwqvzz2sKMPWBttFQ2hwFjLae/tCkALPGqVX8HTGu10avYvpDcxoshFPgrVt+9r/PW+redV2zVKqNva0ukXpozT5wzpVyL9cypR37tJkvGe243KzQx96Oe8BdCm7VZT9n9b18z2LFO884w7QVkqc/uLWAIdIf3FqALv3Bwjl0+n+duseffR6Upv92z/p7H78pkP75sTfjpB46a+rhNLFvzhndUS++OSOxXGR0sW+OM2sBe0TSP9Ub0F7mpTKNL2tghlIKOv2ctnOvff3lgN/+OYo/i2R63PbT/y38VOTvubE/qx8WcpHRxt59zokijZufc6kcl4uMPPZtM+U+FcTGxQhgf7UPsM+x4oPtIsdwMiFzW6bXRDnFn/lpqJt/SBd7Ns2pvlLjXnb658a+5F79OJqHDOSpRAFurTVnpLYOMrLYd+14NRNuhudE+EJM+i95nTPsPoDE3BrnUBoBp/jTKQXbir8jbvPxWz7txz77m9vdPNVXbNy2D/qWpr829s7DPGROeJ+S/s0rZxuYMzJbHxltmz3j0ykPqbDbgN4P8JupBTRNhZ5witTZ5hbHMDIht/KvUwp2FX9wxI/ye7ZSsWDMLf2dKCZ6X/UVGrftpT95+uti3/QwB5kTHin1cDb97zNfe85sMyvkse/abQ6BU55g+nsGKcB/ETb9H9fpYCjgMOlsd4fTObsta2/8ySmgu/Fnw/ndW6OA9sq/dKL7VV++cdu++X8/bxanP8hVol0PtcjY2MspwKX/kk3Mmfys0CEjpwCT/uYIf1YUcM133ofvEowYqL2Ha5oNxCnAV+BgndU8u8itv+8vC6fvoO/tUkB/408y0cOqr+64baf/A353Xcbit1jsYxPd56EGmWbsZRTQTn/YxJzJzQotMjIKsN/+j1e/mfM4RAH9CzByYNtIyNnjxF1AqL7JOLuN7sD+sp90OEPn/G+PAvz7/qmJHld9Ncdtf+nvs/jpyESPxz480UMeSpHpxj5NAf30h03MmaGQSVOATf82MnOeUAFH3YP/uh9vDgTppz/AowgFxMobdXvzUgtX/cXDGWvzsR0KCJf9xCZ6WvVlX7H99H8zPxCZ6OnY+yd6zEMJMr7YxynAn/6wiTkzFDJxCrBLf31k5jxlSVUfCNL4qKaZI8EqngV2Kh8FlgNT1c0nG7+pjhf9hsOZ6vKzeQqIV/2FJrpM9VVyj08fIP3/JeGJno69f6KnPEwhE4p9mALC6Q+bmDNDIROmgHD6g2v5e9Ac1/xom/4vIoUKPgqQiBt0JRMpS9f8+8MpafK1WQpIF/36JrpM9XWfJb+JvzdI+oN/okti75voEg9jyMRi76eAePrDJubMUMj4KSCdFbbt776TALgPHjHBNQ4KW9dZqbZpfbMXLZP89MMp7fG3OQqQ1fx3J7pc9fWRW1b8NdMf8mPfnehSD0PIpGLfp4B0+sMm5sxQyPQpQJYVtvVv61jwAtMmCCpOBWWKTWeHS3+4wQRNj792ODUtPjdDAXLJT3Oiy/u8vZVvHTT9IT/2zYmu6WTnQ0YS+zYFyNIfNjFnhkKmTQHyrLD9P6eMgKKooKCs/3chvlU3H3jGntDRH+ZjhO8cti/m27nggBzV14l4Clizqq/fwX+fdaKhTvGn18MNsfTXTX9j2thbs+mEeJI3x1lk5LG336ta5d66c2Y4ZCzR6LNin4oFC6rmGoA8/e1FHgz27Q+mGlrnqGN0bSid6ut/4Usy7gL0ij+dHm7b6f/eYPrnx75ZE5KLjCb2Nt5a5d66c2Y4ZOxdgD4rzqmAot0bULdQZ48XuBgo/VmloeTIB2fLFaC5qq9vVT8IfB1fBszbxy8mTa6H2376vyWY/pAfe+thLjLa2Lvjr3Wxz58zQyPjPNRmRe1Xc/VR0xvQlfceqDRR65i9Pp0m6ohb9U85qi+AA+VagBH8Uh/8KDW5Hu5lp39u7J2HuchoY397hZM29reyxg2NTNNDHTJT+ynmP6YzsLw3oH32eJ+gFHKTZlRfGk2UU2/lqL6ch3IKaD77b0MPdxXSPyf2bQ/1yGhkQsbaS385ij/dnBkaGbf0p82K/XrHb2F7A1bMqYCJaFW5ucap0USta+c8Il4H1TW3ipuj+mp7KKMAl/4aCpDr4a5K+mtj3/dQh8xJjamcAlz6X6goIHfODI1Mc+VflxUHdfrPqNq9AQ0FpKZXd4tjOAowh1DKnW1v4mhVX30P0xTQXvmXUoBcD7d9xZ88/UEee7+HcmTsApecAtrf/vK7gNw5MzQy3Y0/eVaYUuDVOpP7mIoLFqR6A06421vjHPIuAKTO9vdwNaovv4dxCuhv/EkoQK6H23b63+d3857I332725LYhz2UIdNc35ZRQH/fX0YBuXNmaGR8+/7SrDBnfJ7bs4ybH1JxzpJYb0Bf+kPa2VK1QJG2tLP+Eg6p6ivsYZgC/Bt/KQqQ6+G2v+//O/npCDKh4pZ07GMeppHpbm+lKcBf9pOmgNw5MzQyobKfdFZcq0/4PnVHmbc/wlYC+nsDhtIf4s6WbL43YNzZcAWXRPUV99BPAWbjz7eHG6MAuR5uiH3/748gE6ttS8U+7mEcGd/udpwCwlV/cQrInTNDIxOr+jNXX3DXi8x19oAFJ81OBt0PsFqAfm9Am/6h9iAhZzWrkxoLU0C8gDOl+gqXcIQpIJz+btw6erjfMsjSXxiZVGlrKvZxD8PIhIpbwhQQL/oNU0DunBkamVTRr82KPgWY3oDzWgvQuJCuWTVguzdgKv3B76x1dBvHbPkpIF2/HVN9xSu4/BQQT383LlcP9yn8/YFW/v3ISCrbY7FPe+hHJlbb5qeAdM2/nwJy58zQyEhq/k0/gC4FmBMB57UasHUpfbPnAbhjwSfcSaY/9J11jurqqaTWpwCZfCOk+koXcPYpIJ3+blyOHu6j+LqtSn7aG399ZKTClnDsUx769XCp0tY+BcgkP30KyJ0zQyMjlfz0KcAcC76ozwNomX+ZoeIpC+CAm8CE10TpD21nNdqmXGtTgFy95VN9yeq32xQgS383Tqv6eivvGjD9oYuMRteWG3ufHk5S2d6mALnir00BuXNmaGQ0ij9LAXeYYNPfHgrWsSLYEbHgmAkFF+xRUimag9kLnTYc3YQa8PP4Fu/vbShecIN81ZdGvmFVX7+On0BDcHaSSlVfL6vsxyLzjGviSW7MF3uJtfVwcmGLpW6jh5PH3iaVVvH38pC5FKe/sQl3KVjUWsjLUPPT8F5jxWNmUEsbNb0BLd9t+9vfmr0L0KV/W/WlU29Z1Zcu/d1dwNVOf4fGDeUkz499Uw+n0bXZuwBd+rvX6tL/ZSKjS393F7APzMK9j2PFBtWqAbS2N+CTGtCLAdIfYLa60seq1Qan+nqh9NCpvnQeWmTSqq+XW/S7XB0qrUUmN/ZOC/lENe5kpYfTxd7NGa1ScGhkrIdaZIxS0LRPD97oxwhgzM36J11vwHK1bLE3UHXg0Wq58o5qy9Gpvm6I6r2tOdWXzkOHTEr19fJr/u/UP+mQyY19Wwup08NZCZs29nbOaBV/wyLjPNQic9zQQgaPtAm/4ZhblJjmYJregO1FjiEKhJvLOHqloK6hGLjnR62HbWRilV4vP/2bC1xyZHJj31760+vhZjyBjNjrlYJDI9Ne+stB5iEVJcchCgi93Zibdfpf8nr9pKzVNg1DAS6UFxlKwWU9Th7OZvrnqr7iFHB10l+HTG7s+4o/nR5uxn2eJwuEm9adM3rF3zDINNNfi8whMON1LnnEkjJ0F+B/sxE3KLC9AZc1BaR7A3a3OLZPAW0m1yoFLZNrVV96D/3I+MI5RINv+be/HJnc2PsVf3I9nI29XCnomzN6xd/2kelu/GmQOQQueVh7aCjgpo8CfG9l0r/ZG3DJQy5JUYBvh9M6m3OsZtr6e7gapWBzFVej+vJ7mIdMN5zbV/z9Lv5t5O/93W0ZMrHYS5DpK/5kerhm7GUUEJozesXfdpHx7ftLkTHf/g9XHpregAXX7WHgzcvr2ohrFL3mYHYjMEwBoQIH82/N4oXU/CUcUqVgdxNHqvoKeahXffUpYPvf/p/Hz0SQ8Re3pJGJe5hGxq/4S+vhurFPU0BszugVf9tDJlT2I0HGpP+DloemDKjsU0D3bUYcedIfWFUC+ikgVt+0nVqAcAWXRCno28OVqL5iHupVX20KGEbxF0YmXNsWRybtYRyZsOIvrofzxT5OAak5o1f8bQeZWNWfDJkHPQ9Nb8CSa20K6KqwDimCvQEtBei1TZvXAsQLOFNKwVAJR0r1lVL85SBjKeBtgyz9hZGJl7aGkZF5GEYmrvgL6+FCsQ9TgGTO6BV/m0cmVfSbRqaf/mB6Ay4pOGxSQPMtyrozcLg3oJ8CJNXNm1UDpuu3Y0rBWAVXTPUlUfzpkTF/e8tgK/9+ZNKV7X5k5B76kUkr/vx6uFjs/RQgnTN6xd9mkZHU/MeR8ac/2N6ABQdunHuDgj2KZG/AJQ+4bF30EJIf+0nGZPKNkFIwVcAZUn1JFX96ZB7x6wdV/PWRkQlb+sjIPfQjI1P89fVwqdj3KUAzZ/SKv80hI5X85CJjegMW7NtxdnjBFFlvwPZdwHDpb+qvNeotn1JQUr/tU31pFH9aZN7C3x5Y8ddGRq5rayOjib0PGbnir62Hk8S+TQHaOaNX/G0GGY3iLxcZ0xuwYEoBFKMvNb0BxxQU9ZmAKas45YARU8Z1w860o1/EhwjeOW7fwXsoOEYu31hyziElh5TcQi75sR4eUHAsTn+AM8ZMVci8mX8YPYZ1XfOX/ThklrXYW4tMxbGK+rvISIUtMxb1J07Fk9yNK1ax182ZYhX7IZE5EKc/5CNTMWdMRUlFYe4AzIl98t6ATkc31Le/sYkqlOC+626gU/w1VV85ij8pMi8n/cEhc1sxycEhc0sd+yYyesXfRDXJ3Ti9StS+Vqv4Wx8ZTfpDPjJLzgEom2sAc9VK/ZKH9U9DKf6oL5pGgYPEnOrriTiU0FR9nSg9lKu+Xl76g62gBz0yNva5yMwVk9x8jlX86WLvrk+rFHxS/6RT/OUj82jVG3AYZJZ2Wd4RwLhfJRSxcqWJGkrxx+o5+Y6qrKip+gqVh/jMqb6ORPXe1uSqr5eb/vZ+CrTIlGsjM1bOmabiTxd7e306peAkUyWaiwzcXvUGHAaZsa3NNYMMd0zFBbt2keNJoC5gW2aYWaOJskt/jxLVgV2zn/FEWO9tTa76evnpbxa4tMi0Y69H5kRUBtu0puJPH3u9UrCJTI6HWmTc0t9QyExq2lgaAjC9AQH2RCC5Sf58tRYwBAXMV6ovqbNu5f9ELBOC5sr/c0JlHj6Tq762n/5vFkp+dMj0Y69D5oRHwkp4a13Fny72eqVgFxl97HXINFf+h0HGdgCdsXS9ASsugaLuGxoze9qoudjlgBTwDKf6kjjb3viTKwXbG3/bUH0Nkf7/KvL39vaWHJm2h3pk7AKXVg/XVvzJY69XCvqQ0cdec15Ae+Nv+8hM63K/S3NKkHt5xQUVcMg0MrzkLlOaa5zDUUBb9ZVytr/vL5vo/X3/Tau+tp3+9/ld/Ezk7/3dbRkyfQ91yDTXtzV6uL7iTxZ7vVIwhIw+9lIK6O/7bxcZ0/mzchv+zRcv63PqwhTQ/vZ349IUsFk5cNpZf9lPeqL7y342qfradvq/j8/n3UkP9cj4PZQj093ekurh/Iq/dOz1SsEYMvrYSyjAX/azLjJ3g8jscQRUnLlx7ZfatoHXVmuLTfOnvxkXp4DbqhVKicWnQbjqLz7Rw1V/m1J9bf/m/zfxQ4Qneri2LY5M2EMZMr7dbYkeLqz4i8derxRMIaOPfYoCwlV/6yLjp4B9rtGr9u2+0LYOvNYrTrXp/9i7wxmjAM16qNzC0yBe9JvSw4VKODah+hrm2T880eOlrWFk4h6mkQkVt6T0cHHFXzj2eqWgBBl97GMUEC/6XReZPgXY9O9I/fpMsajbB7YpwHYZ8ac/hCnAXLCmSEFq/mmQrvmP6eFiFVzrqr7eOtjSn3+ipyvb/cikPYwjE6tti+nh0oo/f+z1SkEpMvrYhyggXfOfj8xj+hSwX9fCPu9qfXy3CraH2I0VBZTcYUos/cFPAdbRbTQH9U0DmeQnpIdLFXCuo/r6aL5+wJX//kSXCVv6yMg8DCOTKm0N6eFkir9+7PVKQQ0y+tj7KEAm+clHxlCAKw0yLf6qfvqHjuqyFGC6ipW8lvj2t9alALm2Kdfa00Cu+PPp4ST127mqrzfzTVs/7ae98dee6HJdWxsZuYd+ZCSx9+nh5Iq/duz1SkEtMvrYdylAnhX5yDwGpjUFmPRfek75AkZfGrroGXuU7FNxkwkFjzlNXnBbKdjUNm1CDfgt/KTnt04TZZSCUvlGVw8nlW/kqL5ezr6/08PpFH8Omcv6wS8XGSn1d/VwOsWfi71eKZiDTKFW/DlkFlxXfSmuh0zJHkV98//Efxcebg4KY44ZAQUFT0Tpb6x5e2Ud3WZz0OZtkq5fW/MGUqPeanqYHvepfNtW0/8X+M3Bsp+XiYzuzs/dImt0bU0Pc8e9UZE55JgKWLLkUeghPLY9N+dp/dOpIv0NoHmqr1xz2itNE9Om6uuZIpQ61ddnb/nbP5b+cMKz+ied4m+28jAXmQtl7B+tegNqJnk79rpx6yKjU/w5v4ZCxmVt4Nsf4gRQcK3+76FyCt8iT/WVa057dayqOHCqr2vJItGmyVVff4Rv8dZUbMri6Q+TOoZ6xZ9tBZeLzJ5y8/f2qjfgLdW4puJPF/t1kdEq/mxWDIXMYV31B9frEz88FoasqJ9yXrAEjhUUYBc5hikQdkt/z9BqosxrnwnKYJsmVX0d8vV8pUpkrbV0+psFrmfo9HD2tbnInIgr4a3ZBa5UDVzXmoo/fezXQyZP8TcsMkteABOOQxQQAqyoe4k95QWvq5x1a5zDaATcyv9TsSACmiv/T8ViGJCrvj6G/4vfL/Yix6Tpb5HRe5iHjIu9bs7MuK8Qw0Bz5V+rh9sMMvlZsX1kzIL46zznKREK8MNVcJMR8JQzYFZTwLHgoptbHEPIhNobf3JNVHvjb9N6uOv8NX6AX5PlkdTk6e+Q0XuoR6Yde7kezi5wySe6T/Enj/1mkNEr/oZBxqS/WRE74ymm27eHAnxgFdxgBDxbHcJl+4ylKKC7w+koYJu9AZuruLJp0N/335websIX8S/5k1vy2Nr7+Xz+TeTv/d1t2UTve6hDph97mR6uub4tm+ghxZ8s9ptDRq/42z4yJv0frDw0FGB6fvbc6lpRNw96sUp/ANtuIEYBvgIH6+ymxUAQKvtJTwN/2c8m9HDX+WP8G96+gZqHuL2Xz+Pnkh76kdF7KEfGH/u0Hq67vZWe6DHFXzr2m0VGr/jbLjLd9Ac45xkw7i8HdoEqOPKkP6QpIFTfpNtllVu46i8+DcJVf+vo4So+iXfw7/nr/AdZ3mjsF3gzP07KwzAyeg9lyIRjH9fD+Xa34xM9pfgbGhm94m+7yHTTH+CcF8CYa20KaMNk+4a5s0abZilAq20yCbJZixf9hqdBvOhXr4cb8xF8Ed/Ev+Cb+F2rjaVt2i/wZv5VfR1hD+PI6BV/aWTCsQ9N9Hhpa3iiSxR/QyOTlxXbQabypD8YCqjq9r8ra1YCFuwzpuSMS89wYxPuMqILRrq6eROVgH+HH6t/sscaxdqYmdcsa22jMet8zEPbH7n53gXXKBvjphzwGh/ML+VXbXWXv2+/wJtXz/6+aSKpbPeRp6Sy3ffekpp//3tLKtt980pS8+97zfaR0WfFNpCJezjlkGXdHQhoEkDBHmMKzhM37H1nJeKGTRDAzv49b2mt/HenilTY0p0qUmFL9/2lkp/++0uFLd25JZX8dF83DDLarNg8MmkPp+xTMee8eybghAKS6d+/5dm+4m9nxrrpb6eNnXxyXVv7dleua/MrBdOx9+vhJJXt7dtdreJvaGT0WbFZZCQeXnIGlPbYv6IyjcFGjCiZCXX7ju/2hI7u7gDWtX/Pm/nXnt/bKfOYO8JJbsxOmYfKTnY2mR4qFX8umfbEk9yYTaYLcfobs3QxLDKarDC2KWTkHk6YsmTOnMIQQElJyTzZGbj5Fm6RReLojgDWs1D6Q3MZSbfj0lxG0ujatLG31lxg0+na1lcKvvGR0Xk4ZsKCRl8AWCjS31ymMa22aWd6i6U/PKpPc9ZqIU8ytZBOD3emin1TJarTtT2qd6X0SkGr+BsKmbysWB8ZlJvtc/tqRwAjZbHO9fq/Wm3TzrQWT3/X6EmrhSxXkdMq/qweTtZJyplTiepORzqqPdTq4Zzibxhk8rNiXWTcJ8usbPcGNFsBewqQzK3Hmbgaeme5lk5/80x+hn/3O2RuCS9PD3cmKBBum12tkJTBNs0+y2vEMNBW/A2BTH5WrIeMib0GmbI+7XNpCKDCNgs+EIJkFx8eKjVRO9OaNP3v8zBYGuQzt/D0KEsPZ2MvTxC3vq3Tw7mVf50erqv42zYy+VmxHjIu9lJkRhxSADOWVBYS2xvwUKBfb25xaDRRO9OaPP1ndDcFY9be3tLr4ZqxlyVIc3tLo4drb/zJKcCn+NsmMvlZsR4y7dhLkDHpb3sDVg4Q0xvQagFSF+zWOHcUsC17P5+tSH+QUkB/d1unh+vGPp0g3d1t6UTv7/vLJnpI8bctZPKzYj1k+rFPITPiGkW8N6BVA4Yu+JDuFofE2W2oAd/Y9j4+n/dGwukvbklTgL+4Ra6H88U+niC+4hbJRPeX/aQnekzxtw1k/GU/cqVgLjL+2MeQGXGdIt0b0J4H4LvgfvpD2tltnQfwxrWf51P4McLhDNe2xSkgXNsm08OFYh9OkFBtW2qih6v+4hM9pfjbNDLhqj+ZUjAXmXDsDwPIjLlJKesNWHDTk7Im/U+9O5wxZ4c4F/CNZT/Pm/nXkYkeL20NU0C8tDWth/MXt8QoIFbaGpvo8aLfXGTCFJCLTLzoN60UzEUmHnsfBYy5ScFS2huwTwHHkfSHsLNWorgzqb2HN/PTQGiipyvb/RSQrmz3T/R0zX+IAlKV7aGJnq75z0XGTwG5yKRr/kNZsR4y8dif0qcAcyCYpzmY72bINAazx4IaM8eAhNMf/M7aUGqqlD6w7d38pjr9wTfRZcKWPgXIhC1uonfHxUtbfRQgEbb4JrpM8pOLTJ8CtMh0PZQg0/ZwPWTSsTcUcLz6zZhjSiqe6XoDlhzXFHAr8e1vreusC+XOZPaTfDI/0/pNe6LLdW1tCpDr2toUIFf8dSlAqmvrTnS54i8XmTYF5CDT9FCKjF7x50dGFvtT7OFgMOE2JVm9AUcccMkNDik45XHiY8042z1twbQRyk30Bnzj2/fyaby/91vXH24unuRu3IgDzrmr0LW5jnt2nEzY4noKnnNLOMmh3TlvKk5/yEem76EGmaLhoQaZotEbMBcZTewnTBixqNN/jd6AJXAmSn9jzdsr6+hODZi2d/L7vUexQb7qq3kDqdG1NW+tNbo2X+wlNrweLlfx9zKR0Xl4zOG6vQFt0p8r0r/pnlbb9IFrS/48vyeY/k3Fn0715ab2E5WuzenhdEe9uMc9XRovuV9PUb0eLg8Z56EWGYuHTgvpkNF56JDRHq/7eIXM47zegKzagU2VmqgpedqmD1R7nd/GV0R3SibZqq/65BeOVMVYTg83VY1z1zdSNkU7qNebtHMmHxnroQ4ZVp+n1ULa69N6aJFxsZSZQybS1i/m+g0OgAuWlHWfeJnZZZxdgbDMvo+P5juir2gq/nSqL3P7eEG8Bm5T49wCl1Yp2Nwt0syZdZHRCKiMmau7IFQXEB+nzwq79KdH5u4KmQNuhF4Wdvw6+5hn/9dZUtaLJdILNtqmHQWkbM5f4FP4uehruoo/6UR369v3s5SCJ9xX6ejaujYNBTTnjGair4/MoywPLTJ5WkhNVriVfy0yJv1frx8EghQQ2gW4xj5F3U9kyQUHjDh0EoLEBVttk1v7/AO7XQCP/QSfxzcmiqTa21tu3fssOqq7veV2BE4Tn9dV/Nn18tS4rq7N7Qho5kxz3Tv1vLsZZPQeNpEpRB72kSlEHjY3/nTImPQ35yBdMGLMmNJ3GL6f98w5I+erA5VMb8D0XUB3D9ftgO7EQF074S/xmfxsgtFDir/Ud11/d1unFHRLXVIpbXd3W6oU7M4ZqR5uc8joPOwio9dCSpWC3X1/OTIm/V17ENPkd8/XuMZ3B3DIPgWXPG/8TsLovhIOy3e/lw+KXvQHllW8i9/Ot9eVFmFG9xe3pL/r/MUt6buAkOIv/R3p17XlzRnJd91mkZF76EMmfhcQRiZ+F+Ar+5Eh001/MHcB9uTvlvU574ApcNFKfwDTGCx8FxCq4NJtB30g2P/BJ/C7eU+S0VOKv7Ae7oMDxS0ypWB/4y/1HRmqbUvdBYTmzLaQSSn+Uh6GkNFrIdP6WX/ZjxSZfnOwZ1wAe90dga67Nv1feN7cUoDP2VgB54zN9wZ8Ve37eRufwg/U/4qFU6L4C+vhQsUtaaWgf98/liCx0tYYBcTmzDaQkSj+Yh7GkNFrIdP6Wb+HEmT8vQGfc45tmbeytrN7jIHLYGFEiAJS9dvShiNvZFvyD3krn8g/7vzWH06p4s+vh4vVtsWVguGyn1CCpCrbQxSQmjObRkaq+At5mEJGr4WM62fDHqaQ8ae/uVKzsbvvftV0dVqn/2lguLnoPgVI5Bsf2HcAj/lKfg2fyXd5/uYLp0bx19fDpUpbw0rBeNWfL0EkwhYfBUjmzCaR0Sj+fB5KkNFrIcP62biH+ciccEmzRKjh6IQRMEtuonTDKVdvfSDanH/CF/Ih/FH+ZfA13XBqFX9tPZykst2vFEwX/XYTRKpry50zm0JGq/jreihFRq+F9Otn0x7mI3PKDNMZCLC9AStGjClZRqrRm+Y+Tqre+sATA53yA3wn/5CfEhGjm6KXKl2bm6LPxenfHDfjYV3lKa35d8mrUfzlzBlj6yPzRJz+xroe6pBZcl+l+GsSNyrFXz4y+4xYMGdO2ewNuBQOdxe9pETm6AcOAVzyU/wQ38P3c6G6L7LhXKpCCfmKv+Y4jeTHTnRp7K1p54y1dZFZqogR2h7qkTGmR8aYxsN8ZKaULFmydARQKRfq7EXLHH2jE8AT/hU/xo/yL/jhWpuufyxy4dSpvuBOvbKrmeTgKEDb3N1OdK2HujnjLB8Z66EWGevh0MhoPcxHZkLBkqU79KukUC3VWZXYiJHA1e9anXMzXmmaLlWUU7JHAcDcV9IYtGLV8kw3zi6KmlLoNjIXXHDJC17ndR7w7/jZlbQUnLpMhowzq58rmaqCOWno0zTT3KnLzPeB3PbSL/Gabs44y0XGeahDxnmYi4zWQ4uM1sNcZApKM6ebjwDU3UIkZp+TRsqbD3tzhfK2zDLknDEaXna6tj3VOKf62kPH57nI2Bvkhep51SGj9dAiYxDVeGiQ0Y8bGpnhY99EZris0CNTsAcsWVCNvhQKlpjuwGNhi3C3THImlny4cUvucyIWREBzmeQJB4xEkg9oLpM8EUtFjNkFpIcKqQjkI+OWyF6IJR9unN5Dt/L/QCwTMubWt+dXGpnhY99GRiYTgnWzQo9MwUH9yL9wWoAKczsxEdyW9xV/GtWXYUaNJqq5vWWroXP1cLJp0Fd9yaZBLjLNTRy9Hk7vYXvjT64UbG9vXWVkho99HxkZBayXFXpkCo4oqbg0X/ZODFQBY0omibfoq7dk4exrm2TOdne3pRTQ3/uVToPu3q90GuQi093DlYazv+8v87C/7y+lgL6u7WoiM3zs/cikKWC9rNAjU3CNEji39/pNNeCSJRNGUQo44pii81wkV321n4skzvqKWyQUENPDxadBWPUVnwZhLWQcGV8Jh1wPp/fQX/YjoQBfcctVRGb42IeRiVPAelmhR6bgOiMqzt19flsOvKRiQsk0sF5uTho35cDtcfFwhrVNcWdDtW0pCghXfqWmQbjPW3wahHVtcWRCFVypcIar/uIehqv+UhQQ1rVdLWSGj30cmTAFrJcVYWT2A+Nsz8/T5l+75wEYChh5KSCU/u6i/eGMa5vCzsZKW2MUEC/8jE2DeJ+38DSI69rCyMQKOGMTPV70G/YwXvQbo4C4ru3qIDN87NPI+ClgvayIIVN6x5lmf1U7/X0HgixYMmXEtFMWfFiH0pf+7qL74Uxrm/zOpirbQxSQrvsOTYN0nzf/NEjr2vzIpOq3QxM9XfPv9zBd8x+igLSu7WogM3zsZcj0KWC9rIgjs+9Bpqh7fJx0v9h9JwJZCtjnfPW7VPq7i26HU6Zt6jsrEbb4KEAm+/BNA1mft/40kOna+shI5Bu+iS6T/PQ9lEl+fBQg07W9fGSGj70cmWKDWZFC5qymgPnqVQXHjKl40df6+A8FXbBkjxF7NQUc1kt/sfR3F+3CKdc2tZ2V6tq6FCBXfXWngbzPW3sayHVtbWSk6q3uRJcr/toeyhV/XQqQ69peLjLDx16HTLGhrJAg06aAkttMgOc+qV/oVGBHARcccIsCczBoyprhPFBom5rOotC1NSngQqX6ak4D6RSA9jQ4FE5yaCMzUqi3mhNdgwycsc+4hYzMwyYFHCt0bS8TmcXgsdcjU2wgK6TIGArYZ8GiTv9njfv5hsV6A+5zk4IFYwrmovQ31lR96Us+9eqtpiYqRw+nLS+2HK4vhrXIoCyGzfWwPU5fDKtX7r0sZMwnDhf7XGTWywodMneYUDGnxJ4L7LHQHQDAnCX7lJTMeF3sqGN0rUbJ8l2BLpT2m0A7zn4TaJPDMrpe12aRKZTI5HrYHKfz0CBToPXwZSGjpf51Y5+LTEF+VmiROauztwqnf6o3YK5Nt/S+acvVqV1103ba29n27GXNMW1vQJHF7gDsI8CIEfucKZWCSypBsWfT3M2OXBABzdvAUiH5AHcbqB1nb3RLhVQE3I1uLjLzwB5vyNwjQJGFzJJC6eHQyDRjr0EmP/ZuXA4ySwqFTAiayGiz4k6NTME+i5DGJ0wA+9ygYM4j5vWCgowC2tomreoLHvFMpYlqqr40SkG3+vtAqRZz69s6PZxbxc1F5kmy2LNpbuX/YRYyM97PSKUUHBqZbuzlCZIb+/W0kEvucxmtDuxaGxlNVtxlCjzhGXuU7IUoIEQAe1ynYM5jqsbaZ5oC+tomjerLPMdpNFHNzR+NUrC9+aNRizW3tzRqseYmTi4yOXq4Ex5lIWM81CgFh0bGF3tZguTGfj0tpPFQoxTsIyPNCtO+5zGnVJwzDVOAnwD2uEbBgse1azMWHAruAvzaJqnqyy3jSJ3t7v3KJ3p380c6DfrdD2XToLuHm4uMVg9nPdQj86D2R0oBQyMTin06QXJjv54W0nkopQA/MpKsuFsjYw74txQwYUHvvA8fAUzr9H/ScGtW3/LEKCCsbZKovtqruBJnfaUfsonu2/uVTANfcYtkGvhKOHKR0ejhmh6ui4xe8bdNZGKxjydIbuzX00K2PZRQQBiZVFa4b39n5+xRMGXZpYA+AUw5pGDBs45L1tkQBcS1TSnVV38TJ+VsqPIrPdFDpR+paRDufhifBqEKrlxkpHq4rofrIqNX/G0LmVTswwmSG/v1tJB9D1MUEEcmnRWPe1uigbuALgFM6vR/7nEnRgFpbVNM9eXfw405Gyv8jE/0WOVXbBrEux+Gp0GsgDMXGYkezufhusjoFX/bQEYSe3+C5MZ+PS2k38MYBaSRiWdFP/0BLphQMGHR/Lw2AYw5oGDJi8ANjbnocc9ZmbYppPoKl3CEnE3VfYcneqrwMzQN0t0P/dMgVb+di0xKDxfycF1k9Iq/TSMjjX0/QXJjv54WMuxhiAJkyISzwp/+AJdMKBizdJ/XJIAx+xQsOYksaYRVXxJtk0/1Fa/g8jkrkX34J7qk7ts3DSTCFh8yEvlGLjIxPVzMw3WR0Sv+NomMJvbtBMmN/XpayLiHPgqQI6PPCg8FOAIYMaWkSm5q+FVfUm1TV/WVLuDsOitVffUnulT20Z0GUl1bFxmpeisXmZAeLuXhusjoFX+bQkYbe5cgubFfTwuZ9rBLATpk9FkBMyYUjFiaPDfHgkPJhIJKVOzTV31ptE1N1ZesfrvprEb11Z7oGtVXcxpomp82kRkr1Fu5yPj0cBIP10VGr/jbBDJkxN4kSG7spekP+VnRpACNFjI3K2DGiIKCiorCNAYpajmFtjGIvgVCU/WV3xhEr4fTq75eVmMQLTK5Hq6LzBu/MUiuh+s1BslRCmqzomCfiiULKtcZqGAmTn930VptU7MRok69lTvOtWzW9nmzfeW0fd6GRibXwx0yYRvaw6GRKZhSsWTpVHtLVfo781QXiWyp7NQ31Oc4s+enXKqmgHv9y7viq/U5znKRsa/XXrF7/bpXrDWth0N9jrXKfp4jgJFKbOhuWpqtjdPWPN7AsrPEnK6t3dY6bVbX1m7enDbnoW6cu5V/4yOT46F+XPNYEw0yTQ9fFWSGiv3Uysttb8CCkhEjIZ+0tU1a1ZdV/OWovnRKwWafN50ezj6vGj2cfJxbxR0WGevh0MjkKP50yLRjrxELtz3UIqOP/XpZoVcK5mfFPiMqFswpXG/AsqYAaW/AprZJo/pqKv70qi+NJqq5+aPTwzVX/jVqseYmzpDIND0cGhm94k+DTD/2Ugroe6hBRh/79bJCrxTMz4qDevF3DqY7sLElJSPGSQrwa5ukqq+u4k+v+pI72978kU/07safdBp093CHQqbr4dDI6BV/UmT8sZdQgN9DKTL62K+XFXqlYH5WHDIBZnZ1pFkJuFhRQPgtTG9An7ZJovryKf70qi+Zs/29X9lE9+37S6aBr4RjCGR8Hg6NjF7xJ0EmHPsUBYQ9lCCjj31Y8ZeLTJwC8rPiiCkVM7co2tYCmOO/whRgmoNVAW1TSvUVUvzpVV9pZ/2lH+mJHir7SU2DUAXXtpEJeTg0MnrFXwqZeOxjFBD3MIWMPvZxxV8uMmEKSGVFqDcgHLFHxSWNA8K7asA5JWMmjIK9AZc88Lx9WvUVU/zpVV9xCghXfsUneqzqLzYNYgWc20Qm5uHQyOgVfzFk0rEPUUDawxgy+tinFX+5yPgpID8rrrMHXLR96J8HYChgzLhDAba80Zf+7qJDqq+U4k+v+go7Gy/8DE/0VNFvaBqk6re3hUzKw6GR0Sv+QsjIYu+jAJmHIWT0sZcp/nKR6VNAflbcqNP/tD3AdyLQbEUBrnwilf7uon2qL4niT6/68jubrvv2T3RJzb9vGkjkG9tARuLh0MjoFX8+ZOSx71KA3EMfMvrYyxV/ucgUa2TFvPHuN9in4qI/zn8m4IxR/SBgKOCwXvqLpb/PWZ3iT6/66lOATPbRn+hSyU93GkjVW5tGRurh0MjoFX9dZHSxb1KAzsMuMvrY6xR/ucgUa2SFpYCbHADnvOi/OHQq8CUjJkwYc8EhtyiokunvLrqp+tIo/vSqrzYFyFVf7YmuUfw1p4E0lLBZZDQeDo2MXvHXRKZQx95SgN7DJjL62EvTv+uhHpkiOyvMcqBN/+e+l8Z6A97ggIJL9oGKh4ILNtZUfekVf3rVl/021aq+2moxjezDTJoz9sShNLYZZHI9HA4ZveLPIkNW7JdccMCQHppxubHPUQrqs+IuBRUXTIBTnvlfFiMAuMEhRqL4uviC3UXDUIo/Ny5XD6dVfdnK61zV1/Ae7pBp28vzcDhk7tS9CM94GnpRXLBgL/NSdcFO2zQXVlFby1V9ucIGrR7OAqpVY9nbqYuBkcF/Ixe0XD3c+shodWpndQWqFhkX+1xkTpQeurmWF/tcZPKzIjIu3RsQCsaM8XYX95rj5DJaB9W1pupL0z0NbnNY/6TrD2cqGwCF5AOMh0X9k3bcOsgAamSOAG23xU0gIxfDQNNDHTLN2OcgA0QKZ3zmvo9zYq/vtuiQ0fUUhOMamWqd3oAVjyiYMBVTgFvfPkuWQjZtfdXXI6Umyi1w7av0cDaU76fIUArmI2M8HEIPtxlkcmKvQ6Ydez0y1kMtMrmxX0cLeRatDuyb8fCUJxxQ5PYGrHjMnHOFLLK5vTW06kuniXKTfKHSwzVX/vVKwXxknIfb1sNtDhl97DXI9GOvQ6bpoQaZ3Nivp4XUKAXtfdEpT1hyyX6YAmK9ASue1EPOGTMV3PJ0d7eHVn3JKaC9vSXXw3U3/nRKwXxk2h5uUw+3WWT0sZcniC/2cmS6HkqRyY39+lpIOQWY9D/hMQBLLtivW4IoegPC0wZjmLuAOAX4iluGVn1JNVHd3W3ZRPft+8uVgvnI9D3clh5u88joYy9LkFDsZcj4PJQgkxv7zWghZRRgv/0fr36z5JI9QNEbEJ51bhjOGdelQTE9XH+rYmjVV5oC/MUt6YkeKvuRKQXzkfF7uA093HaQ0cc+nSCx2KeRCXmYQiY39pvTQqYpwKZ/FxlDAcLegPDMs1VxFqGAWGnr0KqvOAWEa9viEz1W9ZdWCuYjE/Zw03q47SGjj308QVKxjyMT8zCGTG7sN6uFjFOAXfrzITNjSsGYaG9Ak/7PAzuVhgJCerhwocLQqq8wBcRLW8MTPVX0G1cK5iMT93CTerjtIqOPfThBJLEPI5PyMIRMbuw3r4UMU0A4/cFSAER6A+5RAieRQoWwHi5epzS06stPAenKdv9El9T8bwOZtIeb0sNtHxl97P0JIo29HxmJhz5kcmO/HS2knwIkse9RQLs3YEHBaaJOya+HS5cpDq366lOATNjSn+hSyc+mkZF5uAk93DDI6GPfTxBN7PvISD3sIpMb++1pIfsUII39nAnQ6g0Itjdgwalgj7Gvh5NVKQ+t+mpTgFzX1p7oGsXfJpGRe7iuHm44ZPSxbyeINvZtZDQeNpHJjf12tZBtCtDEfsEYfL0BC0Xdd1MPpxEpDK36sml4ohB9gmNiveJvM8hoPczXww2NjD72FplL8SQ31kZG7+FJXUadF/shtJCWoPSx32dJpzdgyUyc/tCspdZplIZWfblxOtWXq8HWqrfWRybXw2H0cK8iMkN7OJTiLxeZkilL6t6ARryxUKV/Uw+nueDhVV+z1TkoOtXXclVIoVV9rYvMkieqcfl6OHt9QyHzpP4cbexPag/zkXms9NAi8yI79rpxuVlxkh37usqnhHp5ZcRI8QYT7tU/7a04SGIl9xgDrE7FkdptDuqfdP3hjrhR/3Rr9f0jsQl36p8OVB6uj0w5GDK36p+GQcb5pY/9XucdpOMsMncykbmhRMbGXo9Mblbs1T/pYj+uP6/+MLMiOLW/TFp7gUveQNGtcT6ieYOWNrvI8T50LSLbC1zyBortZRy5h+siczI4Mu9lxhDItNe3czzMQ8bEXo+M9VCPzPsGz4pHoPJwwh5mOXC1C7BkRInpGZ4e7ia5RhM1vOrLpf9cpRRsijf1erh8ZE54NDgyOj1cLjLN2GuUgk0Pc5Bxsdch0/RQi4xOKbiJrNApBSfsU2GOF2n1BhxRMklSQHd7S+rs8Kqv9re/XCnY/o7T6uHykbEeDo2MXA+Xi0w39nIKaHuoRaYdezkyXQ+1yAyfFXIKmHIALOzaQbs34LimgHAp0IS7lMDjxgJXTCNgreQuk864GQv2KdnnLKr66oobbCrHnTVn2sx4sHqNGZc6Nch42Gx/VnHKPmXCw3WRaXo4NDLWw+0g44u9QUbvoQaZfuxlyPg8lCDTPjZ/6Kww41Ie2vQ/t+/d1gLM6weBnmiw5Wj7giHtrM9Re9EHjCLOhrRNKUbvT3I3LnYX4AslVJyxzyji4brIdD0cGhnr4eaRCcXeIKP3UIqMP/ZpZEIeapEZPivSdwF7HAKL5vv2ewOOKdnz3gVMuENJ0btgiDsbctRddMhZv6OQCqd/krtxIQoIhTI10UPpDzJkfB4OjUx8ouciE4t9nALCHkqQCcc+jkzMQy0yw2dFnAL2OKJi0X648PUGNBTQvQuY8Fqd/qfdIUDY2Zij7qJ9zoYdhVg4w5PcjfNRQCyUsYkeS39IIxPycGhkwhM9F5lU7MMUEPcwhUw89mFkUh5qkRk+K8w4OOCi4+E+16hYcNJ+P39vwAkj9qgaR4KY9IcngfQHOKtPDRrhjg9NOeouuuvscb3I8Tg4zh9O08XwkofBJyF/97RUKM002GPU8dCm/yM1MneYJjycMeeAEXsDIWM93Awy1sM0MnoPY8ikY+9HRuKhFpl47GPI5MbejOtSgE3/F907ilBvwEl9FzCvHb3NiHj6gzk4zPDd+cpRk/7xcTPmnYWPY7rHGvlsyTkHlA1nD+vvuPAUcOOadwHm8WaZ6H9U1XXezkMzLu1hCJmUhwaZ0WDIWA/XR0Ya+/OaOLQehpCRxb6PjNRDLTLrZkUOMmY50Hm4zzVgzvP+A0W4N+B0RQFjblNS8USwq2mdHXFOyWtMSNOGu+iSPc6puIU90zRl5sBDG85DbgEzXk/uhtqDEs2Z8Ob+RtL/yE30Eeei+yJrPmQkHg6NjPVwPWQ0sTfI6D30ISOPfRsZjYdaZIbPihkL9rB3AftcB2Y88y0phluDFdxgTMEpRxQUPBNXKdsLnYgdNWYn6UzsqDEbipPa0fQUaI6D5xyJQwmsQnjOVJz+xtrIyD0cGhnrYS4y+tjb9NV62EZGG3uLjN5DLTLDZ8UBN4EFpxxShdI/3hvQUoBJf3lnILiJ7dYiuWtwdrCqwT4NdzPz2ITbWNXXI+EUaI9b8kgcSii5jS271HnokNF5ODQyzkM9Mrag/KkSGVu3H+lk5zEz0QHm6tgbGVyV6aFuXNNDHTLOQy0y14Eqlv7x3oAVp1RUVJyp0h+es6Si4kKpbTrjgoqKpVrxd1Jf6TPFFLC3RRUVJ6pQLlfjtB5aZOaqUA6PzDIbGft8eqlE5mm961QpPTxbdb7TKf5mq2XpZ+rYG9Mhw+oJXIuM9VCPzHkdw0hVYYwARhxhGGSPfcUHF3U9VcVkpcST2Q0mVFTAcc3OMjvgqHb1lljQBDDmej3uSOXhmFv1OJ2HBbcwyJTZyNxSIbO/QuamEpmbWcgUq3H62JdZHlpkqrqTpdQcMtcGQuYW62aFNvZ7Kw+DSt9wb8ARRxTAGWVrRyBlBceMgWdUjBkzEvelvcE+cM4pe/XCh8z2uQHMecYeBfvic43GHFNQ8YwphLunBcbBC0pKhYcWmXPmrwgyT+qaECky1kMtMs5DW4Ui9dCMm3NaL1rrkDGxHxKZIbPCrPyfMQEmzP13ASECKDEHhJ9ywWVnUzBmBbeYAM8454IRY8aUorbG1zkAznnGnAV7lExFINlJ/pgFlzVIknCOuUXJkidccslerIGiZxw844xz9iiFHlpkznn2yiAzqz2UIeNir0Om6aFBRuqhGTfncb3urUPGxX44ZPRZsQ9c1LGfKjw06f+UOQsmwJiFjwL8BFByUH/7m6ecSyYUEY2AtYKbjKl4XvPUBSUjxoySzl5nj4rz+inHXLTEWVPgMOMJFab/yZSCPVLHm425ScGybn9mxpnWSfFwmnHOw3MmFAIPLTLWw1cFGethGplu7KXIdD00yEg8NOOsh1pk2rFfBxlPx72W9bOiqGkuhcy1+tvfxn4ppIC9Ov3N0t+iPgZ05KMAHwGU9SkjzWONLmtwYxRgdg3gReMCLykZMaKMLpgcsQdcrA7vYsV3kyhIbUfBND8wYZmFFz4YcYOCZaP9mRsX89CMa3t4waSesmEPLTJND18VZKyH+thLkPF5eElJScE06uERU6qWh4YCUuNMRXw/9giQwYNMas4U3GBE1csKGTJVL/YyD9tlP0uWjGgcBt5w60v7FzytL7LN+JeMKZgEnS24zpjmKWV2XFnzXchZOwXaxcILlkyiE33qrW9a1nWM4XCOuE7JstP/yCVIiNHNOJ+H4/p21++hRabr4ctBJkYBI65T9JCRxX5E5UWmiE70w3qS+5ApIh4esgcsOh4aZGLjpvXCdj/2UwEy3XH23jiFjHmU7nuYQgYuvbFPezjvFP0uWVICZfcup0sABWMKTC1R12aMg3xXcK2eAv0Lm1FE+O6QKRUXnsIIc+tSMPGOm3JI1XMUTP8TM9F9Cx8jrlGw5EXPi6r+JvCHc1S3TPd5GJvoFhmfh1cRmcqDTJwCinqV+VSJjPEQLr3IWAoIj/NUtjcSJIQMXg+HR2YWpYAwMhIPfcgsqSjoUUCbAApGFFTB78AZIwpavcXqcUeMaO7JdscVtbPd58iD2lH/zuiCJWMKxj1nJ7WjJ17GNv1PCs/ap9nbqPC3P6uYMwaPh6N66pwGGHvGGCh7HhYcUVIFPTQU0B8HB0wi48IUMOEAj+qr4+Gk9zxoPFwGkLEe+mNfZiCT8tAg4/PQjAt5mEIm5OHLQGbo2Jt2IGXzr00CKFZVceHFkHlNAc2DwwoO6/QPP9HMKWt3m87uM6FiFimMWLBkRMGoNc6caraIFDhUzBkB4xYFlHUow+3PbN+Utod2T+Q84qG5P2p7WHBACcwimzdz7zTYZ5IYt6zJsY+M8TCMzKIm1S4yBRVnkafZWT2uHXvjoRYZiYfzmgJGnnExD2PIxDwcHpnhY2/Sv1FN0CSAkgJ7QnDYTCo7vjOOVlFHzbiiXtyxQO4lHaW+nlEdFmPj2tHYkUmW0YvG9ofZ26g4i6729u8C7J5I6qx3Q47OQ5f+8VXbMDLxcUMj4+i/HXs9MlIPLQU4D/fq9I97GEJGFvvNILNfZ0V872ROUUffITOmEsTefjHaceP6GJ9U7G36169yWoCCon5Bygr2KIBLFhS1IGYmKoiYMgIWXHZ+Ttm4DvslFSOmQMWF4Erdfsay9bN03CWL1c8SDy0yCy5XyMg8fFWQyY19Exmdh+a1xsMJ49XPKesjI439lIKKS5atn1Nm0Wgic5nYIDRmPDTnDBgPZcgYr5oeypBpZbolgBYrCN5iQoHlPbM9IbNJnRTUYZVWU48Y427Qq+iGTftKTejNtzoigJrjFnURpdRDi8xidT8l9fDVQSYv9g4Z6vSX1dDBuEakYgRUouQAi4y5XdYhM6FY3Q3Ix8G0RqSkRJMV4xoRLTJdD6XI2EeAqk0AUjeNjVdvo2sqNsLqD1JlRW0rV/XMlRggMPsa1gLlkMlxOg8dMjoPXxVk8mO/PjI6Dx0y+bEfBpmhY7/K+JgcOGWj+oM1jrpxqBwFu0ahH+cWN3XO2nFDe6j/vKGRWTf2w3lox+XGfjhkho59bfkE4FYStW/RuAEZZJz2AWf9T3xVxu2QSY184yJT2/8fnlOwSEe/1WEAAAAASUVORK5CYII=;" parent="1" vertex="1">
          <mxGeometry x="318" y="379" width="82" height="82" as="geometry" />
        </mxCell>
        <mxCell id="y1rmw7ey6d1EXsP7_uVQ-13" value="Novación TC" style="text;html=1;strokeColor=none;fillColor=none;align=center;verticalAlign=middle;whiteSpace=wrap;rounded=0;fontFamily=Verdana;fontSize=14;fontColor=#FFFFFF;" parent="1" vertex="1">
          <mxGeometry x="344.76" y="461" width="40" height="20" as="geometry" />
        </mxCell>
        <mxCell id="y1rmw7ey6d1EXsP7_uVQ-14" value="" style="shape=image;imageAspect=0;aspect=fixed;verticalLabelPosition=bottom;verticalAlign=top;fontFamily=Verdana;fontSize=14;fontColor=#FFFFFF;image=data:image/png,iVBORw0KGgoAAAANSUhEUgAAAgQAAAIFCAYAAACtXuUzAAAACXBIWXMAAAsTAAALEwEAmpwYAAAF92lUWHRYTUw6Y29tLmFkb2JlLnhtcAAAAAAAPD94cGFja2V0IGJlZ2luPSLvu78iIGlkPSJXNU0wTXBDZWhpSHpyZVN6TlRjemtjOWQiPz4gPHg6eG1wbWV0YSB4bWxuczp4PSJhZG9iZTpuczptZXRhLyIgeDp4bXB0az0iQWRvYmUgWE1QIENvcmUgNi4wLWMwMDIgNzkuMTY0NDg4LCAyMDIwLzA3LzEwLTIyOjA2OjUzICAgICAgICAiPiA8cmRmOlJERiB4bWxuczpyZGY9Imh0dHA6Ly93d3cudzMub3JnLzE5OTkvMDIvMjItcmRmLXN5bnRheC1ucyMiPiA8cmRmOkRlc2NyaXB0aW9uIHJkZjphYm91dD0iIiB4bWxuczp4bXA9Imh0dHA6Ly9ucy5hZG9iZS5jb20veGFwLzEuMC8iIHhtbG5zOmRjPSJodHRwOi8vcHVybC5vcmcvZGMvZWxlbWVudHMvMS4xLyIgeG1sbnM6cGhvdG9zaG9wPSJodHRwOi8vbnMuYWRvYmUuY29tL3Bob3Rvc2hvcC8xLjAvIiB4bWxuczp4bXBNTT0iaHR0cDovL25zLmFkb2JlLmNvbS94YXAvMS4wL21tLyIgeG1sbnM6c3RFdnQ9Imh0dHA6Ly9ucy5hZG9iZS5jb20veGFwLzEuMC9zVHlwZS9SZXNvdXJjZUV2ZW50IyIgeG1wOkNyZWF0b3JUb29sPSJBZG9iZSBQaG90b3Nob3AgMjIuMCAoTWFjaW50b3NoKSIgeG1wOkNyZWF0ZURhdGU9IjIwMjAtMTAtMjhUMTY6MDY6MzMtMDU6MDAiIHhtcDpNb2RpZnlEYXRlPSIyMDIwLTEwLTI4VDE2OjA3OjM5LTA1OjAwIiB4bXA6TWV0YWRhdGFEYXRlPSIyMDIwLTEwLTI4VDE2OjA3OjM5LTA1OjAwIiBkYzpmb3JtYXQ9ImltYWdlL3BuZyIgcGhvdG9zaG9wOkNvbG9yTW9kZT0iMyIgcGhvdG9zaG9wOklDQ1Byb2ZpbGU9InNSR0IgSUVDNjE5NjYtMi4xIiB4bXBNTTpJbnN0YW5jZUlEPSJ4bXAuaWlkOjMxNWZjY2RkLTgyYmEtNDM0Mi1hYzhmLTQ1ZjNjYmRjNmZjNCIgeG1wTU06RG9jdW1lbnRJRD0iYWRvYmU6ZG9jaWQ6cGhvdG9zaG9wOjBkN2Q0NzkxLWEzZmItMzQ0OS05M2E5LTkyMzliNWQwNTdiZSIgeG1wTU06T3JpZ2luYWxEb2N1bWVudElEPSJ4bXAuZGlkOjZkODQ4Yjk3LTlkNDItNDc4Mi05NjQxLWFhMjZiZGUzNDYyMiI+IDx4bXBNTTpIaXN0b3J5PiA8cmRmOlNlcT4gPHJkZjpsaSBzdEV2dDphY3Rpb249ImNyZWF0ZWQiIHN0RXZ0Omluc3RhbmNlSUQ9InhtcC5paWQ6NmQ4NDhiOTctOWQ0Mi00NzgyLTk2NDEtYWEyNmJkZTM0NjIyIiBzdEV2dDp3aGVuPSIyMDIwLTEwLTI4VDE2OjA2OjMzLTA1OjAwIiBzdEV2dDpzb2Z0d2FyZUFnZW50PSJBZG9iZSBQaG90b3Nob3AgMjIuMCAoTWFjaW50b3NoKSIvPiA8cmRmOmxpIHN0RXZ0OmFjdGlvbj0ic2F2ZWQiIHN0RXZ0Omluc3RhbmNlSUQ9InhtcC5paWQ6MzE1ZmNjZGQtODJiYS00MzQyLWFjOGYtNDVmM2NiZGM2ZmM0IiBzdEV2dDp3aGVuPSIyMDIwLTEwLTI4VDE2OjA3OjM5LTA1OjAwIiBzdEV2dDpzb2Z0d2FyZUFnZW50PSJBZG9iZSBQaG90b3Nob3AgMjIuMCAoTWFjaW50b3NoKSIgc3RFdnQ6Y2hhbmdlZD0iLyIvPiA8L3JkZjpTZXE+IDwveG1wTU06SGlzdG9yeT4gPC9yZGY6RGVzY3JpcHRpb24+IDwvcmRmOlJERj4gPC94OnhtcG1ldGE+IDw/eHBhY2tldCBlbmQ9InIiPz6lqaMTAABYvElEQVR4nO3dd5xjV3n/8c/srnsZuWNTZjBuYPDKppgWVoYQarLjhA5hx7R0PCSBkFA8NiUhJHgMgRTCz7MhJCQh8ZhAgBCwDA4lEKwNxcYUaykG3NC64Lqe3x+PrqXRaqSre86955bv+/XSyzOzOkfHU3Sf+5xznjO1urqKiIiIVNum0AMQkdi2DHw+230MqgO1dIcCQAdoDfl6u/vod2m6QxERV1PKEIgEt4W1F/c6vQt6/8dl0KEXRPR/3O4+FDiIBKKAQCRdM9iFvtH9vIZd5OuU60LvWwcLFlrdjwGa3c93ZT8ckfJTQCDirv+iX6d3oW+EGEwFdNgzs9BEwYKIEwUEIpObwS728+iinzcdLDBYRAGCyEQUEIiMtpleij961EINRibWZm0GoQXsDDUYkTxTQCCy1hbsoj/H+qv4pdhaWJCw0v14R7ihiOSHAgKpsml6F/86uvuvqjZrAwTtdJBKUkAgVdOfAWiEHIjkVgebYlhBGQSpEAUEUnbRAsC57kNkUh0sOFjBAgUtVJRSUkAgZbSZXgBQDzkQKaUVehkELVCU0lBAIGWxld40wGzIgUiltLDgYBlNLUjBKSCQItuK1QKYCzsMEaA3tbCEggMpIAUEUjRRJmAO7QiQ/GpjwcEyCg6kIBQQSBFsoZcJqIUciEgCbXqZA605kNxSQCB5NYMFAfNoTUC/Nr2jhfs/7teidyBQmmoMX7Q5S+9n1v+x2M9mCQsQtFtBckUBgeTNNqp3RkBzyMcd1h4TXIa082aGH+vc6P63RrV2hSx3HyqEJLmggEDyYDOwQLmnBJrY3XyL8l3ofesPHBpYhqFOeYOFNr3gQFMKEowCAglpC5Y+rYcdhjdN1l70WygtnIbB46ZnKc/v0AoWHCswkMwpIJCsTWNTAgsUf265Se8kve0hByIAnEN5AoQmljHQ75VkRgGBZCWaFpgPO4zEWuiEvKIpw8mVHSwwWETZJkmZAgJJW1GLBzW7jxZwcciBiDfT9MpZNyhWFqGDih5JyhQQSBqiN95FinNX1sLuxFpo7r8qorUIc/SyCEXQxAIDBarilQIC8WkaCwLmyf9ugRZrj7hVACAzrD0aezbcUGJpY4HBBWGHIWWhgEB8iIoILZDvQGCF3kl1WsUt42zGAoN58j290MYC8RUU2IoDBQTiYoZeRiCP2vSyAEqviotoGmwOCxJq4Yayrg6WMVhCgYEkoIBAkpjBsgELYYcxVIteJkCLryQtW7HAYI78TS10sEB9GQUGMgEFBDKJvGYEWuhMegknOoGzQb6Cgw7KGMgEFBBIHNNYNmAx7DDWaNPLBKgWvOTBNL2swRz5mVboYH+/KnIkIykgkFGiQGCB/Ly5LWHZAK0JkDzrX3MwF3IgfdpYUK/AQIZSQCDr2YZdfGthhwFo37UUW1Sue5587FZoYUG+MmuyhgICGbSNfBQUatPLBmhdgJTFFixjME/4YLuJ/a0rMBBAAYH0zGAX4Lmww6CFvUkpGyBldw4WGMyGHQaLaOGhoIBALJ25RNidAx1Up12qKw/nfXSwv79zA45BAlNAUG2h1wl00H5pkUge6nu00PqCylJAUE2bsYtwPdDrt7BARKudRfYU7e6ZJ9x0wkr39RWoV4gCgmoJXVhoufvQ3YdIPNuwv9dGgNfuoMJGlaKAoDpC7h5Y7r62DhQSSWYrljVoBHjtJtqNUAkKCMpvBrsgNzJ+3Q6WdlxEgYCIL1uwwGAuwGsvYX/PyhaUlAKCcjuHMFUGF1GaUSRNoQL9Nqp2WFoKCMppM3ZBbmT8ussoIyCSpS3Y31wj49ddxm42FPSXiAKC8jkbCway0sHeHJZQICASSojAoINNXWhtQUkoICiPaWzOvpHhay6jjIBInoQIDJaAV2X4epISBQTlkHWBoRUsXahAQCSftmIBey2j12uhgkaFtyH0AMTJNHAR2f3ht7E90WeiYEAkzy7GthgvYqn9tNWx7YnnZPBakhJlCIprCxYIzGbwWh0s+tfKYpHiybogWbP7WrppKBgFBMWU5cLBJbT3WKQMZrDpvnoGr9VBCw4LR1MGxTIDXEI2wUATyz68CgUDImWwEzgVu3tvp/xaNew95EJsalMKQBmC4tiCRfe1lF+njU0PXJzy64hIWBeSzTRCC8sWaAoh55QhKIbzsWi7lvLrLAEPRMGASBWchWUBWym/Tr37GttSfh1xpAxBvmVVW6CFIniRKjsbWytUS/l1llDNgtxSQJBfm0k/K9DB3gQuSPE1RKQYdANScZoyyKdt2B9NLcXXaGLpQgUDIgK2ePgMbF1BJ8XXqWPvb5tTfA1JQAFBvkxj6wWWU3yNDhadn4F2D4jInrZjNwsrKb5GDQsKVMgoRzRlkB/T2F17PcXXaKKCISISXxZrC5bRyYm5oIAgH7JYL7AInJti/yJSTlkcp97q9q+gICBNGYS3jXSDgRaW/lMwICJJ7MCmGBdSfI06VgNF6woCUkAQ1jmkezDREhZ1a4pARFxdgL2ftFLqv4bdHKleQSCaMghjGrtYz6fUfwfVEReRdKT9/gWa4gxCAUH20l482EQLB0UkfVtJN8O5jBYbZkoBQbY2Y1t5ZlPqfwlVAROR7KR9gmILLTbMjAKC7KS5k6CDpghEJJzzSW/RYQcLOJT1TJkWFWZjK+kFAy0sglYwICKhvIr0KhzWUGXDTCggSN820ju2eBk733xHCn2LiExiO72yxL7V0A6E1CkgSFeaZYjnseNLRUTyYieWsVxJoe8a9n6qoCAlCgjScyHpzKm1sT+47Sn0LSLiahdwJumtKVhGZyCkQosK03Eh6ezRbaEVtyJSHGkupl5GWVKvlCHwaxq4hHSCgWVsvYCCAREpih2kt65gHrv5Ek8UEPgTFRxqpND3IoqERaSY0lxXMA9chL3/iiNNGfiRVvXBDjYPp/UCIlIGadUraKHpVGcKCNylGQw00JZCESmXbaSz+6qFggInCgjcpBUMtLDKg6rMJSJllNZiwxYKChLTGoLkprFfvrrnfpvoyGIRKbe0FhvWsfdQrSlIQBmCZKaxegA1z/2uYPt3RUSqIK0sa7vbpzIFE1CGYHJpBQPLKBgQkWrZRTo7EGax7IMyBRNQQDCZKJqtee53Hm0rFJFqiiobLnvudxZNH0xEAUF8aaW25tG2QhGRs7CaKz7VUVAQm9YQxJNGMNDBgoGLPfYpIlJ0aWxLbKHdB2MpIBgvrWBgDrjUY58iImWhoCAABQSjpRUMNFDBIRGRUbZg778+tVBQsC6tIVifggERkXAuxd5/Ox77rKM1BetSQDCcggERkfB2YO+bHY991lFQMJSmDPaUVjBQR9UHRUSSSKPUcQtNH6yhDMGelvAbDLRRKWIRERdpZQqWPPZXeAoI1roQ2wroSwvbTaBpAhERN1FQ0PbY5zz2vi9oyqCf72Cgg9YMiIj4lsb0wTKqFqsMQdf5KBgQESmCNKYP5rHrQKUpQ+C/AEYHBQMiImlLI1MwT4VLyVc9Q6BgQESkmNLIFCxj14VKqnKGwHd02UHBgIhI1vRe7klVA4IZbAdAzVN/HSr6CyQikgNpBAV1KrZdvIpTBtPACgoGRETKwvf0QQ27TlSqmmEVA4IV/BUe6qBgQEQkD3wHBXXselEZVQsILsJ+YXyZR8GAiEheREGBLw3sulEJVQoILsSqBvoyD1zssT8REXG3A791ZeaoSDXDqgQE2/D7CzJPhfeqiojk3Hb8v+eXfjtiFXYZbMZ2FPgyj4IBEZEiOB9Y8NhfnRJPE5c9QxDtKPBlGQUDIiJF8Sr8nmi4Qol3HpQ9Q3A5/nYULKPDL0REisjn4XUt4FRPfeVKmTMEF+IvGGjhN+0kIiLZOQt/U8d1SrrIsKwBgc9FhC1s68kuT/2JiEj2GvgLCuYp4SLDMk4Z+FxE2EGFh0REysJ32fo6Jbo+lC0gmAba+Plhd1AwICJSNr5vGmcpSQa5bFMGTfxFfnMoGBARKRufhYtq2HWnFMoUEJyPv0WE88ClnvoSEZF82Q4seuqrjl1/Cq8sUwZb8BelrQBneupLRETyy+d2xAYFv5EsQ0Dgc5FIC+0okNGOAI7F1qvcA/wUuBq4MeSgRCSRaexmsu6hr063n50e+gqiDAGBr+JDHQr+w6ygzwIPxX5mN2AX5073cRNwM3BL93EbcAdwO3A3cBd2QY/s1X3s331MA4cARwL3xRYOPXbEWK4BPgV8GPhI93VEJP9831QWtmhR0QMCn3Wq62gRYdH8K/DLoQexjj8D/hz4ceiBiMhYPnceLGElkwunyIsKt+AvGJhHwUARfT70AEb4feBHwLnAvoHHIiKj+dx5sIBdnwqnqBkCn/UGltEZBUU1g/0e5N1VwIuAL4UeiIiM5GuRYYcC1icoaoZgBX/zPQoGimsn8KHQg4jhBOB/gFeEHoiIjHQWfm4yavg9aTcTRQwIzsZ2ArjqeOpHwnpt6AFM4K+B80IPQkRGmsOuD64a2PWqMIoWEGzGXzGJOQqWzpGhvgO8PPQgJvCG7kNE8mkH/tanLWLXrUIoWkCwjJ+pgkUKXkBC1rg19AAmdB7wvNCDEJF1bceuN65qnvrJRJECgnPwU2+gia38luI7HPhn4B9CDySBfwQeGHoQIrKus/CzFbGOXb9yryi7DHytJu9QwJWfMtRpwP+GHoSjjwFPDz0IEVmXz51MdXK+vb0oGYJlT/3Mo2CgDJ5I8YMBgKcBjws9CBFZ1078rSdY8tRPaooQEJyDn90AS8DFHvqRsJ6JlQgui98OPQARGekC/GwhbJDzqYO8Txn4qjHdosD1peVedezsirLZBnwL+Ap23oKI5Ms0dh2Z9dDXLDk9MyfvGYIl3IOBDrbFUIrtKOCjoQeRku3A57ADkT4IPD7scERkwC78TR0se+rHuzwHBNvwcyFfJKfRmExkO3BM6EFk4LnYKY4fxTJkIpIPF+NnHUCDnE4d5HXKwNdZBSvAmY59SHjPp5hbC314JuXNjIgU0eW4b4HvdPvI1c1qXjMEi/iZKph37EPCm6a6wQDAR1ARI5E8mffQR40c7jrIY0CwGT9zNQtoi2EZFKoWeEr+EXhC6EGICGC1BBY99DMHbPXQjzd5nDLwkY5pAmc4j0RCOwC4JfQgcuIW4AHAT0MPREQAf1MHs+Tk5jVvGYKz8fMNnncdiOTCS0MPIEcOBP449CBE5F7zHvqo4e/APmd5yhD4Wki4gBWSkOL7CqofMehE4KrQgxARwHYLLHrop04OyhrnKUOwhJ8CRAoGyuF4FAwM86rQAxCRe52LnwOQljz04SwvAcFm/KRfFjz0Ifnw7NADyKlfB/YLPQgRude8hz4a5GCBYV4CgiUPfSwCl3roR/LhSaEHkGNPCz0AEbnXDvxcw5awqfNg8hAQbMH98KI2OUm5iBd7YScaynBPDT0AEVljEfdjkmcJnOXOQ0Cw7KGPBXKybUO80NqB0RqhByAia/g662CBgCXLQwcE23A/PaqJjjUum5NDDyDnjgcODj0IEVnjYtyPSa4RcBtiyIBgGj9p/gUPfUi+nBh6AAXw4NADEJE9LGC1cFzMYwvtMxcyIFjAfZvhIjnYuyneHR96AAVwbOgBiMgeduJvgWHmQgUEM7inRTpoIWFZHR16AAWg75FIPp2L+wLDBjalnqlQAcGihz4W0ELCsjo89AAKQN8jkfya99DHooc+JhIiIJjB/ZvVArY7j0TySlMG4x0YegAisq5LsQXvLmbJOEsQIiBY9NDHgoc+RIps79ADEJGR5j30seihj9iyDgh8ZAeaqCKhyFToAYjISD4WGM6SYZYg64Bg0UMfCx76ECm6O0IPQETGWsR9G+IiGZU0zjIg8JEdWEbbDEUAbg89ABEZy0cFw1kPfcSSZUCwmJM+JP9uCT2AArgx9ABEJJbtuG9DXCCDLEFWAYGv7MBO55FIEXw/9AAK4IbQAxCR2BYc29c89DFWVgHBomP7Dlo7UCU/CT2AAtD3SKQ4LqYAWYIsAgIf2YElVISoSn4UegAFoCyKSLHMO7avkfKNcRYBwYJj+w4qUVw13ws9gALQ90ikWHwUK5p3H8b60g4IplF2QCb3ndADKACtIRApnkXH9rOkWJcg7YBgAbcTDTsoO1BF3ww9gJz7QugBiEgiPrIEi+7DGC7tgGDesf0Syg5U0VdDDyDnrgg9ABFJbNGx/SwpZQnSDAi2YQN3sew+DCmgn6I58lFUnEukuHKbJUgzIJh3bL+M6g5U2RdDDyDHLg89ABFxsujYfhbY4j6MtdIKCLYADcc+Ft2HIQV2WegB5NhudNqhSJH5yBIsuA9jrbQCggXH9ssoO1BVBwO/BTwx9EBy7DLscKOXhB6IiCS26Nh+Dqvz483U6uqqz/7ABth27GMWBQRVNAN8Djgm9EAK5OnAx0IPQkQSuQS3bPoS8CovIyGdDMG8Y/smCgaq6i9RMDCp14UegIgktuTYfh6P5YzTyBD8FLfaA3NY3WeplqOBa0IPoqAOQidEihTV1bjtyFsALvAxEN8Zgm24BQNtFAxU1aNCD6DAjg09ABFJbNGx/YKHMQD+A4J5x/aLHsYgxaSpguQOCj0AEUlsBavKm9QsnrYg+gwIZnBbHNEBtnsZiRSRttEld3foAYhIYrvws5bAmc+AYNGx/bKHMUhx/Sz0AArsxtADEBEnS47t5/GwBdFnQDDn2H7JwxikuK4LPYAC+0HoAYiIk1243xTPuQ7CV0DguphwBW01rLrvhh5AQd0A3BZ6ECLibMmx/YLrAHwFBHOO7Zc9jEGK7VuhB1BQOgpZpBx2AC2H9rPAZpcB+AgIZnALCNpoq6HYXe7XQw+igL4cegAi4s2SY/sFl8Y+AoJ5x/YrHsYg5aATDif336EHICLerOC2BXEOh8qFeQgIljyMQcrhM6EHUECfCz0AEfFmF243yTUcMvauAcFm3EouNtFiQum5JPQACuYS4NbQgxARr5Yc288lbegaEMw7tl92bC/l8j3gytCDKJCPhh6AiHjnurhwjoTTBiEDgg5aPyB70kUuvg+HHoCIpGLZsf18kkYuAcFW3GsP7HJoL+X0b6EHUBA70FZNkbJadmw/n6SRS0Aw59AWtJhQhvs8cG3oQRTAB0IPQERS41q5sE6CUsahAoI2docjMmgVeG/oQRTA34UegIikasWx/dykDZIGBD6mC0TWo4BgtO3AT0IPQkRSdTFuNQnmJ22QNCCYS9gusuzYXsptJ/BPoQeRY28NPQARycSyQ9s6E04bhAgI2mi6QMZbDD2AnLoAuCr0IEQkE8uO7ecmeXKSgMB1umDZoa1Ux5XAm0MPIme+Avxh6EGISGZ2YDfRSc1P8uQkAcFcgjb9lh3bS3UsAheFHkROfAh4MjrqWKRqVhza1plg2iDrgKCFShVLfLuBZwHbgK8GHktIW4FnAzeGHoiIZG7Zsf1c3CdOGhBod4Fk7R5si937Qw8koFboAYhIMJlNG0waEDQmfP6gFcf2Ul1fCj2AQG7AzngQkepacWhbJ+bZBpMGBHOTjqRPG+0ukOS+GHoAgei8AhFZdmw/F+dJkwQEM7gddbzi0FbkNuAToQcRwEroAYhIcK7TBo04T5okIJhLNIyeFcf2Iv8aegABfDz0AEQkF1Yc2s7FedIkAUEj0TBMB7jUob0IwL+EHkDG3g3cGXoQIpILTYe2NWDzuCdllSFYcWgrEukAfx96EBl6T+gBiEhuuJ5tMDfuCZtidrTFYRDgFtmI9Hsn8KLQg8jAx4BvhB5ExRwGHAvcN/RASqbdfXSCjqIcmiS/OW8A5456QtyAIOkAIiuO7UUiX8L+KBphh5G6Pw49gAo6BqsG+bjQAymZjwO3AjdhdUUkuRXcAoJpYNd6T4gbEDQSDgCsqMq6AxBJ4DzKHRD8F/DZ0IOooBpwMuX+3QrhauBzwFTogZRA07F9A5t6GCpOQDCNFTZIasWhrcgwlwCfBp4YeiApeW3oAVTUBmBvYD908fJpH2Aj+p76sBO7ya4nbN9gREAQZ1FhI+ELR5qO7UWG+YPQA0jJxcD/hh6EiORW06FtY9Q/ph0QdNB2Q0nHlynngUc/Dj0AEcm1FYe2dUaUMU47IGg6tBUZRwuURKRqXG+yG+v9w7g1BK7rB1oObUVE8uIGbHHcj4G7Ao8lj44DHgAcxORn5MjkmiS/WW+wzjqCcQFB0heMrDi2FxHJgx8Bn8RWy98SeCx59FzggO5DAUH6mrgFBEOlGRB00OmGIlIONwFXApehAjvDPBL4WehBVEjToW2ddeoRjIvk6g4v2nRoKyIiIsO5riOoD/viuICg4fCCTYe2IiIisr6mQ9vGsC+OmjIYezLSGC3H9iIiebUJ2Au7qapawZ1VYDe2uHJ34LFUWZPkN+31YV8cFRAkfaGI6g+ISFnNAscDhxK/BHxZ3ANcB3wN+EHgsVRZ06FtY9gXR/0i1x1erOnQVkQk704GzsSCgn0CjyVrdwNfB25DAUFILjfdNWAGK4V8r7QyBC2HtiIieXcE8GDgYdjZB1VyNzZVUAs8DnE/12B7/xfWW1Q4jaXEkmo6tBUREZHxmg5t64NfWC9DsMcTJ9RybC8ikmd3Yfvub8HumMtgClsouYnxiyU3YUWIDsL+/zeNeb6ko+XQtj74hfUCgobDi3QYmJcQESmZHwFfAW7Ejkwuqins4r8ROBA4GjgM2J/1rw9TwCFYMaLbsAWGR1Hs70NRtRzaNga/sN4PfNbhRZoObUUmcX3oAaTgr0IPQGLZAVyL3SVvDDyWJKawAGAGWyB5PHaRP4Dxd/tTwH2AZwKPwKo4zgBHorLFWduB3YTXErZfs7AwjYCg5dBWZBLbgM8CDww9EE8eg/5+iuIG7EJYtDoEU9iF+7Tu4yTg/tgd/jR2lx9NGYzqY3/gft12u7vt9mb49+L+wAnA99Dx3mlo4VaPYGxAkLRzUIZAsvND4InAfwPHBB6Lq8cBXwg9CIntboq1dmAf4L7Aw7Gicw8FHoTtlti/++9RZmBcgDOFZUU2AvvGeO2TgGdjJyJ+Hbur/TY6vtyXJm4Bwb0nHw4LCGYSdhxpO7YXmUQb+Dng89idTxE9CvhS6EFIKe2H3aE/DMsInI5dmGv01gmkneE4Gss+PBQ7QvrL2O/7/2F1DG5L+fXLru3QtgGcG30yLCCYdegctKBQ/DqQ8cfNfhd4NPBp3H9/s7YZe2Mc5/ewv60PpTscielQ4HDsgpvnefOjsamoJ2J36vtjqf0sxxxNJxyMZfI2A08G/gMrrvN1bD2GyiAn03JoW+//ZFhA0HDovOnQVqTf/YHzgKd3P75zzPOvxjIFn8LmK/PuauAXsNTpOIcCf9b9+IvAq7G1ExLOo4CnYgFoXisVTmHra47BUvuhSyxv6I5jHyxDcQKwBfhn4GPYFODtoQZXYDsc2tboOwrZd4ag7dBWBOyX84+A1/R97YXAhTHa/gALCv4T98O50rQDu5jEXWD1G30fnw58BlgB/gC4yuvIJK77YlmpKlYq9GEjtqPhsVjm4nHAX2DrgWRyLZLXD6rTLYM8LG00m7BTUEAgyW0CfgfbQvOagX/7PeLPc16L3XVc5m1kfn0KeALxg4F9gDcP+foc8E3gAiyDINmaKuAjL/rHtAHb7vhk7Pf8FdhUTJ6nYfKo5dC2Hn0w7JteH/K1uJoObaW6noGdnPbOdf79ZOyOOq5dWDr+3x3H5dsHsCmQmyZo84Ix//5KbAvc7xA+JSwyqSns9/YQbNHjy7Cg4MHkdyomj9oObWejDwbfQKZxO7Ci7dBWqufBwPnAU2I89/execa4bsNOo/sb4CWTD827twCvn7DNFPb/Hcc7gV8DzsayEJKum4FrsIVycbbepWUKKx98AFZ22Med9Sq2JXA3ve2V97DnNsEN2DUkemwkeSZiA7aA+KHYAsR9gI9iCw5vTdhnlbQc2tajDwYDgjputMNA4pgGFoGFCdo8ETgVuHyCNruBl2JrC944QTvfXgr8vwTtngY8ZILnnwz8F/BvwO+iv8c0fRPbv/15wmZmDsdKCJ+E3WUnsdp97MYC6duwcxpuxrJtt3S/dhe9oGATdtHeHwuKalhQsj8WIEVFiiaZrogWHZ5Er5zyFJY9VFAwWtuhbT36YPAXuebQacuhrVTDFFZdMM4CwWF+H1tgOKlzgO8D7034ui6ejF2kk3h1wna/3H28AfhTxu/QkMntAL5KuPn5qPTwE7AFjg9K0EeUCbgLu+jfiK30/wG2xuVarDz4LuyCfAe9rYF7YRfvg7Cg5Chsi+MxWFnjI+kFCFHmIs73aQoLNE4AfrH7tbuwoEC/x+tz3WkA+M0QdBzaSvltBt6DrSpO6gXAH2IlUCf1t1hQ8HGH15/Ed7Ba71cmbP9w3LYAA7wJ+FXgt0gelMhw0R11KPsAJwLPwlboH8HkZyqsYhf5a7HU/FexC+83saDgJuJXE9wLCwKOxc5FOB7b8ng8FiQcyGRTClFQ8AwsILiJeFt0q6xF8mv4FuBSnxmCpkNbKa+DsAvT2Z76+10mm2ro9wksMPkk6VY1/Ax2h36DQx+DOy2SOgH7//0g8CpUS74M9sEuti/Aig4dTrIDllaxqYEfAlfQu+A+CLuwT+JKbIpqJ/b7fyBWEfE0eocgHc5k2ZR9umN5Cpal+DvsxlMlj4frOLStgTIEkq4zsbnzmsc+z8YKFt2YsP3/YUHBxVhxGd/eh9UNuMuhj2OB5/gZzr2e1338OrbQctVz/1WzN1Z/YC+ynTKYwtLzT8cySEc5jmFvrPDXQdj0Q9Lfi7/D7uJvxhYh3kXvzIKDsGmNQ5hs0WN0iNLx2Hqaa7AaI7scxllmTRzPNBgMCGaTj0VrCORe9wXeDWxNqf/fZPje/Lh+jP3h/D/sIunLAlYXwFXcnQVJ/BXwIuDlJJ/OENshU8cyTVkuKpwCDsMKVM1g8/hJdxZM0QtqDncc19Gs3W1xD1Z18HYsU5b0vIKN2CLkk7FMw4+wa83NSQdaYh2HtrOw5y/yrEOHHYe2Ug5T2N3xu1N+nTcBf47boSi3Ac/H5kxdgovIU7C7F1dHsrYyYRoej6WI3wC8DbdsRlUdh921nkD2++X3xS7g++O2zXBD97GXhzGNWjjoeje/CQuCHo1V5rwOW6Oj39u1Wg5tZ2FtQDDtMhLcVjlK8Z2Ipcsfl9HrvQQ/gcdbsGmEDyds/3WsaqCvBU+v9NRPHG/CFqW9BPhKhq9bBodg8/gnodLFaZvCpjbuh01rfBubMrw25KByqO3Qtg5ro8u6Q2cdh7ZSbBuxBXBXkl0wAJZW95Wq/Xfsjf0bE7a7CLtr8RUMHAy8zlNfcW0G/hfLkuyd8WuLxBXVKHgYtlNpFj+ZjTJxqTtSA3/1olue+pFiOQk7jORtAV57Fkv5+/JNbF72H2M+/43ArzD+aOZJpD1VMMrrsHPq6wHHUCRRFb+7sP3xaT+iaoFVdzi2JfdU0t0pVFRth7Yz/XdYDbdxSIVswBbQ/XngcbwW+Hv8rTi+BdvKdQm2En89z8DOcvdpP+BPPPc5qYdhlSDfAPwxOp9+lO9i2zmvIP3MykZszcJx6CCrjdiug0dh03U/DDuc3GmTfC3grK+Ua9NTP5J/M8B2rJBFaA/B5u8v8tzve4HPYkcMnzjwb1/DMiMnYxfPS/Bz4Xy5hz58eRO2re1XscVbsqcW9ubrsso/rgcBz8Z271RZtGCxhi3mfAiW2bsu1IByqOPQdk1AMOs2DqmAF2PBQJ68Hj8BwWHYHv2nY38LHfYMBsAOX+nPjHwb2wb5SYfX3gc416F9Gh6D/b8lPYeh7HZ1H2nXIJjCfg8Pw3YVjBKdSRBClq+9CaudcAq2GFYBQU8Lu0lKwltA0HJoK/lXA/4a/8VyfDgNu4i7pPCfD/zDwNeOidn2OGy74auBP0v4+i/Bb/Emn96HHT39a8BPA48lj9K8CG7EzgV4BPZ7duCY59+DnTnwE7Kf7rkOK4Oc9PsxGFCMOiNiCltLcAJWxOv/0DkHXviaMuh46kfy5/HAPxH/AhnCG0keEJyHzZm7eju28GtpwnZ7Yyc/5tmzsR0kzwUuCzyWvIiO/o17aE8SB2C7WB6NBQbjVtXfjJ1H8CncanQk8WXsOuASENyNFTLaC8uajfq+7o9NoRyHZU9+7PDaZdJyaNvoDwjqbuOQktmAXSgXA48jjtOxIjEfm7Dda/ATDETOx7YuTlKg6CUUY7X0Mdi6itcDb0VvvodiP7f9SXaOwDhTWK2Dp2CLPQ8a8/xVbIHdv2JZnVsp1s9oFQsGfogFyccwur7DFJZVOx6bPvgJxfr/TUvHpXF/QFBz6OdSl0FI7hwNfAA4I/RAJrDIZAHB00hnu+QnsJPnro/x3H3wUyUxS2/CFpS+kGrP3T4aO573QaRTqTAqK3wMFnyMW7h4F7bI8bMULxiA3smL38NOJX0a9v8+KktwMFYc6n5YLQ3xuKhQBODncVsgF8qjsDfof4/x3MPxv22w3xJ2XsA4r8DSnUXz89jF56nYBaiKjsDOM3goa2v4+zSFZR/iZCCuw8r6Fjl1vhurQHgZtjboKEZPa++HZWmOwX4GP6O4/+++uFQMvjcg2OxjJFJoU1g6+LzQA3FwHvARxr8pLKU8jhdihwiNmm/fH3hnyuNI037YduNXA+8IO5QgNmKZgX3JR+nim7F1A0czfjdCGm7sjsHlfIF7sCzBd7A6D7OMrruwAVtoeQwWWN+BrUOQhKKAoObQR9N9GBLYocD7sdX6RVbHFr59cMRzHo9dsNP2dmzr3noWMhhDFt6OreF4CZaqljAOwPblTxFmxf1l2IK2G3C7S78HCy6uxP6eRwUEU1hQdp/u865FAQE4FCfSlIGcghXgeWDgcfjyJuBDrP/G8PaMxvFo1l/oeBh2qFIRTbHnG/6vYMWangV8K/MRhXEdVinvTvyvIZjC7vKPwi50cXYxHAo8EpvGCJE2vwm7q7/R8fVXsYqh3+r2Nc7e2PTNIaSzuLOI2jgGBDVPA5FiGXc3XUTHYXPz7xnyb0/HLtRZ+SOGBwRvzHAMWTkZ22HxDPwcA513UTBwKP5vrPbB3tDPwLIvcRzQfYRyJDZ94roFcxWb+vgBtkBuN6Mv9JuwYOAg0q8YWXrRL3LdoY+W+zAkYwdjW8d+K/RAUvJu7IyDmwa+/tqMx/F47A39i31fO55sjzhO07BswUewio9lr274beBqRhfQSeog7G7/ROz7m3Y1xLy5C9ul08GCrlFrNDYB09haAgUEppO0oY9vYOIXlyBOx4qXlDUYiLx+4PNHAD8XYBy/PfB5FRbg/RV2OFQa2/HypP/EQ5+Pe7ALXZWPo74Du7b8bMzzNmIBQxZnShRFK2lDfQOrY2+sXv4XgAcEHksWXo2VNo2ECoBehKU0wdLpzww0Dp8G71inhny8DfgvdDpfEtEOhioHBHdjwcDtY563AftejaviKDFoUWE1HIItHHxC4HFk7V1YpbeDgPmA43gu8Hfd8ZTZ4BTCI7DV51sp32LDfbGFf3vhP6V/GPEOMyqz3VgwMG4b4xR2HdtE9aZWvPOxhqDtPgxJ0VHYndpDQw8kgF/AthiGvnt4Gbb6uyw7OfoNW0fQ/28PxIqlPBo7hKYsHoZNvx2N/9+v/bAs3v2p7kVuFZs6uSfG86pejMgbH7sM2u7DkJQcAXwa259cVe/ACp2E9PDuo8wGA4PoQhZ97fPAqVg1vTJ4MPDL2O4K35UKowqFoQPZkKaw6YA409q7yf50xzxrJm2oKYPyOgDb8lblYABsO1QRDg8qmnGZgdUhH1+ETVvdkO7QMrE39jd2EOErFa4S/k45upv3NYaNWKA1bh1FVN3wTo+vXVkKCMppCqs8WPa7UsmH9QKAyAbsjXsGuBD4peyGlppVsrsQj5s22I0V87mF8Sn2tOzCb5XATVjANS77shurW3A74f7fS0MBQTm9Gjgz9CCkcsZNG0wBTwTOBi7IcFxpuBu7EN1KOheiaLFcnJ0G12OLVrdjhxuFcBt2p+7re7EvtkPlwDHP242doZDWz6FSFBCUz6mkc6yvyKC40waDn78Z+DBW2KeorgI+ClyO/7n+KWxd18PoLQYelSU4EAscbiVeud+82ws7kXSa8deou+gdrKSAwJF2GZTLBuC9oQchlTRq2iC6mEVTBwB/DDwvm6Gl4krgJ9j6gTTqudwPOxviBMYXeNoXW0B8BPBDin3AT3SOwwwWFI373vZXNdTCQtNJ2tDHLoOdDm3Fr7PQugEJazAwgOFZhGdgWxG/kMWgUvDT7iMtHSzbdxPjz0vYhG1/nMXOkyh6QHAgFgiNK2q1iq0d+AmWJVBAYHYkbahKheWxF3Be6EFI5ayXyl7v6/3vOed4HkuZ3Ikd53st8S50R2PnZBS9mNEGbLrgJMYHBNFiymtQQOCF1hCUx/OBY0IPQiptvTUF/cHBKr2pg8cDP48VziqavbqPjaRTPGgfbE3AT4l3obsPtsX4aCyYyNod9M5hSGoDNgVzApbtGLeg8E5sC+sP0aJCLxQQlMMG7KhdkTwYtw2x/+uLFDMguC9WhTHOwrck9u32H7c08jS2CPHp2GLNrPfkX4FNH9/s0MdGrGTzz2EVVsd9X2/uvuY1qAaBFwoIyuG52FGpIiGsFwAMW08w2G4ztkX2ojQHmIJTsHoKDyKdUx2jxXVxSyNHZaK3YTUBsvZ+4D9Ifqc+hX0fH0Av0BpnF1aF9AcoIPBCAUHxTbHnUb8ioU2SJXgDcDHFSvkeis3Zp1G6OBLVItgY87kHYBfTEHPp98Ht+zCFTRdEAdC4+gu3Az8Cvg1chwICLxQQFN+zUHliCW/cRT/6eNAG7ML6YmA5lZGlYxO9Ew9Dly6ObCRe8JCGvbGfZdL1FNH5DfvH7OdGLDtwNeOPSJaYtMug2KawuyuRPJka+O/gx8Oefx7xqvJJOUWHGcVZpLkbyw58HauDo+yAJ8oQFNuZ2EIikTxImiUAS8H/GvCuFMaVhmuBr2Ele9NYQ9BvA3ZA1xHYHXRVj0SO3IJlB67Afg7iiQKCYlN2QPIqCgLirCWIvBU7/OiWdIfmxWXAN7ELdNpp+n2ApwHPxI5drnom5QZsd8G1FLsIU+4oICiuX8Kt5LRIGlyyBGAHH73F96BScGP3MUU2d+xRNcIju/+tsiOwKo5XYTUIQh3oVDoKCIpL2QHJu7hZgv4L6h8Cf43Vpy+CLI4/BmhhxXoehE2vpD1NkWf7A6djtQpOAT4IfJkwBZlKRQFBMT0deEToQYisY9IsweBzX9N9FEUWGYJbsIveA7EMwXFMlp24B9u3/5/YnfUdnsf3OexMgSy2jm7AqhgeDxyMHYT0EaAJfB/tOkhMAUExvTH0AERiGpclGHZB+01sceH3Ux9dcgdixXOi7XZZ2Ah8D1tQdwxWdyCuaFvfQdiRzd/Eggxf2Y2bsKJEWWRLot+ZfbFTIQ/Bvh/HAZ/CFntejzIGE1NAUDxPwdJlInkWt3rh4DHJUfDwOuDX0x9mYg/B/g7jVhL05dDuI8mFN0q1X4Wdpng9tg4izYV5cbcSJrURyxI8AptCmAE+DfwPVqPgJrQtMTYFBMWj7IAUVf8Fn4GP+z9fBV4EnI/dyebRKdgYH0Z+ChONEmUIDgF+FTvy/uNYtuDH2BTC3fipchhVWNy7+zpHkc0pjPcHfhE4tvv4NPBVLOi5EwUGYykgKJYnAY8NPQiRmOIsJhzMEPR7I/DCdIZWSdH391DgOdj5J/8FfB6birgBm0ZIkjGIAokN2MX/CCyNfzJ2quV9yKaK4v7Aw7EzEU7GSmJ/Dpt+qsqJiHHOgRgqCgja2ArWJDYDO5IOQCai7IAU3XprChjy+RxwGvCVrAZXIfthF87jgWfQW1fwY6zY0qQXzmuxLEO0yO8U4FHYvP7BxD+10Ycp4HDgicBJ2KFLn8B2alShdkE9aUMfAUEt6YvLRLYATwg9CJEJDcsSxJk6iJyLpYHz5iZsD/yB5GML4H7YneF+jF7k2P993gt7/94fu6O+HbgLu9ufNL1+NXYHXsMyAzV635tJ1hBEr3sLvfoCRzLZXW80PbIvNo3wHCzwuQT4DFbh8KYJ+qsMTRkUh7IDUlSTTB0MXjieiAXDl6Y2umSuwra6fYl8vI8eglUxrGPp+jgHBEVz/ZvozfGvDvw3riOxO++9saAkmh6YJCuwimUmbgK+2H3cg2UbTsN2FGyaoM8N3fEcCTwaW8twLBYUfAnbrbHe9tj+MVVGHn6RZbzHY2+MImUxKlsAa9+Uz8OCgjz5LrZYbR/ycUjcgVhAcC3wOOziuTeTp+mHHUwVR+J5665VLDvRAb4AfBi7aN+NbSPcia2fOq77WnF3dkS1Gg7Bgp7DsGzILBYYfAMLQIYtpozaVmHdAaCAoCiUHZCiGzd1MGo9wSOxaYN/z2Sk8dxEvtLOG7CFgT/BFgc+Abt4HojbscRZWMWmK36MBQEXYQsBf4RdjH+E/b9dDTSwjMHR9I5KjmsfLBg4FJtKOI7e2oIfAD/rPi+rctS5o4Ag/x4NPDn0IEQ8GBUUDH4tEv3bOViKvlIp3AncA1wHfJbeBfQXsZX2h5JtrYS4orLPt2IZgP8G/gVbRNp/1/5T7KL9feDbwM9jWdOoUuEk17EprDjTQ4D7dvv4BFbQ6Mru60ZBRjS+cYdy5U0taUMfAcEs+ZvfKxNlB6QKRmULwN7AXwB8IONxrSdauJa3u8l7gG9hF9GrgWdj0433IT/jjH6+u7EdDTuw7YEfxcY+bBfA3Vj2o4n9f10BPBWbRjiK3s8h7v9jVJPhsVjWYHN3DJ/EvndRP3dTvICgnrRhFBA0sVRMErNJX1zGegR27KlIWcSZOlhv98EbgX/G5ppDewjwUGwBXx4zrRuw0sa3Y+sKDid/WYIfYGsFPgb8H/G2BN5Bb/3GVcDXga3YzyPJ/98GbFfEk7AFh48A/o3egkbQGgLJCWUHpIwmWU/Q//EDgJcBf5nZSNd3ElYn4QTyse1wmCl61QLzsPARLJi7HgsCPoUFAj9k/YV9g1a7z7sByyxchwUGz8SmEY7C/p/jiILNTdjUw4lY1uBBWMGmDwPXUKEzERQQ5Nep5HP/tYgPk9YniD5+B7Cd3gKwUA7GFqY9iPyXLt5A+IDgdmydwBeBy7CL+XewQOBuJkvJR3P7N2FTDjdiayauxNZbnYztRIj7/xxN/+yP7c6YxtYXzGKBy1ewAKT0fAQENQ99yJ6UHZAqmSQo+B3gbVkPcMBGLEW9N/HvSKvq29hhQ5/HjnD+GnYhT3puQn/wcBc21XADtkvhe1hQcDp2cY+bvYnWH+yFZQkOxtZd3B9bV3BZ9/+jCNmCRtKGUUDQcnjxukNbGe4ULB0pUmZxFmsNCxDOBf4GW/wVym7szvYusqnRH8rUwMf9P6/Vvkd0quGwLY6XA+/DLqppXVB3YxfsH2NrDL6HLaY8AVtLEXcBaPScaG3BM7As0AOxRY9XYr93Pg6Byp0oIOiEHITs4Q2hByCSkbiLDAeDglcDf5TpSNe6EbsATZHfNQSuolR6VB0w+jlEFQV3YwHRHdjc/VHYxXfworsLK0WcxeK8W7CCQ9/GFhw+B7tpPRQrZRxNI8TdjbAfdoN2P2wnwgew7ZE/waZBirT7YCytIcifk4FnhR6ESIaSBAW/C7wL23Mfwn9iF4a9CD8/n4YNWKBzEL0zCTZhF/U7sZT/Ldjd8g3AAnas8onk4/txDbYj5YvYQtQnY7sIDmDyoGAjtpvkSdhuhpVu39GZCHnLFtSTNvSRIWg4tJU9vT70AEQCSBIU/BG2niCE27A747zs7U9DlDofvIAOZgnuIZ93yndiB/f9GbZ24ZewQm/HkGwh6F5YhcQXYIHPR7BsxHex4kp5UUvaMAoIdvgZhzg6CXhe6EGIBDJpUPAKYAlbrR5CZfanF9hd2NbET2F1D76O3emfjB16NElBo2jR4WHAY7CswQnYKYr/i00jFGHR4bo0ZZAvyg5I1U0aFJwDvDj7YQK9RXRVFGUHiuJGbHHj9VilwzOwKoUz9BYdxhEFD9NYUHEIthPhWGwK6dtYxj3U92azQ9u2r4BgM8oyuDoeeGHoQYjkwCRBwfOAtwNfzXiMR9BbRFfmXQbD3APcjM3Th9zpManbsdLI12HFkNrYlPdJ2M9y3wn72xcLKA7BFh3OYFMI/4etbfkZ2WeRag5t1wQETZKvB3AZhJjXhR6ASI7EKVxE9/M3kf023ZOw98vomOEq2Y3dZf8HxQoIIh3siOXvYP8fTwQehRUiOojJArzoTIQ6vWJGl2KLGb+FZSbGlWP2qebS2FeGwGkQwrHAttCDEMmZUUFB9DWwveKPxY7MzcqJWLnch5H/SoW+3Y0VGvoaloYvoruxu/gPYRfub2KnKJ6GXeD3YrIFo9GCw1/A3s9PwNYtfIlsyx/XHdq2+gOCtuMgLnZoX3Uh91OL5Nl6QQGsDRDegs0Li0xiNxbUfB8LcJ7afZyUsL99um2PwKaBTwQ+jk1p3Uk+d2NEOr4CAkluFnhp6EGI5NioA4+ioODx2Bv5xzMfnRTdKlZL4QtY1uAK7E7/CVhBo7iZ9ChQ3dhtdxq2NuFE7LCkZrf/NLMFDYe23hYVNrByojK5Pww9AJECGDZVMLiu4E1kFxBElQqjAj5Vcje9g4nK4h7s/+cqbF1Eu/vxGcCDmWxaPNqeeDC28DBadHg88GksE3ED+dulsceiQsnW/bG91CIy3mAt/cF1BadipWr/OYOxXAlchO1Jr9r27XuwPfdXhx5ICu7AdiB0sHMRdmI3vI/EdhHsNUFfUbB4FLZY8T5Y5mAjdtDTLZ7G3K/u0NZbhsBlEFX22tADECmYUUEBwHnAv5L+3dd3sAtHVOe/SlaxLEHoI6jTsopdrK/AtijupBcYnITVIIj7M4/OgzgQOyDpO1jmIK2tqjWHtjv7A4JWoEFU1THAb4YehEgBrRcUgKVlzwL+NuUx3NF9SHndjWUJdmHlia8Efhl4OHA4tt10kmDwp9iugytJJ5hyKUrUgbVVtnY5DcVtMFX0B6EHIFJgg+Vm+z9/G5MXmRFZz23Y1sR/wU6i/XtsuuQ2LBMVne0wTHTmw93YwsJLsGzDXSmMs+bQtgV7lt1sO3RYc2hbNUcCrww9CJESGLxDm8Lei347+6FIyf0M+AZWGfONwCexxaXjqhHeiQUUK9hZCmmsHQDHHQbgNyCoO7StmrNDD0CkRIYFBX+KzdWK+HQ3FgR8Evsdezc2DXArvWxBv93YtMP7ga+Q7s6MmkPbNuy5Orbt0GHNoW2VHIwKEYn41r8VMfL72J2cDxuwOeMDyLYUbVFMWtmvyFaxOffLseDgaqzK4WOxnQT7Yr8vq8C12PkG/4XtzEhjqiBSd2jbBr8BQQPVIojjN0IPQKTE+hcYvh54F7ZS3FUNOAVL/5Z1db2LE7GV9FUJCsDWEFyFnaD4Pez6+XNY2eJDu//+daw2xlXY4UppmnVo24Y9A4KWQ4c1h7ZVsS/wJ6EHIVJy/dmC1wELHvq8D3YIzikoQzDMA7ACPFUKCMDWD1yPnaMRBQVnYEcj34LV9/kC2RRxmnVoeynsGRB0HDqsO7StirNCD0CkQqawxbvvwN6sXdTQTY+s705sa+JPsAWEj+l+7TLgBxm8/haHtp3og8GA4FKHTsEqOe107KOsNgKvDj0IkYqZwqYyFYxLFm4FPotl2zdh0wRprhuIzDq0bUUfDO4yALcswaxD27J7HlapSkSyNQ88JPQgpFJuwa6lt2X0erMObVvRB8MCgtaQr8XVcGhbZlMUv0yx1j5Ikb059ACkUkYVK0pDw6FtO/pg2FkG7SFfi2vWoW2ZPRN4aOhBOPg9dDy2FNuZwKOA/xnxnKg+f4fhN0uSzM+w722WF8iqmXVo24o+UECQjSIfcXwZsIStsBYpsrdi+8XXcy32+34b1Vstn6YvYcf9jqvoJ8nNOrRtRR9Mra7uEbRtwe0oZP0hreX6/QzteOzc99Ox7TNSTVdh+6uL7ueBT63zb/thW+cOym44ldDpPnQYVDpcrjFt+ta2+c4QgHYaDCpyduCVWDAAcHPIgUhw5wK/jhVeKbK3YsHtMLeR3SIwEV/qDm3b/Z8MmydzvZjXHduXyWnAU0IPIqEm8Bd9n2dRWEPyaxe2U6boHoWtJxApi7pD22b/J+stnGmu8/U46g5ty6bIOwtewtpFQMoQVNstwDUUN8Dt92a0aFDKo+7QttX/yXp/FG2HF2g4tC2TE4Bnhx5EQr+BHdjRL60jO6UYbu3+9z8p/ha+hwAvDj0IEU/qDm1b/Z+sFxC01vl6HHWHtmXymtADSOiTwF8N+frurAciudIfEC5S7IWyYGsi9g49CBFHriWL1ywRSCMgqGELC6vsvsBLQw8ioZeFHoDkUn9AsBt4fqiBePIAbJGkSJHVHdq2Br+wXkDgeqZBw7F90f1e6AEk9DJGHwLzrawGIrlz68DnPwaeFGIgHl2AHdkrUlQNh7bNwS+MWljTcnihukPbojsMeFXoQSTwMeB9Y56jhYXVNWwNyaeBc7IeiGcLoQcg4qDu0LY1+IW0AoKGQ9ui+53QA0jo5TGeo62H1bXeiW1vxtadFNWbgENDD0IkgWk8VSiMjAoImg4vVHdoW2QHUsw7pm3AD2M8TxkCGXQP8CKKXdDnPdiOoAZwMnAUdly5SJ41HNq2GVJzaFilwkjL4cXAVj+6rkUomleEHkACHwb+LuZzFRBU0w1j/v1a4KkU9+/9ud3HMN8Erus+ru/7+LohX7899ZGK9DQc2raGfXFUQLDD4cXABlvUN4gk9gbeEHoQCfzaBM9VQFBN18V4zmeA1wFvSXksWTux+4jrauIHEJqCExcNh7atYV8cFRCATRskfdEGtte3Kl6Mbbkskhdiq8Xj0htYNcUtSvXH2FkHT01xLHn3QPoOi4mhg6VvrwN+wugg4kaP45Tiqzu0bQ77YtoBQVVsoHiFiP4N+IcJ2yhDUE2DWw7Xswr8KnAltttGxqux5xv7KmvLhg9+/A2GZyEGP74eFRQrq62O7Ydm7+MEBC6qso7gWdgxwUWSpCiLAoJqmqRs9fXYm9VlKY2lCgaPkJ+iFyRMYQsfRwUMgx9/i7UBw/XYupBhXyvy4tAqaTi0ba73D+MCAh8FiqoQEBTtiONnE29eeJCmDKopboYg8t/AHwBvS2EsVREFBat9nw9+Lfp4aszHx9O7YRkXPKwCP8KmEvszDcMeN2CnYEr2Gg5tm+v9w7iAIGqc9MUblH8dwVMp1jbLfwI+lLCtMgTVlORgq7cDTwCe4XksVRNlBwa/NvhxfwBwzzpfX+/jwb6P6T6i5w177cGvfxVbUPl54GJGVzwVN9OksH4A4h0B2nJ44YZD26IoWnbgtxzaKiCopiQBwSq20PYaz2Opov7swHpf6/98Q/cx1ffxqMeo520c8txhj1OwqaI/Aa7A1ic9yP1/XYZoOLZvrfcPcQKCpuOLuy5+yLPHYndBRXEm4/eUj6KAoJomnTKI3Aj8is+BVNykgcHUOp8P/luSx6jgYAqYw7IGcSqgymTmHNq2GDHNk0VA0HBsn2dFyg58AFhx7ENrCKopSYYg8gWKe9hXXk0aGAx+vl6gkMbjnVh5aPGn4dC2Oeof4wQEu8Z1MkbDoW2ePQx4ZuhBxHQLfs5YUIagmpJmCCLvwD0YlT2NCgziXPwHP08rQHg18Nvu/7sCbMbt/IKVUf8YJyAA93MNZhza51WR6g48D/iph34UEFSTS4Ygcha26Ez8GxYYDPt6kmBg2NeSPP4ceIjT/6WA+w32paP+MW5AsOI4iIZj+7w5CjvQpQiWgY966ktTBtXkIyDoAM/x0I+sb1xgMCo4GPzaqGBgveePe2gbqrs5h7Yr454QNyDYgf1BJzXn0DaPnhd6ADHdgN/z3tc7AlfKzXXKIPJl4JWe+pL1rRcY9P/buOBg8Os+MgZPZbJzIWRPDYe2zXFPiBsQxOpshDmHtnn0i6EHENMLUOEQcecjQxB5F8nrYMhk1rvQj/r3URmB9f593Ov0m4s3dBnCdcdec9wTJgkIVhIPw5Rl++FG4EmhBxHDe4H/TKFfzQNXj68MQeSlwHc89ymjTRIcxA0C4vQz+Dg98f+BzDm0bRPjBOMsA4I5x/Z5UYRiG98jva1eWkdQPT4zBGC/Q8/23KfEF+eOPk4AkGTaoIwLzLMy59B2Jc6TJgkIdqGqhQD3Dz2AGM4mvR0B2mlQPb4DAoDLgd9MoV+ZzCQp/zgX/HH2SjzSatuKnYyZVDPOkyYJCGJ3uo5ZbA9l0U2HHkAMH06xbwUE1eN7yiDyl8AHU+pbkpn0Aj+u/eDjej/DrJw5x/bNOE+aNCBYnngYa807ts+DwUM98uY/sMNN0qIpg+pJI0MQeQVwVYr9ixuXbMAwY+exZag5h7YrxFxcPmlAsANbnJDUnEPbvOiEHsAYP0q5f2UIqufOFPu+GdUnKKokawjSWOhcdptxmy5YifvESQOCiTofYpbiTxvk/VjPtDMYCgjEtx1YpkDKrQN8MvQgCmjesf1K3CcmCQiaCdr0m3dsH1ret90dkXL/CgiqpZPR67wXO4BLyuv1wN2hB1FAcw5tW0xQiyZJQHAx1a5aeA/widCDGOGklPvXGoJq+UmGr/VrwJUZvp5k53+Avwo9iALagtthRsuTPDlJQACaNkhzFb+rE4HTUuxfGYJqSXNB4aBbUX2Csno2sDv0IApo3rH9yiRPDhEQQPGnDf4p9ADGeA/JVwGPo4CgWtLacrierwEvyfg1JT3fw045zPvaq7yac2jbAnZO0iBpQOA6bTDv0DYPbgDeF3oQI5wOvCylvjVlUC1ZZggiFwLvD/C64teHgIcDV4QeSEFtw213wfKkDZIGBOCWJahR/LMN3hJ6AGP8DXBYCv0qQ1AtWWcIIr+OnY4oxfOvwM9h0wQqRJTcnGP7lUkbbHJ8sXmH9nNYpqGorsaCgteFHsgIfwK83HOfCgiqJUSGAOBnwNOBS4CTA41B9nQFliG9Abix7+PrsQJTX8Z+duJmmoynCwCmVledtq3/FLeURo1iH8+7D1aT/cGhBzLCY4AveOzvOOBbHvuTfHsX8MqAr38Ytoj3sQHHUEZtehfzwYv7sMdN5L9Ka5mcDSw5tF8ALpi0kUuGAGyOYsGh/Ryw3XEMId0BnIXfC65v7wEeib8VvlpDUC2hpgwiNwBnAH8O/HbgseTVN4h/cb+RdCtPih8Lju2XkzRyzRBsxu0ExBZwqssAcuJtwGtCD2KE3wH+wlNf+6GUYJW8nvysl3kS9nucdq2NUK5m8rt2KZ8tuBUAXAHOTNLQNSAAS5nXHdrPkmCuI2eKMHVwH/wVmVHqsDpehVvq0rdN2Nql1wDHhx3KSF9nsrv2u8IMU3LoQgKtz/MRELjOdSxhbzpFdzr5njp4P/BiT30pIKiOlwN/G3oQQ0wBTwZeBPxqiq/zXYZfwNe7uGvRrbiYxtZ31BK27wCHJH1xHwHBDG4nIHZw+B/ImbxPHWwBPuOhnx8Cx3joR/Lv+cAHQw9ijI3YfvfHYNOYxwP3Y23J19uA7zDZXbvq7kvWXG+wl7F1bYn4CAgALsJti8Q8xV5cGMn71MHXsDUbrm90X0Nbwaril4B/Dz0IkYq4GrezC+rY6aGJuBQm6rfs2H7ewxjyINp1kFcPxSJQV0qLVkeoOgQiVeN6kFELh2AA/AUErqWMGxT/wKPIF4E/DT2IEf4MuK9jH1rdXB2htx2KVMWiY/tl1wH4CgjAfSXygocx5MUbyXf97nc4tleGoDqUIRBJ3wx2Y5xUh5wFBMuO7eewFZZlkPepg+dgK7STUkBQHQoIRNK36Nh+BQ9Vf30GBDtxP/BowcdAciLvUwd/AeydsK2mDKpDUwYi6XI9twA81QrxGRCAFhcOyvPUwQnA7ydsqwxBdShDIJKuBdzOBGrhuJgw4jsguBi3mgSz2BnQZZH3qYO3YHNXk1JAUB13hB6ASMnNO7Zf8jAGwH9AAO6Dm/cwhjzJ+9TBxCdioYBARMSHbbhtNWzjsYZPGgHBsmP7BrYfs0zyPHWwFXjGhG20hqAaNF0gkq5Fx/bLHsZwrzQCgl24D3LRfRi5kvepg3cC+07wfGUIquGa0AMQKTHX7AAUICAA9wt6g/IUKorkeergWOAPJ3i+AoJqUIZAJD0Lju2X8XxScFoBwU7cznOGcm1BjOR56uCNwHExn6spg2rQlkORdGzBzh1wseg+jLXSCgjAzxbEJCvg8yzvUwfvivk8ZQiqQRkCkXQsOrZfwXN2ANINCLbjtgURyreWAPI9dfBU4JdjPE8BQTUoQyDi3xbcyhSDx62G/dIMCMD9gj5P+bIEkO+pg78EDhjzHAUE1aAMgYh/i47tm8Cl7sPYU9oBgbIEw+V56uBI4A1jnqMLRTXo5yzi11bcswPL7sMYLu2AALSWYD15njr4A+DBI/59NauBSFCaMhDxa8mxfRuPhYgGZREQLGFHM7pYdB5FPuV56uDdY/5dd4/lp5+xiD8+6g4sug9jfVkEBLvwU864jFmCPE8dnAE8f8S//yCrgUgwyhCI+LPo2L5NitkByCYgAGUJRsnz1MH7gIPX+TctLCw/ZQhE/Mh9dgCyCwiUJRgtr1MH+wHnrvNvCgjKTwGBiB+Lju3bpJwdgOwCAvCTJVh2HkU+5XnqYAE4ZcjXFRCUn6YMRNydQwGyA5BtQOAjS9DAtm2UUZ6nDt4DTA18TeWLy08ZAhE3M7iX4W+TQXYAsg0IwE+WYMl5FPmV16mDx2FzYP2UISg/ZQhE3CwCNQ99ZCLrgMBHlmAWONt5JPmU56mDC4FD+j5XQFB+yhCIJLcFW/vmokVG2QHIPiAAfzsOpl0HklN5njp4S9/HCgjKTwGBSHKLHvpY8NBHbCECAh9ZghrlPB45ktepg98AHtH9WGsIyk9TBiLJbMO9RHGLlM4sWM/U6mqQKrTT2EKJmmM/s6RwBGROnA58IfQghvgS8Gjgxdg0gpTXfsDtoQchUjDT2MV81rGfBhkHBCEyBOAnS4CnPvIqr1MHjwRejqYMqkDBgMjkFnAPBppkHAxAuAwBFDiKytA+wOWMPmgolBcCHwg9CEnV4FZTERltBvcTfgHqwA4P/UwkVIYALEuw6KGfZQ995FWedx28NvQAJFW3hR6ASAEte+hjkQDBAIQNCMC2UzQd+5jFKkGVVV6nDh4WegCSKh1eJTIZHwsJOwScCg85ZRDZgntQAOVeYJjnqQMpp8uB00IPQqQgfC2UXwAucOwjsdAZArD5/xUP/Sx76COv8jx1IOWkLYci8S3hHgy0CRgMQD4CAvBTU6BBec85gPxOHUg5qSiRSDw+KhLiqQ8neQkIduJvgWFZKxhCfgsWSfkoQyAy3jR+stMr5GC3XF4CAvBT0rhGuWsTaOpAsqIMgch4i7hvnYecVN7NU0CwCz/flHkshVNWmjqQLCggEBltC36uWYvkZEF8ngIC8LMNETR1IOJKUwYi65vGTza65akfL/IWEICfhRWzZHiGdACaOpC0KUMgsr5FrJqgqwUsO54LeahDMMw5+LmgN8jBQg0RESkNX7VzlsnZjV1eAwJf5xy0sSguNxGYiIgUlq9rU6fbR66uTXmcMgB/CwxnKXfBIhERyc4yfnYVLJKzYADymyGIXATMeehnHluwKCIiksRW/FTVXQHO9NCPd3kPCHzVh+5gUwe52NohIiKFUolrUV6nDCK+pg5q+InsRESkelZwDwYgRzUHhsl7QACW6l/x0E+dch+TLCIi/p2D+7HGYIsRgx5eNE7epwwiM9g3s+ahrzqww0M/IiJSbpuxLYY1x3465HiqIFKEDAH4O/wI7Idb5iqGIiLiLjq4qOahr0VyHgxAcTIEkUvwk7ppAmd46EdERMrpQvxUzm1SkOtNUTIEkTncT0QECyq0nkBERIbZhp9goIOfrfOZKFqGAPyVjQStJxARkbV8rRuAgpXPL1qGAOybu+SpryZaTyAiIsbnuoElChQMQDEzBGA/tCZ+TptqUpD5HRERSZWvdQMtLDuQu/LEoxQxQwD2TZ7H33qC8z30IyIixXU2/tYNzFOwYACKGxCAzf0veOprAVtEIiIi1bMFf1PRCxR0bVpRpwz6+dqK2On2U8gfpIiIJOKz8F2TAk9BlyEg8HXoBOT0jGoREUmFz/VoHQp+/SjylEFkF34yBGBBRdNTXyIikm/L+AkGoICLCAeVISAAv+sJ6miRoYhI2W3DX9GgBUow3VyGKYN+vraM0O1nu6e+REQkP3wWuFsGzvLUV1BlCwimscUhs576a1CwwhIiIjKSz0qEbSyrXOipgkjZAgKwH3bLU18dtPNARKQsfO4ogJKVvy/LGoJ+O/A3bVBD5Y1FRMpgGljBXzAwT4mCAShnQAA297/sqa8aCgpERIpuBX87CpYp4RqzMk4Z9PNVtAjsl+lMT32JiEh2fC44b1Lg4kOjlDVDEJnDFn346utCT32JiEg2zsFfMNDG31bF3Cl7QLAL++F1PPU3jx2AISIi+bcNWPTUVwe7npRiR8EwZZ8yiGzFUv6+zFPC+SMRkRLxWWsALBi42GN/uVP2DEHkYvxVMgRbUKLTEUVE8mkzfm8CFyh5MADVyRBEfC4sARUuEhHJG5+Fh6BElQjHqVpAAHA5/raedFDhIhGRvPAdDLSAUz31lXtVmTLo18BfJcMa9su32VN/IiKSjO/CQy38bVsvhCoGBLuwaYOOp/5q2C+hggIRkTCiksSznvrrYNeJ0u4oGKaKUwYRn2cegP0CzVKxXyARkcCmsUxt3WOfdSo4FVzFDEHE55kHoBLHIiJZSyMYmKeCwQBUOyAAqyWw4LG/OgoKRESykEYwsECFa8xUPSAAuAAFBSIiRZJWMHCBx/4Kp8prCAb5rlHQwlaoak2BiIg/aQQDy1Sk1sAoyhD0nIW/I5NBmQIREd8UDKRIGYI9+SxcBMoUiIj4kEYw0KJChYfGUYZgTw38bkesd/tTpkBEJJlp7H207rHPFhUrPDSOAoI97cJ/UDCLggIRkSSiYGDWY58tlLndgwKC4dIMCmY89ikiUma+KxCCgoF1aQ3BaNNAG3+1sen2N0dFC1+IiMQUHWE867HPDqoouy5lCEaLMgUdj33OogORRERGiU4tnPXYZwdlBkZShiCeKG1V89hnBx2dLCIyaAt+Ty0Ee7+tAzs99lk6yhDEsxP/mYIaFgFv9diniEiRbSWdYKCBgoGxFBDEt4N0goIVYJvHPkVEimgb6QUDysTGoIBgMlFQ0Pbc7zIKCkSkus7Gb6VYsPfpBgoGYtMagmSiBS81z/0uoxKaIlItvs+RAe3mSkQBQXIKCkRE3FyEXbh9aqNgIBEFBG7SCgqa2C+0tseISBmlcS4BKBhwojUEbnZgv9Adz/02UK0CESmnzfg/lwB6FQgVDCSkDIEfadTaBgs05oBLPfcrIhLCVmxatOa53xYqOuRMGQI/dtE71dCnGpYp0A4EESm6s/G/rRAUDHijDIFfac2LgRYbikhxpbGTABQMeKUMgV/R2QfNFPqex1bk6ghlESmKaeBy0gkGloFTUTDgjQIC/3Zh8/4rKfQ9hxYbikgxpLV4EJQxTYUCgnTsAs7Ef+Ut6K1V0LoCEcmrs0lnoTXAIgoGUqE1BOlLa+4MYAl4VUp9i4gkkeZ73jywPaW+K08BQTa2kU62AGxqYh7No4lIWJux97l6Cn13sPe5i1PoW7oUEGQnOtYzDR1UkENEwkmrvgDo/S0zWkOQnYvxf3xypIbN152TQt8iIqNcSDr1BUAnFmZKGYLspZlWA00hiEg20n4va6EaA5lShiB7O7Bf8lZK/c9hUfXWlPoXETmb9IqwgWoMBKGAIIxd2C/7ckr917BMgaYQRMSnaaxA2hLpTBEALKBthUFoyiC8s7E/rrS0sCkEzcGJiIs0Fw6CdhIEpwxBeBdgaf5OSv3XsdTe2Sn1LyLlNg2cT3oLB6G3eFDBQEDKEOTHZuwPbjbF12hiEfjOFF9DRMpjC5YVmE3xNVpo8WAuKEOQHzvo3c2npYH98SlbICKjRFmBJukGA0to8WBuKEOQT+dg9brT1ETZAhHZUxZZgQ62eFBliHNEGYJ8Ohe7WHdSfI0GyhaISE9WWYEO9v6jYCBnlCHItxlsXUE95ddpomyBSJVlkRWg+xoLaIogl5QhyLedWCS9kvLrNFDpY5EqmsZKDzdJPxhYxOoLKBjIKWUIiiPNExP7NbE/3EszeC0RCWcb9rc+m/LrdNB5BIWgDEFxbMemDlopv04DCwrOx+4eRKRcZoBLyGaKYKX7GgoGCkABQbFE5yCsZPBaC1ixkG0ZvJaIpG8amxZsY+8jaVsEzkRTBIWhKYPi2ka69cT7NdGiQ5Eiy2rRIFjAMYeyAoWjDEFxbaeX3k9bA/sjvxBNI4gUyWZseqBJNsHAMja1qWCggBQQFNsO4AzSPRyp3zwWGGg3gki+RbsHWmQzPdDB3h+0i6DANGVQHlmmBMHeaBbQbgSRvMlyOhE0pVgayhCUx6VYqm4po9erY28El2BpSREJaytwNekeUdyvg90UnIGCgVJQhqCctmCBQT3D11zpvqYyBiLZ2oZdmOsZvuZK9zUVCJSIAoLymsa2/Sxk/LrL3dfVG4VIurZgf2uNDF+z033NCzJ8TcmIAoLyy3ptQWQZBQYiaQgRCIDWCpSe1hCU36XAA8lubUFknt5WxZmMX1ukjLbQ20LYyPB1O9jfs9YKlJwyBNWS1emJwyyjjIFIEqEyAqDTCStFAUE1Zb0tqd8KWnwoEkeIxYKRFtpWXDkKCKprBrvrmA/0+isoMBAZJmQg0MH+LpdQVqByFBBIqEWHkTb25rOM3oCkumawIGCeMJk70KLBylNAIJGzsYxBLdDrt7GgYBm9IUl1bMYCgTnC/u3No2xd5SkgkH7T2N36fNhhsNJ9bA87DJFUTGN/Y/OEmRaIdLC/93MDjkFyRAGBDBNyVXO/DpYxWEJZAym+LfQCgdCW0a4fGaCAQEbZil2MZ8MOA+hlDVbQWgMpjhlsOmCesNmASBObotDxxLIHBQQSR8htioPa2JvaMprzlPzahgUCDfLxd9NC2whlDAUEEtc09oayQD7e4EALESVf8rBAcFAbmxrQehwZSwGBTCrUoUnjtLAsxgqaUpDsRNsF58jH1Fqkgw4hkgkpIJCkZrB50QXyczcUaWFZgyaaKxX/tmABwBz5CgKglxFYQYGxTEgBgbgKXfFwnBYWHKygaQVJbjO9HQK1kANZRwdVGBRHCgjEl2iNwWLYYYzUorcgUZkDGWUaWxA4R77WBAzqYH93WiMgzhQQiG95nkoY1KS3lVHZA8nzVMCgNpoaEM8UEEiaQpdDnkQbyyCsYIGCAoTy20xva2Cd4vyezqPtg5ICBQSShZCntyXVohcgtFCAUAZbsN/BOSwDMBtuKBNbQaeDSsoUEEiWNmNvao2ww0ikzdogQWsQ8m0au/DXu49GuKE4WUKluyUjCggkhDwc9epDa+Chu7cwZlh74a9T7N+rNjoSXAJQQCChbcUCg7mww/CqQ29HQwtNOfgSpfz7H2XRoTctoOyTBKGAQPIi2p0wT7HmdifRpBcgtLtfa6G7wH4z9H7+DeyiP0u5Lv79WqjCpuSEAgLJm/793/MhB5KhNmsDhBblDRgGL/izA59XQYdesSxNM0luKCCQPIsWhi1Q3jvESTS7/+1ggQLrfA7ZXGi2DHzeWOfzGvr5gQUAy8DFYYchMpwCAimKvB4iIzJKi96JnGXK9EgJKSCQItpKb1phNuRARIZo0auAqQWCUhgKCKTottDbpVALORCptDa9XQLaUSKFpIBAyiQ6ka6B5qwlfU10FoaUiAICKasZenXq50IOREqjQ++sixW0JkBKRgGBVEFRjrKV/GnTywJoi6CUmgICqaIZegFCAwUI0tOmlwFooiyAVIgCApG10wt1tHOhSlr0ykyvoABAKkwBgcieNrP2oJx6uKGIZ03WnjOhxYAiXQoIROLZytpDdWbDDUViatErA72CagKIjKSAQCSZaXpZBOgdwFMPMZiKa2IX/g69Ms5aACgyIQUEIv6V+Zje0Jr07vxb6K5fxBsFBCLZiA4Cmu0+GligUAsxmJzrsHaev9N96OIvkiIFBCLhDZt+mO1+XKdcQUOH3smMre7n0Lv4a5W/SCAKCESKIQoaYM8gYdznaekw+hjmdvcButiL5N7/ByqWcpBJKcSkAAAAAElFTkSuQmCC;" parent="1" vertex="1">
          <mxGeometry x="473.67" y="506.89" width="66.08" height="66.21" as="geometry" />
        </mxCell>
      </root>
    </mxGraphModel>
  </diagram>
</mxfile>
